<svg id="Layer_2" data-name="Layer 2" xmlns="http://www.w3.org/2000/svg" viewBox="0 0 1465 1872.01"><path d="M950.67,1678.73H859.82a327,327,0,0,0,14.94-169.48,66.6,66.6,0,0,1,62.48-1,329,329,0,0,0-.42,118.92A322.24,322.24,0,0,0,950.67,1678.73Z" transform="translate(-227.5 -24.5)" style="fill:#666;stroke:#000;stroke-miterlimit:10;stroke-width:6px"/><path d="M979.08,1399.76c-1,1.56-1.9,3.14-2.81,4.72s-1.8,3.11-2.69,4.67c-.77,1.33-1.51,2.66-2.25,4-1,1.83-2,3.63-2.91,5.46-1.14,2.15-2.22,4.3-3.28,6.44s-2.13,4.35-3.16,6.55c-.08.17-.15.34-.25.51-.94,2-1.85,4.05-2.74,6.1s-1.75,4-2.59,6c-1.24,2.93-2.4,5.87-3.51,8.83-.64,1.63-1.26,3.29-1.88,4.94-.09.3-.22.62-.32.91-.74,2-1.43,4.08-2.12,6.13-.94,2.71-1.8,5.45-2.64,8.19-.64,2-1.26,4.13-1.85,6.22s-1.26,4.47-1.85,6.72c0,.12-.08.27-.1.39-.6,2.27-1.16,4.57-1.71,6.87-.07.29-.14.59-.19.89q-.71,2.92-1.34,5.85c-.1.39-.17.81-.24,1.21-.52,2.29-1,4.59-1.41,6.91a66.6,66.6,0,0,0-62.48,1c-1.39-7.8-3.07-15.5-5-23.08a320.43,320.43,0,0,0-24.56-65.64c-3.53-7.09-7.36-14-11.41-20.77Z" transform="translate(-227.5 -24.5)" style="fill:#666;stroke:#000;stroke-miterlimit:10;stroke-width:6px"/><path d="M1580.88,1568.87c0,179.3-145.33,324.63-324.64,324.63-140.74,0-260.54-89.54-305.57-214.77a322.24,322.24,0,0,1-13.85-51.52,329,329,0,0,1,.42-118.92c.44-2.32.89-4.62,1.41-6.91.07-.4.14-.82.24-1.21q.63-2.93,1.34-5.85c0-.3.12-.6.19-.89.55-2.3,1.11-4.6,1.71-6.87,0-.12.07-.27.1-.39q.88-3.37,1.85-6.72c.59-2.09,1.21-4.17,1.85-6.22.84-2.74,1.7-5.48,2.64-8.19.69-2,1.41-4.1,2.12-6.13.1-.29.23-.61.32-.91.62-1.65,1.24-3.31,1.88-4.94,1.11-3,2.27-5.9,3.51-8.83.84-2,1.7-4,2.59-6s1.8-4.07,2.74-6.1c.1-.17.17-.34.25-.51,1-2.2,2.07-4.37,3.16-6.55s2.14-4.29,3.28-6.44c1-1.83,1.92-3.63,2.91-5.46.74-1.33,1.48-2.66,2.25-4,.89-1.56,1.78-3.12,2.69-4.67s1.85-3.16,2.81-4.72a325.41,325.41,0,0,1,166.81-136.27,311.53,311.53,0,0,1,37-10.91,324.92,324.92,0,0,1,73.37-8.34C1435.55,1244.24,1580.88,1389.57,1580.88,1568.87Z" transform="translate(-227.5 -24.5)" style="stroke:#000;stroke-miterlimit:10;stroke-width:6px"/><rect x="617.71" y="382.85" width="128.37" height="629.52" style="fill:#ccc;stroke:#000;stroke-miterlimit:10;stroke-width:6px"/><rect x="617.71" y="1202.46" width="128.37" height="172.81" style="fill:#ccc;stroke:#000;stroke-miterlimit:10;stroke-width:6px"/><path d="M783,1214.59l-27.41,10-95.24,34.63a323.49,323.49,0,0,0-65.3-15c26.54-9.46,51.57-18.57,52.71-19.7L665,1207.21l61.72-24.94,38.39-15.53A34.52,34.52,0,0,0,783,1214.59Z" transform="translate(-227.5 -24.5)" style="fill:#666;stroke:#000;stroke-miterlimit:10;stroke-width:6px"/><path d="M1078.65,1212.64a43,43,0,0,1-32.07,14.32H769.74a42.26,42.26,0,0,1-14.2-2.42l27.41-10a34.52,34.52,0,0,1-17.85-47.85l-38.39,15.53V1115.2L804,1127.89c30.32,5,51.72-28.94,34.2-54.17l-25.61-36.85h209.79l-15,48.48a45.67,45.67,0,0,0,11.9,89.76c1.06,0,2.1,0,3.13-.12.52,0,1,0,1.53-.12.65,0,1.26-.13,1.88-.23.45-.07.86-.12,1.31-.22a10.58,10.58,0,0,0,1.23-.22c.47-.1,1-.2,1.44-.32.69-.15,1.35-.32,2-.52s1.31-.39,2-.62,1.29-.44,1.93-.69Z" transform="translate(-227.5 -24.5)" style="fill:#ccc;stroke:#000;stroke-miterlimit:10;stroke-width:6px"/><path d="M1089.61,1079.9v91.56L1061.44,1147c.32-.77.62-1.53.89-2.3.2-.59.42-1.21.59-1.82s.42-1.43.62-2.15.27-1.19.39-1.78.2-1,.27-1.45c0-.08,0-.18,0-.25a4.9,4.9,0,0,0,.15-.92,8.09,8.09,0,0,0,.12-.86c0-.17,0-.34.08-.54.05-.4.07-.79.12-1.19,0-.56.1-1.16.13-1.73,0-.83.07-1.67.07-2.54a45.41,45.41,0,0,0-12.22-31.08l16.93-54.8A43,43,0,0,1,1089.61,1079.9Z" transform="translate(-227.5 -24.5)" style="fill:#ccc;stroke:#000;stroke-miterlimit:10;stroke-width:6px"/><path d="M1281.13,359.31l-8,25.82-203.52,658.43-16.93,54.8a45.48,45.48,0,0,0-33.45-14.59,45,45,0,0,0-11.9,1.58l15-48.48,201.45-651.74,12.57-40.71a45.58,45.58,0,0,0,44.78,14.89Z" transform="translate(-227.5 -24.5)" style="fill:#ccc;stroke:#000;stroke-miterlimit:10;stroke-width:6px"/><path d="M1366.1,251.82V340.3a44.83,44.83,0,0,1-44.83,44.83h-48.12l8-25.82a45.71,45.71,0,1,0-44.78-14.89l-12.57,40.71h-2.94A44.83,44.83,0,0,1,1176,340.3V251.82Z" transform="translate(-227.5 -24.5)" style="fill:#ccc;stroke:#000;stroke-miterlimit:10;stroke-width:6px"/><path d="M1316.73,314.77a45.68,45.68,0,1,1-45.67-45.67A45.63,45.63,0,0,1,1316.73,314.77Z" transform="translate(-227.5 -24.5)" style="fill:#333;stroke:#000;stroke-miterlimit:10;stroke-width:6px"/><circle cx="1042.32" cy="291.51" r="24.69" style="fill:#c33;stroke:#000;stroke-miterlimit:10;stroke-width:6px"/><path d="M1052.7,1098.36a45.48,45.48,0,0,0-33.45-14.59,45,45,0,0,0-11.9,1.58,45.67,45.67,0,0,0,11.9,89.76c1.06,0,2.1,0,3.13-.12.52,0,1,0,1.53-.12.65,0,1.26-.13,1.88-.23.45-.07.86-.12,1.31-.22a10.58,10.58,0,0,0,1.23-.22c.47-.1,1-.2,1.44-.32.69-.15,1.35-.32,2-.52s1.31-.39,2-.62,1.29-.44,1.93-.69L1018,1155.36a24.69,24.69,0,1,1,24.69-24.68l18.74,16.29c.32-.77.62-1.53.89-2.3.2-.59.42-1.21.59-1.82s.42-1.43.62-2.15.27-1.19.39-1.78.2-1,.27-1.45c0-.08,0-.18,0-.25a4.9,4.9,0,0,0,.15-.92,8.09,8.09,0,0,0,.12-.86c0-.17,0-.34.08-.54.05-.4.07-.79.12-1.19,0-.56.1-1.16.13-1.73,0-.83.07-1.67.07-2.54A45.41,45.41,0,0,0,1052.7,1098.36Z" transform="translate(-227.5 -24.5)" style="fill:#333;stroke:#000;stroke-miterlimit:10;stroke-width:6px"/><path d="M830.39,1182.52A34.55,34.55,0,1,1,795.83,1148,34.57,34.57,0,0,1,830.39,1182.52Z" transform="translate(-227.5 -24.5)" style="fill:none;stroke:#000;stroke-miterlimit:10;stroke-width:6px"/><path d="M808.18,1125.74" transform="translate(-227.5 -24.5)" style="fill:none;stroke:#000;stroke-miterlimit:10;stroke-width:6px"/><path d="M879.77,1566.4a323.84,323.84,0,0,1-19.95,112.33C814.12,1802.66,695,1891,555.13,1891c-179.3,0-324.63-145.34-324.63-324.64s145.33-324.63,324.63-324.63a324,324,0,0,1,278.67,158c4.05,6.77,7.88,13.68,11.41,20.77a320.43,320.43,0,0,1,24.56,65.64c1.92,7.58,3.6,15.28,5,23.08A328,328,0,0,1,879.77,1566.4Z" transform="translate(-227.5 -24.5)" style="stroke:#000;stroke-miterlimit:10;stroke-width:6px"/><path d="M1030.36,251.82V364.15a43.31,43.31,0,0,1-43.2,43.2H831.63a43.63,43.63,0,0,1-8.45-.84l7-9.56,36.56-50.16c14.34-19.7-1.61-46.83-25.48-43.35l-34.88,5.09-17.92,2.61V251.82Z" transform="translate(-227.5 -24.5)" style="fill:#ccc;stroke:#000;stroke-miterlimit:10;stroke-width:6px"/><path d="M1042.7,1130.68A24.68,24.68,0,1,1,1018,1106,24.7,24.7,0,0,1,1042.7,1130.68Z" transform="translate(-227.5 -24.5)" style="fill:#c33;stroke:#000;stroke-miterlimit:10;stroke-width:6px"/><path d="M1182.87,1252.58a311.53,311.53,0,0,0-37,10.91l-16.78-16.78-22.22-7.41-28.24-26.66-43-40.59L1018,1155.36a24.7,24.7,0,0,0,24.69-24.68l18.74,16.29,28.17,24.49Z" transform="translate(-227.5 -24.5)" style="fill:#666;stroke:#000;stroke-miterlimit:10;stroke-width:6px"/><rect x="36.33" y="3" width="1425.67" height="223.53" style="stroke:#000;stroke-miterlimit:10;stroke-width:6px"/><polygon points="1462 3 1462 56.51 1333.96 226.53 1252.07 226.53 1420.38 3 1462 3" style="fill:#900;stroke:#900;stroke-miterlimit:10;stroke-width:6px"/><polygon points="1210.64 3 1042.34 226.53 960.42 226.53 1128.72 3 1210.64 3" style="fill:#900;stroke:#900;stroke-miterlimit:10;stroke-width:6px"/><polygon points="886.23 3 717.9 226.53 636.01 226.53 804.31 3 886.23 3" style="fill:#900;stroke:#900;stroke-miterlimit:10;stroke-width:6px"/><polygon points="576.83 3 408.53 226.53 326.64 226.53 494.94 3 576.83 3" style="fill:#900;stroke:#900;stroke-miterlimit:10;stroke-width:6px"/><polygon points="245.57 3 77.27 226.53 36.33 226.53 36.33 172.17 163.71 3 245.57 3" style="fill:#900;stroke:#900;stroke-miterlimit:10;stroke-width:6px"/><path d="M804,1127.89l-77.24-12.69-105.34-17.31A34.76,34.76,0,0,1,597.62,1045l26.59-42.11,7.5,7,10-10.79,25.72,23.85,13.21,12.22a22.21,22.21,0,1,0,30.16-32.61l-15.33-14.2L672,966.53l9.38-10.07-17.5-16.27L674.67,923a34.79,34.79,0,0,1,58-1.26l79.91,115.12,25.61,36.85C855.67,1099,834.27,1132.85,804,1127.89Z" transform="translate(-227.5 -24.5)" style="fill:#999;stroke:#000;stroke-miterlimit:10;stroke-width:6px"/><path d="M866.71,346.79,830.15,397l-7,9.56-42.9,58.88c-11.63,15.94-35.5,15-45.4-1.9l-3.6-6.13,38.63-50a35.8,35.8,0,1,0-35.8-35.8L703.8,410.63l-26.32-44.81c-9.9-16.83.57-38.61,19.92-41.44l91-13.24,17.92-2.61,34.88-5.09C865.1,300,881.05,327.09,866.71,346.79Z" transform="translate(-227.5 -24.5)" style="fill:#999;stroke:#000;stroke-miterlimit:10;stroke-width:6px"/><path d="M739.05,1023.29a35.8,35.8,0,0,1-71.59,0v-.37l13.21,12.22a22.21,22.21,0,1,0,30.16-32.61l-15.33-14.2a36.68,36.68,0,0,1,7.76-.84A35.79,35.79,0,0,1,739.05,1023.29Z" transform="translate(-227.5 -24.5)" style="fill:#ccc;stroke:#000;stroke-miterlimit:10;stroke-width:6px"/><path d="M712.07,1034a22.3,22.3,0,0,1-31.4,1.19l-13.21-12.22-25.72-23.85-10,10.79-7.5-7L442,833.52a49.36,49.36,0,1,1,9.75-97.93l-16.49,21.25A28.38,28.38,0,1,0,469.67,796l20.46-26.46a49.81,49.81,0,0,1,2.1,11.15l171.6,159.48,17.5,16.27L672,966.53l23.55,21.8,15.33,14.2A22.27,22.27,0,0,1,712.07,1034Z" transform="translate(-227.5 -24.5)" style="fill:#999;stroke:#000;stroke-miterlimit:10;stroke-width:6px"/><path d="M769.91,407.35l-38.63,50L490.13,769.56,469.67,796a28.39,28.39,0,1,1-34.42-39.18l16.49-21.25,252.06-325,30.31-39.08A35.8,35.8,0,0,0,769.91,407.35Z" transform="translate(-227.5 -24.5)" style="fill:#ccc;stroke:#000;stroke-miterlimit:10;stroke-width:6px"/><circle cx="542.41" cy="347.06" r="35.8" style="fill:#c33;stroke:#000;stroke-miterlimit:10;stroke-width:6px"/><circle cx="1028.74" cy="1544.37" r="174.04" style="fill:#ccc;stroke:#000;stroke-miterlimit:10;stroke-width:6px"/><circle cx="1029.98" cy="1545.61" r="148.12" style="fill:#666;stroke:#000;stroke-miterlimit:10;stroke-width:6px"/><circle cx="327.63" cy="1541.91" r="174.04" style="fill:#ccc;stroke:#000;stroke-miterlimit:10;stroke-width:6px"/><circle cx="328.87" cy="1543.14" r="148.12" style="fill:#666;stroke:#000;stroke-miterlimit:10;stroke-width:6px"/><path d="M931.61,1568.87a328.9,328.9,0,0,0,5.21,58.34,66.57,66.57,0,0,1-62.46-1.44,328.47,328.47,0,0,0,.4-116.52,66.6,66.6,0,0,1,62.48-1A326.67,326.67,0,0,0,931.61,1568.87Z" transform="translate(-227.5 -24.5)" style="fill:#ccc;stroke:#000;stroke-miterlimit:10;stroke-width:6px"/><circle cx="1029.75" cy="1545" r="72.25" style="fill:#fff;stroke:#000;stroke-miterlimit:10;stroke-width:6px"/><circle cx="328.75" cy="1543" r="72.25" style="fill:#fff;stroke:#000;stroke-miterlimit:10;stroke-width:6px"/></svg>