<svg id="atplicon" xmlns="http://www.w3.org/2000/svg" data-name="Layer 2" viewBox="0 0 1877.05 622"><defs><style>#atplicon .cls-1{fill:#c33;}#atplicon .cls-1,#atplicon .cls-2,#atplicon .cls-3,#atplicon .cls-4{stroke:#c33;stroke-miterlimit:10;}#atplicon .cls-2{fill:#f33;}</style></defs><metadata>Created by Laya Amiri for Homa Pilot 2021 - 2025</metadata><title>ATPLs for Piloting Students</title><path class="cls-1" d="M1876.5,596.5s-34,30-90,43-40,16-151,26c0,0-151,5-198,2,0,0-12,5-127,14,0,0-152.47,1.2-225.77,1.74,166-9.73,293.71-17.72,301.77-19.74,24-6,19-35-14-38s-54-12-110-11-217,28-217,28-57.25,9.66-157.34,22.43l-3.66-.43-122-4s-130-16-193-36-289-74-289-74l-.12,0,140.12-13c10-6,0-13,0-13l-189-1-16.95,3.56c-2.41-3.87-8.47-14.87-6.05-24.56,3-12,5-25,22-34l22,1-136-275h92l301,253s23,19,63,21c39,1.95,526.62,4.85,551.05,5h1s96.25-11.92,181.08-20.21c23.3-2.28,45.75-4.28,65.09-5.7,10.09-.73,19.34-1.3,27.43-1.67,4.91-.22,9.41-.36,13.4-.42,69-1,274,4,274,4s33,1,51,11,37,26,37,26l84,49s15,7,28,26S1876.5,596.5,1876.5,596.5Z" transform="translate(-13.06 -194)"/><path class="cls-1" d="M420.5,537.5l-140.12,13L74.5,569.5l189.37-24.63L420.5,524.5S430.5,531.5,420.5,537.5Z" transform="translate(-13.06 -194)"/><polygon class="cls-1" points="407.44 330.5 250.81 350.87 61.44 375.5 4.44 374.5 201.49 333.06 218.44 329.5 407.44 330.5"/><path class="cls-1" d="M871.35,695.53l-58.28,3.3q28.68-1.74,55.52-3.76h0Z" transform="translate(-13.06 -194)"/><path class="cls-1" d="M777.28,700.85q-7.6.4-15.33.78" transform="translate(-13.06 -194)"/><path class="cls-1" d="M811.73,698.91q-16.71,1-34,1.92" transform="translate(-13.06 -194)"/><path class="cls-1" d="M1024,679.83c212.63-26.31,297.43-61.93,297.43-61.93" transform="translate(-13.06 -194)"/><polygon class="cls-2" points="265.44 534.5 198.44 536.5 145.44 484.5 187.44 482.5 265.44 534.5"/><path class="cls-3" d="M1398.1,445.92c-8.09.37-17.34.94-27.43,1.67.09-.82.2-1.63.35-2.42,1.66-9,7.06-15.67,13.48-15.67C1391.09,429.5,1396.62,436.5,1398.1,445.92Z" transform="translate(-13.06 -194)"/><path class="cls-1" d="M1384.5,429.5c-6.42,0-11.82,6.63-13.48,15.67-.15.79-.26,1.6-.35,2.42-19.34,1.42-41.79,3.42-65.09,5.7l-1-1.24c-10.18-12.4-23.35-31.57-37.15-52.81l69.1,21.26S1383.5,422.5,1384.5,429.5Z" transform="translate(-13.06 -194)"/><path class="cls-1" d="M1305.58,453.29c-84.83,8.29-181.08,20.21-181.08,20.21h-1L1121.38,446l-1.55-19.8L1107.5,269.5l-36-49h33l56,43s19,3,28,11c5.39,4.79,44.16,71.31,78.89,124.74h0c13.8,21.24,27,40.41,37.15,52.81Z" transform="translate(-13.06 -194)"/><path class="cls-1" d="M1121.38,446l-21.28-8a2.58,2.58,0,0,1,.05-4.84l19.68-7Z" transform="translate(-13.06 -194)"/><path class="cls-1" d="M1148.86,710.84c-41.55-9.8-92.36,2.66-92.36,2.66-.28.52-.56,1-.83,1.55l-.43.85c-.21.4-.4.8-.59,1.2-.09.18-.18.36-.26.54-.18.36-.34.73-.5,1.09-.27.59-.53,1.19-.78,1.77H1032.5c-17.6,10.27-14.23,34.51-11.18,46.71L994.5,762.5c-8-18,0-27,0-27h-23c-15.37-22-67.34-34.28-100.14-40h0l-2.75-.46c58-4.35,109.68-9.58,155.43-15.24l22.63,5.63h0Z" transform="translate(-13.06 -194)"/><path class="cls-3" d="M1168.5,747c0,19.61-7.61,35.5-17,35.5-8.85,0-16.12-14.11-16.92-32.15,0-1.1-.08-2.22-.08-3.35,0-19.61,7.61-35.5,17-35.5S1168.5,727.39,1168.5,747Z" transform="translate(-13.06 -194)"/><path class="cls-1" d="M1151.5,782.5c-76,14-100-10-100-10a44.75,44.75,0,0,1-2-6.19c-.09-.36-.18-.73-.27-1.12s-.18-.78-.27-1.19c0-.21-.09-.42-.13-.63-.09-.43-.18-.87-.26-1.32l-.12-.68c-.08-.47-.16-.94-.24-1.43a70.94,70.94,0,0,1-.77-7.63c0-.32,0-.65,0-1s0-.7,0-1.05c0-.51,0-1,0-1.55s0-1,0-1.56,0-.87,0-1.32c0-.11,0-.22,0-.33,0-.88.09-1.76.17-2.67v-.05l.09-1c0-.42.08-.85.13-1.28s.11-1,.18-1.45c.09-.7.2-1.4.31-2.12.07-.41.14-.83.22-1.24.24-1.32.52-2.68.86-4,.13-.57.28-1.15.44-1.73a.08.08,0,0,1,0,0c.13-.5.27-1,.42-1.51.22-.76.46-1.53.72-2.3.19-.59.39-1.18.61-1.78a.88.88,0,0,1,.05-.15c.2-.55.41-1.11.63-1.67s.53-1.33.81-2,.51-1.18.78-1.77c.16-.36.32-.73.5-1.09.08-.18.17-.36.26-.54.19-.4.38-.8.59-1.2l.43-.85c.27-.52.55-1,.83-1.55,0,0,50.81-12.46,92.36-2.66l2.64.66c-9.39,0-17,15.89-17,35.5,0,1.13,0,2.25.08,3.35C1135.38,768.39,1142.65,782.5,1151.5,782.5Z" transform="translate(-13.06 -194)"/><path class="cls-1" d="M1053.11,720.5c-.28.68-.56,1.35-.81,2s-.43,1.12-.63,1.67a.88.88,0,0,0-.05.15c-.22.6-.42,1.19-.61,1.78-.26.77-.5,1.54-.72,2.3-.15.5-.29,1-.42,1.51a.08.08,0,0,0,0,0c-.16.58-.31,1.16-.44,1.73-.34,1.37-.62,2.73-.86,4-.08.41-.15.83-.22,1.24-.11.72-.22,1.42-.31,2.12-.07.49-.13,1-.18,1.45s-.09.86-.13,1.28l-.09,1v.05c-.08.91-.13,1.79-.17,2.67,0,.11,0,.22,0,.33,0,.45,0,.89,0,1.32s0,1.05,0,1.56,0,1,0,1.55c0,.35,0,.71,0,1.05s0,.66,0,1a70.94,70.94,0,0,0,.77,7.63c.08.49.16,1,.24,1.43l.12.68c.08.45.17.89.26,1.32,0,.21.09.42.13.63.09.41.18.81.27,1.19s.18.76.27,1.12a44.75,44.75,0,0,0,2,6.19l-19-3.32-11.23-2c-3.05-12.2-6.42-36.44,11.18-46.71Z" transform="translate(-13.06 -194)"/><line class="cls-1" x1="981.44" y1="541.5" x2="1019.44" y2="526.5"/><path class="cls-1" d="M1386.5,663.5c-8.06,2-135.75,10-301.77,19.74h0l-38,2.22h0L1024,679.83c-45.75,5.66-97.42,10.89-155.43,15.24h0q-26.85,2-55.52,3.76l-1.34.08-34,1.92-.41,0-91,5.12c-48.86,2.73-96.07,5.36-140,7.79C392,722.32,278.5,728.5,278.5,728.5l-15-10c264.9-12.2,485.93-35.87,624.66-53.57,100.09-12.77,157.34-22.43,157.34-22.43s161-27,217-28,77,8,110,11S1410.5,657.5,1386.5,663.5Z" transform="translate(-13.06 -194)"/><path class="cls-3" d="M805.5,780c0,19.61-7.61,35.5-17,35.5l-.65,0c-9.09-.71-16.35-16.31-16.35-35.47,0-12,2.83-22.52,7.16-29l0,0a17.39,17.39,0,0,1,4.65-4.86,9.23,9.23,0,0,1,5.17-1.67C797.89,744.5,805.5,760.39,805.5,780Z" transform="translate(-13.06 -194)"/><path class="cls-1" d="M783.33,746.17c1.48-1.57,2.3-2.46,2.3-2.46S742.5,732.5,695.5,739.5c0,0-19,25-6,60-36-3-59-14-59-14-9-16,0-24,0-24h-22c-15.13-19.67-47.42-39.33-62.25-47.74,43.91-2.43,91.12-5.06,140-7.79L712.5,719.5l76,25A9.23,9.23,0,0,0,783.33,746.17Z" transform="translate(-13.06 -194)"/><path class="cls-1" d="M787.85,815.47l-88.35-4c-9-3-10-12-10-12-13-35,6-60,6-60,47-7,90.13,4.21,90.13,4.21s-.82.89-2.3,2.46a17.39,17.39,0,0,0-4.65,4.86l0,0c-4.33,6.43-7.16,17-7.16,29C771.5,799.16,778.76,814.76,787.85,815.47Z" transform="translate(-13.06 -194)"/><path class="cls-4" d="M783.33,746.17c-1.16,1.24-2.74,2.89-4.65,4.86A17.39,17.39,0,0,1,783.33,746.17Z" transform="translate(-13.06 -194)"/><polyline class="cls-1" points="617.44 567.5 649.44 557.5 676.57 555.21"/><path class="cls-1" d="M662.5,751.5s-15.77,18.77-.88,43.39" transform="translate(-13.06 -194)"/><path class="cls-3" d="M1776.8,493l-20.67,19.39a2.13,2.13,0,0,1-1.41.58l-64.49,1.32a3,3,0,0,0-.42.05l-46.26,10.25-.27,0-30.17,2.78a2.13,2.13,0,0,1-2.33-2.19l1.29-40.07a2.12,2.12,0,0,1,2.08-2.06l33.08-.68,23.3-.48.19,0c2-.23,34.56-4.3,59.1-23a2.12,2.12,0,0,1,2.29-.2,245.07,245.07,0,0,1,44.66,31.15A2.14,2.14,0,0,1,1776.8,493Z" transform="translate(-13.06 -194)"/><ellipse class="cls-3" cx="1127.44" cy="384.5" rx="13" ry="19"/><ellipse class="cls-3" cx="1075.44" cy="384.5" rx="13" ry="19"/><ellipse class="cls-3" cx="1023.44" cy="384.5" rx="13" ry="19"/><ellipse class="cls-3" cx="971.44" cy="384.5" rx="13" ry="19"/><ellipse class="cls-3" cx="1334.44" cy="384.5" rx="13" ry="19"/><ellipse class="cls-3" cx="1282.44" cy="384.5" rx="13" ry="19"/><ellipse class="cls-3" cx="1230.44" cy="384.5" rx="13" ry="19"/><ellipse class="cls-3" cx="1178.44" cy="384.5" rx="13" ry="19"/><ellipse class="cls-3" cx="713.44" cy="384.5" rx="13" ry="19"/><ellipse class="cls-3" cx="661.44" cy="384.5" rx="13" ry="19"/><ellipse class="cls-3" cx="609.44" cy="384.5" rx="13" ry="19"/><ellipse class="cls-3" cx="557.44" cy="384.5" rx="13" ry="19"/><ellipse class="cls-3" cx="920.44" cy="384.5" rx="13" ry="19"/><ellipse class="cls-3" cx="868.44" cy="384.5" rx="13" ry="19"/><ellipse class="cls-3" cx="816.44" cy="384.5" rx="13" ry="19"/><ellipse class="cls-3" cx="764.44" cy="384.5" rx="13" ry="19"/><ellipse class="cls-3" cx="1542.44" cy="384.5" rx="13" ry="19"/><ellipse class="cls-3" cx="1490.44" cy="384.5" rx="13" ry="19"/><ellipse class="cls-3" cx="1438.44" cy="384.5" rx="13" ry="19"/><ellipse class="cls-3" cx="1386.44" cy="384.5" rx="13" ry="19"/></svg>