<svg id="Layer_2" data-name="Layer 2" xmlns="http://www.w3.org/2000/svg" viewBox="0 0 745.95 1039.5"><path d="M1046.22,166" transform="translate(-563.2 -19.03)" style="fill:none;stroke:#000;stroke-linejoin:round;stroke-width:8px"/><polyline points="161.27 1035.97 367.75 307.6 582.34 1035.97" style="fill:none;stroke:#000;stroke-linejoin:round;stroke-width:25px"/><polygon points="287.62 594.08 450.85 593.73 328.14 448.06 406.9 447.7 287.62 594.08" style="fill:none;stroke:#000;stroke-linejoin:round;stroke-width:25px"/><polyline points="450.85 593.73 245.38 740.1 493.09 739.04 287.62 594.08" style="fill:none;stroke:#000;stroke-linejoin:round;stroke-width:25px"/><polyline points="493.09 739.04 195.73 915.62 545.6 916.33 245.38 740.1" style="fill:none;stroke:#000;stroke-linejoin:round;stroke-width:25px"/><polyline points="195.73 915.62 369.11 999 545.6 916.33" style="fill:none;stroke:#000;stroke-linejoin:round;stroke-width:25px"/><circle cx="369.9" cy="217.12" r="87.15" style="fill:#c33;stroke:#c33;stroke-linejoin:round;stroke-width:8px"/><path d="M1081.93,97.1a142.58,142.58,0,0,1,76.5,74.5c31.49,71.55-1.48,156.34-73,187.83-2.1.92-4.22,1.8-6.36,2.62" transform="translate(-563.2 -19.03)" style="fill:none;stroke:#c33;stroke-linejoin:round;stroke-width:20px"/><path d="M788.47,362.05A142.56,142.56,0,0,1,712,287.55C680.49,216,713.46,131.21,785,99.72c2.1-.92,4.22-1.8,6.36-2.62" transform="translate(-563.2 -19.03)" style="fill:none;stroke:#c33;stroke-linejoin:round;stroke-width:20px"/><path d="M705.55,409.41a201.25,201.25,0,0,1-108-105.17c-44.45-101,2.08-220.72,103.1-265.17q4.44-2,9-3.7" transform="translate(-563.2 -19.03)" style="fill:none;stroke:#c33;stroke-linejoin:round;stroke-width:35px"/><path d="M1166.79,35.37a201.25,201.25,0,0,1,108,105.17c44.45,101-2.08,220.72-103.1,265.17q-4.44,2-9,3.7" transform="translate(-563.2 -19.03)" style="fill:none;stroke:#c33;stroke-linejoin:round;stroke-width:35px"/></svg>