<svg id="Layer_2" data-name="Layer 2" xmlns="http://www.w3.org/2000/svg" viewBox="0 0 1229.34 1267.23"><path d="M987.87,462.08V815.57H269.13V685.1l1.44,0a39.33,39.33,0,1,0,0-78.66l-1.44,0V462.08Z" transform="translate(-22.8 -2.45)" style="fill:#666;stroke:#000;stroke-miterlimit:10;stroke-width:25px"/><rect x="319.65" y="421.27" width="43.85" height="38.36" style="stroke:#000;stroke-miterlimit:10;stroke-width:15px"/><rect x="406.56" y="422.05" width="43.84" height="37.58" style="stroke:#000;stroke-miterlimit:10;stroke-width:15px"/><rect x="493.46" y="422.05" width="43.85" height="37.58" style="stroke:#000;stroke-miterlimit:10;stroke-width:15px"/><rect x="581.15" y="422.05" width="43.85" height="37.58" style="stroke:#000;stroke-miterlimit:10;stroke-width:15px"/><rect x="668.84" y="420.48" width="43.84" height="39.15" style="stroke:#000;stroke-miterlimit:10;stroke-width:15px"/><rect x="755.75" y="420.48" width="43.84" height="39.15" style="stroke:#000;stroke-miterlimit:10;stroke-width:15px"/><rect x="842.65" y="421.66" width="43.85" height="37.97" style="stroke:#000;stroke-miterlimit:10;stroke-width:15px"/><rect x="318.54" y="813.12" width="43.84" height="40.71" style="stroke:#000;stroke-miterlimit:10;stroke-width:15px"/><rect x="405.44" y="813.12" width="43.85" height="41.5" style="stroke:#000;stroke-miterlimit:10;stroke-width:15px"/><rect x="492.35" y="813.12" width="43.84" height="41.5" style="stroke:#000;stroke-miterlimit:10;stroke-width:15px"/><rect x="580.04" y="813.12" width="43.84" height="41.5" style="stroke:#000;stroke-miterlimit:10;stroke-width:15px"/><rect x="667.73" y="813.12" width="43.84" height="39.93" style="stroke:#000;stroke-miterlimit:10;stroke-width:15px"/><rect x="754.63" y="813.12" width="43.85" height="39.93" style="stroke:#000;stroke-miterlimit:10;stroke-width:15px"/><rect x="841.54" y="813.12" width="43.84" height="41.11" style="stroke:#000;stroke-miterlimit:10;stroke-width:15px"/><polyline points="87.43 919.79 341.49 918.13 341.49 853.42" style="fill:none;stroke:#000;stroke-miterlimit:10;stroke-width:25px"/><polyline points="176.31 1214.06 329.83 1214.69 328.56 1059.9 428.79 1059.9 428.79 855.64" style="fill:none;stroke:#000;stroke-miterlimit:10;stroke-width:25px"/><line x1="608.87" y1="1179.8" x2="609.35" y2="858.45" style="fill:none;stroke:#000;stroke-miterlimit:10;stroke-width:25px"/><polyline points="1141.91 1177.9 684.38 1180.28 686.28 858.65" style="fill:none;stroke:#000;stroke-miterlimit:10;stroke-width:25px"/><polyline points="1105.1 850.57 1011.85 850.57 1011.85 921.93 863.04 921.62 863.89 856.49" style="fill:none;stroke:#000;stroke-miterlimit:10;stroke-width:25px"/><polyline points="866.27 1038.02 772.54 1038.97 772.54 856.27" style="fill:none;stroke:#000;stroke-miterlimit:10;stroke-width:25px"/><circle cx="906.23" cy="1038.02" r="39.96" style="fill:#c33;stroke:#c33;stroke-miterlimit:10;stroke-width:15px"/><circle cx="1145.07" cy="850.57" r="39.96" style="fill:#c33;stroke:#c33;stroke-miterlimit:10;stroke-width:15px"/><circle cx="1181.87" cy="1177.9" r="39.96" style="fill:#c33;stroke:#c33;stroke-miterlimit:10;stroke-width:15px"/><circle cx="608.87" cy="1219.76" r="39.96" style="fill:#c33;stroke:#c33;stroke-miterlimit:10;stroke-width:15px"/><circle cx="47.46" cy="919.79" r="39.96" style="fill:#c33;stroke:#c33;stroke-miterlimit:10;stroke-width:15px"/><circle cx="136.35" cy="1214.06" r="39.96" style="fill:#c33;stroke:#c33;stroke-miterlimit:10;stroke-width:15px"/><polyline points="1178.53 99.48 1177.9 196.54 1056.73 196.54 1056.73 342.44 869.6 341.49 869.6 416.66" style="fill:none;stroke:#000;stroke-miterlimit:10;stroke-width:25px"/><line x1="774.88" y1="320.17" x2="775.08" y2="415.39" style="fill:none;stroke:#000;stroke-miterlimit:10;stroke-width:25px"/><polyline points="831.27 75.08 682.46 76.64 683.73 414.13" style="fill:none;stroke:#000;stroke-miterlimit:10;stroke-width:25px"/><polyline points="300.89 280.59 373.31 280.59 431.89 424.27" style="fill:none;stroke:#000;stroke-miterlimit:10;stroke-width:25px"/><polyline points="102.65 53.81 36.05 54.13 34.14 163.55 341.49 162.6 449.01 257.76 517.53 419.52" style="fill:none;stroke:#000;stroke-miterlimit:10;stroke-width:25px"/><polyline points="438.87 47.47 555.59 108.36 601.26 422.37" style="fill:none;stroke:#000;stroke-miterlimit:10;stroke-width:25px"/><polyline points="53.17 593.65 53.17 376.7 332.9 376.7 336.73 465.25" style="fill:none;stroke:#000;stroke-miterlimit:10;stroke-width:25px"/><circle cx="55.08" cy="625.91" r="39.96" style="fill:#c33;stroke:#c33;stroke-miterlimit:10;stroke-width:15px"/><circle cx="398.9" cy="47.46" r="39.96" style="fill:#c33;stroke:#c33;stroke-miterlimit:10;stroke-width:15px"/><circle cx="142.62" cy="53.81" r="39.96" style="fill:#c33;stroke:#c33;stroke-miterlimit:10;stroke-width:15px"/><circle cx="267.86" cy="280.59" r="39.96" style="fill:#c33;stroke:#c33;stroke-miterlimit:10;stroke-width:15px"/><circle cx="774.88" cy="280.21" r="39.96" style="fill:#c33;stroke:#c33;stroke-miterlimit:10;stroke-width:15px"/><circle cx="871.23" cy="75.08" r="39.96" style="fill:#c33;stroke:#c33;stroke-miterlimit:10;stroke-width:15px"/><circle cx="1178.53" cy="59.52" r="39.96" style="fill:#c33;stroke:#c33;stroke-miterlimit:10;stroke-width:15px"/><line x1="519.09" y1="986.32" x2="511.18" y2="848.03" style="fill:#c33;stroke:#000;stroke-miterlimit:10;stroke-width:25px"/><circle cx="519.09" cy="1026.28" r="39.96" style="fill:#c33;stroke:#c33;stroke-miterlimit:10;stroke-width:15px"/><circle cx="338.72" cy="755.8" r="25.69" style="stroke:#000;stroke-miterlimit:10;stroke-width:15px"/></svg>