<svg id="Layer_1" data-name="Layer 1" xmlns="http://www.w3.org/2000/svg" viewBox="0 0 1065.94 1065.94"><circle cx="528.93" cy="543.54" r="77.13" style="fill:none;stroke:#000;stroke-miterlimit:10;stroke-width:3px"/><path d="M1012.54,1005.74c-250.26,0-453.13-203.11-453.13-453.64S762.28,98.46,1012.54,98.46s453.14,203.1,453.14,453.64S1262.81,1005.74,1012.54,1005.74Z" transform="translate(-480.06 -8.56)" style="stroke:#000;stroke-miterlimit:10;stroke-width:3px"/><circle cx="528.93" cy="543.54" r="77.13" style="fill:none;stroke:#000;stroke-miterlimit:10;stroke-width:3px"/><circle cx="528.93" cy="543.54" r="77.13" style="fill:none;stroke:#000;stroke-miterlimit:10;stroke-width:3px"/><circle cx="528.93" cy="543.54" r="77.13" style="fill:none;stroke:#000;stroke-miterlimit:10;stroke-width:3px"/><path d="M1389.05,548c0,211.58-169.7,383.1-379,383.1S631,759.62,631,548a384,384,0,0,1,87.13-244.39c2.46-3,5-6,7.51-8.87q6.25-7.17,12.83-14,7.38-7.66,15.17-14.88l25.93,25.51.38,1A344.36,344.36,0,0,0,666.48,548c0,190.28,154,344.54,344,344.54s344-154.26,344-344.54c0-1.16,0-2.33,0-3.48-.11-11.43-.78-22.74-2-33.87l34.68-.52q1.46,14.88,1.75,30.05Q1389,544.12,1389.05,548Z" transform="translate(-480.06 -8.56)" style="fill:#fff;stroke:#000;stroke-miterlimit:10;stroke-width:3px"/><text transform="translate(697.98 600.73) rotate(-36.59)" style="font-size:175.8722686767578px;fill:#c33;font-family:Calibri-Bold, Calibri;font-weight:700">CR-3</text><circle cx="528.93" cy="543.54" r="77.13" style="fill:#c33;stroke:#c33;stroke-miterlimit:10;stroke-width:3px"/><path d="M1227.69,406.47l-28.83,19.44c-32.67-58.78-104.71-99.62-188.35-99.62C948,326.29,892,349.11,854,385.17L827.84,360.8s18.92-18,52-35.63c37.52-20,93.24-39.45,160.14-31.35,64.33,7.78,108.77,32,138.46,56.39A227.32,227.32,0,0,1,1227.69,406.47Z" transform="translate(-480.06 -8.56)" style="fill:#fff;stroke:#000;stroke-miterlimit:10;stroke-width:3px"/><path d="M1227.69,291.79l-49.29,58.42c-29.69-24.39-74.13-48.61-138.46-56.39-66.9-8.1-122.62,11.35-160.14,31.35l-30.65-63.83s99.46-60.89,190.79-48.71C1039.94,212.63,1151.58,221.76,1227.69,291.79Z" transform="translate(-480.06 -8.56)" style="fill:#fff;stroke:#000;stroke-miterlimit:10;stroke-width:3px"/><text transform="translate(640.16 79.97) rotate(21.5)" style="font-size:55px;font-family:Calibri-Bold, Calibri;font-weight:700">30</text><text transform="matrix(0.73, 0.68, -0.68, 0.73, 817.63, 169.96)" style="font-size:56px;font-family:Calibri-Bold, Calibri;font-weight:700">35</text><text transform="translate(933.11 294.95) rotate(62.58)" style="font-size:55px;font-family:Calibri-Bold, Calibri;font-weight:700">40</text><text transform="translate(994.03 433.56) rotate(85.86)" style="font-size:55px;font-family:Calibri-Bold, Calibri;font-weight:700">45</text><text transform="translate(998.22 574.38) rotate(92.92)" style="font-size:55px;font-family:Calibri-Bold, Calibri;font-weight:700">50</text><text transform="matrix(-0.38, 0.92, -0.92, -0.38, 977.8, 692.32)" style="font-size:55px;font-family:Calibri-Bold, Calibri;font-weight:700">55</text><text transform="matrix(-0.63, 0.78, -0.78, -0.63, 929.93, 792.39)" style="font-size:55px;font-family:Calibri-Bold, Calibri;font-weight:700">60</text><text transform="translate(788.09 928.87) rotate(153.56)" style="font-size:55px;font-family:Calibri-Bold, Calibri;font-weight:700">70</text><text transform="translate(630.79 998.25) rotate(175.52)" style="font-size:55px;font-family:Calibri-Bold, Calibri;font-weight:700">80</text><text transform="matrix(-0.98, -0.17, 0.17, -0.98, 479.66, 1002)" style="font-size:55px;font-family:Calibri-Bold, Calibri;font-weight:700">90</text><text transform="translate(359.1 972.99) rotate(-151.11)" style="font-size:55px;font-family:Calibri-Bold, Calibri;font-weight:700">10</text><text transform="translate(252.19 916) rotate(-139.23)" style="font-size:55px;font-family:Calibri-Bold, Calibri;font-weight:700">11</text><text transform="translate(174.47 836.99) rotate(-127.63)" style="font-size:55px;font-family:Calibri-Bold, Calibri;font-weight:700">12</text><text transform="translate(119.55 756.2) rotate(-113.12)" style="font-size:55px;font-family:Calibri-Bold, Calibri;font-weight:700">13</text><text transform="matrix(-0.16, -0.99, 0.99, -0.16, 77.66, 668.47)" style="font-size:55px;font-family:Calibri-Bold, Calibri;font-weight:700">14</text><text transform="translate(65.14 579.97) rotate(-91.18)" style="font-size:55px;font-family:Calibri-Bold, Calibri;font-weight:700">15</text><text transform="translate(62.11 499.78) rotate(-84.42)" style="font-size:55px;font-family:Calibri-Bold, Calibri;font-weight:700">16</text><text transform="translate(80.29 419.96) rotate(-80.97)" style="font-size:55px;font-family:Calibri-Bold, Calibri;font-weight:700">17</text><text transform="translate(95.82 352.18) rotate(-60.08)" style="font-size:55px;font-family:Calibri-Bold, Calibri;font-weight:700">18</text><text transform="translate(129.75 289.85) rotate(-52.17)" style="font-size:55px;font-family:Calibri-Bold, Calibri;font-weight:700">19</text><text transform="matrix(0.72, -0.7, 0.7, 0.72, 168.75, 235.88)" style="font-size:55px;font-family:Calibri-Bold, Calibri;font-weight:700">20</text><circle cx="532.97" cy="532.97" r="523.47" style="fill:none;stroke:#000;stroke-miterlimit:10;stroke-width:19px"/><text transform="translate(488.9 59.26)" style="font-size:21.311878204345703px;font-family:Calibri-Bold, Calibri;font-weight:700">TRUE ALTITUDE</text><path d="M858.79,601.82S875,661.7,936.94,696.21l17.25-24.36s-54.8-35.52-68-78.14Z" transform="translate(-480.06 -8.56)" style="fill:#fff;stroke:#000;stroke-miterlimit:10;stroke-width:3px"/><path d="M823.78,611.47l-27.4,11.16s21.31,85.25,109.6,129.9l16.24-18.27S856.26,694.68,823.78,611.47Z" transform="translate(-480.06 -8.56)" style="fill:#fff;stroke:#000;stroke-miterlimit:10;stroke-width:3px"/><path d="M1034.87,713l1,31.46s93.36-5.07,141.06-92.35l-27.4-13.19S1107.94,706.86,1034.87,713Z" transform="translate(-480.06 -8.56)" style="fill:#fff;stroke:#000;stroke-miterlimit:10;stroke-width:3px"/><path d="M938.46,450.1s83.22-56.83,169.48,21.32l-26.39,25.37s-40.59-61.91-125.84-20.3Z" transform="translate(-480.06 -8.56)" style="fill:#fff;stroke:#000;stroke-miterlimit:10;stroke-width:3px"/><path d="M1384,711.94s21.31-3.05,30.45,13.19c0,0-21.32,81.19-118.74,161.36,0,0-18.27-4.06-23.34-25.37C1272.35,861.12,1345.42,809.36,1384,711.94Z" transform="translate(-480.06 -8.56)" style="fill:#fff;stroke:#000;stroke-miterlimit:10;stroke-width:3px"/><text transform="translate(523.94 196)" style="font-size:32.475250244140625px;fill:#fff;font-family:Calibri-Bold, Calibri;font-weight:700">0</text><text transform="matrix(0.94, 0.35, -0.35, 0.94, 619.25, 205.09)" style="font-size:32.47523498535156px;fill:#fff;font-family:Calibri-Bold, Calibri;font-weight:700">+50</text><text transform="matrix(0.86, 0.52, -0.52, 0.86, 702.96, 231.41)" style="font-size:32.475406646728516px;fill:#fff;font-family:Calibri-Bold, Calibri;font-weight:700">+100</text><text transform="translate(380.82 239.97) rotate(-28.57)" style="font-size:32.475162506103516px;fill:#fff;font-family:Calibri-Bold, Calibri;font-weight:700">-50</text><path d="M858,277.89s181.5-121.57,362.13,22.53" transform="translate(-480.06 -8.56)" style="fill:none;stroke:#000;stroke-miterlimit:10;stroke-width:3px"/><path d="M914.1,309s-13.19-12.18-23.34-14.21-21.14-1.26-25.29-5.2" transform="translate(-480.06 -8.56)" style="fill:none;stroke:#000;stroke-miterlimit:10;stroke-width:4px"/><path d="M927.39,304.07s-8.21-13.3-20.39-17.36-17.25-2-30.45-8.12-18.26-12.17-18.26-12.17" transform="translate(-480.06 -8.56)" style="fill:none;stroke:#000;stroke-miterlimit:10;stroke-width:4px"/><path d="M939.41,300.21A42.66,42.66,0,0,0,909,272.5c-24.36-6.08-27.4-7.1-33.49-11.16" transform="translate(-480.06 -8.56)" style="fill:none;stroke:#000;stroke-miterlimit:10;stroke-width:4px"/><path d="M952.67,297.88s-1-17.26-34.51-32.48-27.4-21.31-27.4-21.31" transform="translate(-480.06 -8.56)" style="fill:none;stroke:#000;stroke-miterlimit:10;stroke-width:4px"/><path d="M965.59,294.63s.27-18.07-23.07-32.27S924.25,243.07,920.19,239a50.25,50.25,0,0,0-8.25-6.61" transform="translate(-480.06 -8.56)" style="fill:none;stroke:#000;stroke-miterlimit:10;stroke-width:4px"/><path d="M977,292.82c0,1,2-17.26-13.17-32.49s-15-20.64-15-20.64S938,226.4,934.71,225.09" transform="translate(-480.06 -8.56)" style="fill:none;stroke:#000;stroke-miterlimit:10;stroke-width:4px"/><path d="M987.91,291.62s-1.75-28.25-6.83-33.32S968,238,969.45,235,960,218.23,960,218.23" transform="translate(-480.06 -8.56)" style="fill:none;stroke:#000;stroke-miterlimit:10;stroke-width:4px"/><line x1="531.45" y1="282.64" x2="531.47" y2="202.04" style="fill:none;stroke:#000;stroke-miterlimit:10;stroke-width:4px"/><path d="M1000.37,290.77c0-2-3-40.59-6.09-44.65s-12.38-32.61-12.38-32.61" transform="translate(-480.06 -8.56)" style="fill:none;stroke:#000;stroke-miterlimit:10;stroke-width:4px"/><path d="M1022.69,290.77s-2-9.13,0-22.32S1033,230.68,1033,230.68s3.26-15,2.58-18" transform="translate(-480.06 -8.56)" style="fill:none;stroke:#000;stroke-miterlimit:10;stroke-width:3px"/><path d="M1033.83,292.91s-2-34.61,12.2-49.84,12.26-27.41,12.26-27.41" transform="translate(-480.06 -8.56)" style="fill:none;stroke:#000;stroke-miterlimit:10;stroke-width:3px"/><path d="M1039.94,293.82s11.17-36.54,25.38-49.73,14.43-25,14.43-25" transform="translate(-480.06 -8.56)" style="fill:none;stroke:#000;stroke-miterlimit:10;stroke-width:3px"/><path d="M1051.43,294.63s5.77-38.36,30.12-46.48c0,0,16.24-13.19,18.27-23.34" transform="translate(-480.06 -8.56)" style="fill:none;stroke:#000;stroke-miterlimit:10;stroke-width:3px"/><path d="M1061.3,295.92s4-29.5,33.45-42.7l24.35-21.31" transform="translate(-480.06 -8.56)" style="fill:none;stroke:#000;stroke-miterlimit:10;stroke-width:3px"/><path d="M1069.88,298.06s6.6-34.69,44.15-40.78L1135.34,238" transform="translate(-480.06 -8.56)" style="fill:none;stroke:#000;stroke-miterlimit:10;stroke-width:3px"/><path d="M1078.51,298.89c1,0,7.1-28.41,36.53-33.49L1151.21,244" transform="translate(-480.06 -8.56)" style="fill:none;stroke:#000;stroke-miterlimit:10;stroke-width:3px"/><path d="M1085.12,301.92s21.81-29.42,41.09-30.43,40.46-20.64,40.46-20.64" transform="translate(-480.06 -8.56)" style="fill:none;stroke:#000;stroke-miterlimit:10;stroke-width:3px"/><path d="M1102.29,306.65s7.68-33.13,66.54-27l28.31-10.73" transform="translate(-480.06 -8.56)" style="fill:none;stroke:#000;stroke-miterlimit:10;stroke-width:3px"/><text transform="translate(554.08 695.48) rotate(-18.13)" style="font-size:28.415803909301758px;fill:#fff;font-family:Calibri-Bold, Calibri;font-weight:700">0</text><text transform="translate(576.97 688.79) rotate(-23.6)" style="font-size:28.41568946838379px;fill:#fff;font-family:Calibri-Bold, Calibri;font-weight:700">10</text><text transform="translate(610.93 674.4) rotate(-34.55)" style="font-size:28.415861129760742px;fill:#fff;font-family:Calibri-Bold, Calibri;font-weight:700">20</text><text transform="matrix(0.72, -0.69, 0.69, 0.72, 641.57, 645.98)" style="font-size:28.415786743164062px;fill:#fff;font-family:Calibri-Bold, Calibri;font-weight:700">30</text><text transform="translate(281.63 607.79) rotate(-19.53)" style="font-size:21.311847686767578px;fill:#fff;font-family:Calibri-Bold, Calibri;font-weight:700">TRUE AIR SPEED</text><text transform="translate(414.52 575.88) rotate(50.11)" style="font-size:21.311878204345703px;fill:#fff;font-family:Calibri-Bold, Calibri;font-weight:700">DENSITY ALT</text><text transform="matrix(0.86, 0.51, -0.51, 0.86, 636.23, 587.84)" style="font-size:21.311723709106445px;fill:#fff;font-family:Calibri-Bold, Calibri;font-weight:700">TRUE ALTITUDE</text><text transform="translate(300.2 275.05) rotate(-40.69)" style="font-size:21.311777114868164px;fill:#fff;font-family:Calibri-Bold, Calibri;font-weight:700">CAS</text><path d="M565.42,477.07A29.1,29.1,0,0,1,581,501.35l22.47,1,4.89-39.08-19.55-5.86S582.06,476.24,565.42,477.07Z" transform="translate(-480.06 -8.56)" style="fill:#fff;stroke:#fff;stroke-miterlimit:10;stroke-width:3px"/><text transform="translate(117.34 485.78) rotate(-82.25)" style="font-size:40.059696197509766px;font-family:Calibri-Bold, Calibri;font-weight:700">1</text><path d="M947.19,424.59a3.83,3.83,0,0,0-1.34-1.26c-.49-.24-.88-.23-2.35.45l-1.3.61c1.5,3.2,2.25,4.8,3.76,8,.61,1.3.85,1.41,2.62.73l.22.47c-2.14,1-3.21,1.48-5.32,2.53l-.23-.46c1.59-.92,1.66-1.16,1-2.47l-3.85-8-1.11.54c-1.65.81-2,1.2-2,1.64a5.68,5.68,0,0,0,.13,1.85l-.56.29c-.45-1.1-.92-2.21-1.34-3.12l.4-.21c.49.26.73.14,1.29-.14,3.09-1.56,4.64-2.3,7.78-3.71a1.21,1.21,0,0,0,.82-.87l.42-.18c.33.76,1,2,1.52,3Z" transform="translate(-480.06 -8.56)" style="fill:#fff"/><path d="M961,425.48c.1.69.31,2.39.34,3-3.62,1.32-5.42,2-9,3.56l-.21-.48c1.6-.82,1.7-1,1.13-2.41l-2.73-6.57c-.64-1.53-.82-1.52-2.38-1l-.21-.5c3.52-1.51,5.3-2.21,8.88-3.52.19.43.68,1.53,1.11,2.46l-.57.29a4.58,4.58,0,0,0-1.19-1.24c-.4-.27-1-.18-2.36.34l-1.45.57c-.64.26-.66.32-.45.82.6,1.51.91,2.27,1.52,3.78l1.74-.69c1.71-.67,1.78-.85,1.59-2.09l.58-.22c.5,1.34.75,2,1.24,3.34l-.56.21c-.74-1.14-.92-1.19-2.58-.54l-1.73.69c.5,1.24.75,1.86,1.24,3.1.32.79.58,1.14,1,1.2a5.18,5.18,0,0,0,2-.54c1.35-.52,1.88-.85,2.12-1.44a6.08,6.08,0,0,0,.35-2Z" transform="translate(-480.06 -8.56)" style="fill:#fff"/><path d="M973.53,424.55l-.14-.5c1.49-.57,1.54-.7,1-2.54-.78-2.8-1.17-4.21-2-7l-.08,0c-.92,4.34-1.32,6.51-2,10.85l-.38.11c-2.8-3.17-4.25-4.73-7.23-7.8l-.06,0,1.33,4.93a27.63,27.63,0,0,0,.91,2.85c.31.79.78.76,2.06.48l.17.52c-1.75.57-2.63.86-4.36,1.47l-.19-.51c1-.47,1.33-.86,1.24-1.57s-.25-1.41-.72-3.31c-.36-1.42-.53-2.13-.89-3.55-.58-2.29-.73-2.35-2.55-1.89-.07-.21-.11-.31-.18-.51,1.35-.48,2-.7,3.39-1.15,2.91,2.8,4.32,4.23,7.07,7.14.73-4,1.15-5.92,2.07-9.86,1.41-.38,2.12-.57,3.54-.92l.13.53c-1.73.57-1.84.67-1.32,2.4.73,2.51,1.1,3.77,1.83,6.29.54,1.83.62,1.93,2.3,1.67l.13.5C976.58,423.72,975.57,424,973.53,424.55Z" transform="translate(-480.06 -8.56)" style="fill:#fff"/><path d="M982.51,410.24a6.29,6.29,0,0,1,3.59.06,2.92,2.92,0,0,1,1.78,2.3c.42,2.33-1.3,3.8-3.17,4.39a5.53,5.53,0,0,1-.91.21l-1.53,0c.23,1.09.35,1.63.58,2.71.33,1.51.52,1.57,2.28,1.33l.11.51c-2.13.44-3.19.67-5.31,1.18l-.12-.51c1.48-.48,1.62-.66,1.28-2.13-.64-2.79-1-4.19-1.59-7-.36-1.58-.56-1.62-2.07-1.35l-.13-.53C979.38,410.9,980.42,410.67,982.51,410.24Zm-.38,6.32a4.85,4.85,0,0,0,1.45-.08,2.68,2.68,0,0,0,2.23-3.43c-.38-1.94-1.92-2.48-3.51-2.15a2.1,2.1,0,0,0-1.07.46c-.11.15-.15.36,0,.86C981.57,414,981.76,414.82,982.13,416.56Z" transform="translate(-480.06 -8.56)" style="fill:#fff"/><path d="M1000.27,416.37c0,.7-.24,2.4-.34,3-3.77.44-5.65.71-9.4,1.35l-.09-.51c1.71-.42,1.85-.61,1.61-2.08-.45-2.81-.68-4.21-1.13-7-.26-1.64-.45-1.67-2-1.52l-.09-.54c3.71-.63,5.56-.9,9.29-1.34.08.47.31,1.65.51,2.65l-.62.15a4.36,4.36,0,0,0-.86-1.48c-.32-.36-.92-.42-2.33-.22l-1.51.21c-.67.1-.71.16-.63.7.25,1.61.37,2.41.61,4l1.82-.26c1.78-.25,1.9-.41,2-1.66l.6-.07c.18,1.41.26,2.12.44,3.53l-.59.07c-.45-1.28-.61-1.37-2.35-1.12l-1.81.26.5,3.3c.12.84.29,1.25.68,1.4a5,5,0,0,0,2-.07c1.4-.19,2-.38,2.35-.9a6.11,6.11,0,0,0,.78-1.85Z" transform="translate(-480.06 -8.56)" style="fill:#fff"/><path d="M1013.21,418.52c-.23,0-.45,0-.68,0a3.93,3.93,0,0,1-3.35-1.49c-.71-.84-1.43-1.9-2.09-2.73-.39-.49-.75-.69-1.77-.61l-.56.05c.1,1.13.14,1.69.24,2.82.13,1.52.32,1.63,1.88,1.64l0,.52c-2.09.15-3.13.25-5.21.47l-.06-.52c1.55-.29,1.72-.44,1.57-2-.27-2.86-.4-4.29-.67-7.16-.15-1.54-.34-1.63-1.94-1.56l-.05-.55c2.1-.22,3.16-.31,5.26-.47a6.29,6.29,0,0,1,3.39.41,2.65,2.65,0,0,1,1.48,2.31c.07,1.57-1,2.57-2.37,3.21.38.58,1.26,1.73,1.9,2.51a16.19,16.19,0,0,0,1.67,1.83,2.68,2.68,0,0,0,1.39.78C1013.26,418.21,1013.24,418.32,1013.21,418.52Zm-7.61-5.47a3.62,3.62,0,0,0,2.14-.68,2.52,2.52,0,0,0,.93-2.3c-.12-1.94-1.58-2.57-3.1-2.46a2,2,0,0,0-1.08.27c-.13.1-.2.32-.16.79.15,1.78.23,2.67.38,4.45Z" transform="translate(-480.06 -8.56)" style="fill:#fff"/><path d="M1021.58,418.26v-.53c1.21-.14,1.38-.31,1.13-1s-.59-1.64-1-2.69c-1.7,0-2.55,0-4.25,0-.32.84-.56,1.56-.81,2.27-.37,1.1-.23,1.31,1.23,1.45,0,.21,0,.31,0,.52-1.7,0-2.56,0-4.26.09l0-.52c1.25-.23,1.52-.35,2.17-2,1.56-3.82,2.39-5.72,4.13-9.51l.72-.15c1.31,3.22,2.54,6.46,3.75,9.69.58,1.61.84,1.82,2.09,2l0,.52C1024.5,418.3,1023.52,418.28,1021.58,418.26Zm-1.89-9.59h0c-.66,1.5-1.28,3.05-1.86,4.52h3.63C1020.75,411.38,1020.4,410.47,1019.69,408.67Z" transform="translate(-480.06 -8.56)" style="fill:#fff"/><path d="M1037.48,410.27a4.14,4.14,0,0,0-.53-1.76c-.3-.44-.64-.63-2.2-.76l-1.4-.11c-.27,3.53-.4,5.29-.67,8.82-.11,1.44,0,1.65,1.86,1.92l0,.52c-2.28-.2-3.42-.28-5.7-.41,0-.2,0-.31,0-.52,1.78,0,2-.19,2.05-1.64.23-3.53.35-5.29.58-8.82l-1.19-.08c-1.78-.1-2.21.09-2.51.43a5.86,5.86,0,0,0-.77,1.67l-.61,0c.14-1.17.29-2.37.37-3.37l.44,0c.28.47.55.48,1.15.51,3.34.16,5,.28,8.33.59a1.18,1.18,0,0,0,1.12-.35l.44,0c-.09.83-.12,2.24-.14,3.33Z" transform="translate(-480.06 -8.56)" style="fill:#fff"/><path d="M1053.69,410.22c-1.19-.16-1.76,0-2,.74a25,25,0,0,0-.63,2.81l-.25,1.4c-.38,2.11-1,3.6-2.33,4.5a5.17,5.17,0,0,1-3.72.7,5.52,5.52,0,0,1-3-1.31c-1.06-1-1.48-2.43-1.22-4.59l.52-4.3c.2-1.66,0-1.78-1.57-2.08,0-.22,0-.32.06-.54,2.2.24,3.3.38,5.49.69l-.08.54c-1.6-.14-1.79,0-2,1.63l-.52,3.92c-.39,3,.7,4.75,3,5.1,2.72.42,4-1.48,4.53-4.45.1-.54.15-.82.24-1.36a16,16,0,0,0,.34-2.92c0-.69-.4-1-1.79-1.34,0-.22.06-.32.09-.54,2,.32,2.95.49,4.91.87Z" transform="translate(-480.06 -8.56)" style="fill:#fff"/><path d="M1063.86,424.26c-.23-.06-.44-.14-.65-.21a3.94,3.94,0,0,1-2.77-2.42c-.44-1-.81-2.24-1.19-3.22-.23-.59-.52-.89-1.52-1.11l-.55-.12-.6,2.76c-.33,1.49-.18,1.66,1.31,2.13l-.12.51c-2-.47-3.06-.69-5.12-1.1l.1-.51c1.57.18,1.77.1,2.08-1.4l1.47-7c.32-1.52.16-1.66-1.38-2.07l.1-.53c2.08.41,3.11.63,5.18,1.1a6.27,6.27,0,0,1,3.11,1.39,2.61,2.61,0,0,1,.74,2.64c-.39,1.53-1.7,2.17-3.22,2.37.2.67.7,2,1.08,3a16.92,16.92,0,0,0,1.06,2.24,2.68,2.68,0,0,0,1.11,1.15Zm-5.68-7.48a3.59,3.59,0,0,0,2.25,0,2.49,2.49,0,0,0,1.57-1.91c.46-1.9-.75-2.93-2.24-3.27a2.1,2.1,0,0,0-1.11-.07c-.15.06-.28.25-.38.72-.39,1.74-.58,2.61-1,4.36Z" transform="translate(-480.06 -8.56)" style="fill:#fff"/><path d="M1075.08,424.42c-.34.61-1.23,2.07-1.58,2.57-3.62-1.2-5.44-1.76-9.11-2.75l.13-.51c1.73.34,1.94.23,2.35-1.2.77-2.73,1.16-4.1,1.94-6.84.45-1.6.3-1.7-1.22-2.24l.15-.53c3.62,1,5.42,1.54,9,2.72-.12.45-.42,1.62-.66,2.61l-.62-.12a4.65,4.65,0,0,0-.15-1.71c-.15-.46-.67-.76-2-1.19l-1.47-.44c-.65-.2-.7-.16-.86.36l-1.15,3.9,1.76.54c1.73.53,1.9.43,2.52-.66l.58.19-1.1,3.39-.57-.19c.14-1.35,0-1.49-1.65-2l-1.76-.53c-.37,1.28-.56,1.92-.94,3.2-.24.82-.26,1.25,0,1.56a4.91,4.91,0,0,0,1.84.78c1.36.43,2,.5,2.52.18a6,6,0,0,0,1.5-1.34Z" transform="translate(-480.06 -8.56)" style="fill:#fff"/><path d="M1090.79,434c-.22-.1-.42-.22-.62-.33a4,4,0,0,1-2.35-2.86c-.27-1.07-.44-2.34-.66-3.38-.13-.62-.37-1-1.33-1.35l-.52-.21c-.43,1-.64,1.57-1.06,2.62-.57,1.41-.45,1.6,1,2.32l-.2.48c-2-.81-2.94-1.2-4.91-2l.18-.49c1.52.45,1.74.39,2.3-1l2.62-6.7c.56-1.44.44-1.6-1-2.27l.2-.51c2,.76,3,1.15,5,2a6.49,6.49,0,0,1,2.88,1.91,2.61,2.61,0,0,1,.29,2.73c-.64,1.44-2,1.84-3.59,1.79.09.69.36,2.12.58,3.11a16.77,16.77,0,0,0,.69,2.39,2.75,2.75,0,0,0,.91,1.33Zm-4.42-8.36a3.68,3.68,0,0,0,2.24.37,2.52,2.52,0,0,0,1.88-1.63c.77-1.78-.26-3-1.69-3.6a2.19,2.19,0,0,0-1.1-.26c-.16,0-.32.2-.49.64-.67,1.66-1,2.49-1.67,4.14Z" transform="translate(-480.06 -8.56)" style="fill:#fff"/><path d="M1091.47,434.14l.22-.48c1.51.58,1.71.56,2.38-.85,1.23-2.59,1.85-3.88,3.08-6.46.68-1.42.57-1.61-.94-2.42.1-.2.14-.29.23-.49,2.08,1,3.11,1.46,5.16,2.49l-.25.49c-1.56-.67-1.77-.65-2.46.77-1.26,2.57-1.89,3.85-3.16,6.42-.68,1.41-.58,1.58.8,2.39l-.23.47C1094.38,435.5,1093.41,435,1091.47,434.14Z" transform="translate(-480.06 -8.56)" style="fill:#fff"/><path d="M1108.09,432.63c.26-1.2.34-2.67-1.21-3.52a2,2,0,0,0-3,.64c-.6,1.13,0,2.12,1.07,3.57s2.3,3.15,1.3,4.88-3.27,2.14-5.64.86a7,7,0,0,1-1.6-1.19,10,10,0,0,1-.69-.79,26.68,26.68,0,0,1,.85-2.82l.61.13c-.24,1.18-.26,3.3,1.52,4.27a2.07,2.07,0,0,0,3.05-.75c.64-1.15,0-2.25-1-3.62s-2.25-2.94-1.34-4.72c.84-1.61,3-2.19,5.43-.86a9.48,9.48,0,0,1,2.18,1.72c-.25.6-.53,1.3-1,2.42Z" transform="translate(-480.06 -8.56)" style="fill:#fff"/><path d="M1116.09,444.62c-.49.49-1.75,1.67-2.21,2.06-3.27-2.17-4.93-3.2-8.29-5.16l.27-.45c1.61.8,1.84.75,2.61-.53l3.65-6.1c.86-1.42.73-1.57-.62-2.5l.27-.47c3.32,1.94,5,3,8.19,5.09-.24.41-.83,1.46-1.32,2.35l-.58-.29a4.25,4.25,0,0,0,.28-1.7c0-.48-.46-.93-1.7-1.71l-1.33-.83c-.59-.36-.65-.34-.94.12l-2.13,3.47c.65.39,1,.59,1.61,1,1.56,1,1.75.94,2.64,0l.53.34c-.78,1.2-1.17,1.79-1.94,3l-.52-.34c.48-1.27.41-1.44-1.12-2.4l-1.59-1-1.75,2.85c-.45.73-.57,1.14-.37,1.52a5.33,5.33,0,0,0,1.62,1.26c1.23.78,1.81,1,2.44.87a6,6,0,0,0,1.82-.9Z" transform="translate(-480.06 -8.56)" style="fill:#fff"/></svg>