<svg id="Layer_1" data-name="Layer 1" xmlns="http://www.w3.org/2000/svg" viewBox="0 0 1874 1874"><circle cx="936.62" cy="937.93" r="804.19" style="fill:#ccc;stroke:#000;stroke-miterlimit:2.61453503666417;stroke-width:15px"/><path d="M1879.5,960c0,507.81-411.67,919.5-919.5,919.5S40.5,1467.83,40.5,960,452.17,40.5,960,40.5,1879.5,452.17,1879.5,960Z" transform="translate(-23 -23)" style="fill:none;stroke:#000;stroke-miterlimit:2.61453503666417;stroke-width:35px"/><path d="M957,44.53V78.87h6V44.53Z" transform="translate(-23 -23)"/><path d="M963,1875.42v-34.34h-6v34.34Z" transform="translate(-23 -23)"/><path d="M798.09,59l6,33.82,5.92-1-6-33.82Z" transform="translate(-23 -23)"/><path d="M1121.91,1861.05l-6-33.82-5.92,1,6,33.82Z" transform="translate(-23 -23)"/><path d="M644.05,100.76,655.8,133l5.65-2.06L649.7,98.7Z" transform="translate(-23 -23)"/><path d="M1276,1819.24,1264.2,1787l-5.65,2.06,11.75,32.27Z" transform="translate(-23 -23)"/><path d="M499.68,168.71l17.17,29.74,5.2-3-17.17-29.74Z" transform="translate(-23 -23)"/><path d="M1420.32,1751.29l-17.17-29.74-5.2,3,17.17,29.74,5.2-3Z" transform="translate(-23 -23)"/><path d="M369.27,260.66,391.34,287,396,283.1l-22.08-26.31Z" transform="translate(-23 -23)"/><path d="M1550.73,1659.34l-22.07-26.3-4.61,3.86,22.08,26.31,4.6-3.87Z" transform="translate(-23 -23)"/><path d="M256.76,373.85l26.31,22.07,3.86-4.6-26.3-22.08Z" transform="translate(-23 -23)"/><path d="M1663.24,1546.15l-26.31-22.07-3.86,4.6,26.3,22.08Z" transform="translate(-23 -23)"/><path d="M165.69,504.85,195.43,522l3-5.2-29.74-17.17Z" transform="translate(-23 -23)"/><path d="M1754.31,1415.15,1724.57,1398l-3,5.2,29.74,17.17Z" transform="translate(-23 -23)"/><path d="M98.74,649.73,131,661.48l2-5.65L100.8,644.08Z" transform="translate(-23 -23)"/><path d="M1821.26,1270.27,1789,1258.52l-2,5.65,32.27,11.75Z" transform="translate(-23 -23)"/><path d="M58,804l33.82,6,1-5.92-33.82-6L58,804Z" transform="translate(-23 -23)"/><path d="M1862.05,1116l-33.82-6-1,5.92,33.82,6Z" transform="translate(-23 -23)"/><path d="M44.53,963H78.87v-6H44.53Z" transform="translate(-23 -23)"/><path d="M1875.47,957h-34.34v6h34.34Z" transform="translate(-23 -23)"/><path d="M59,1121.91l33.82-6-1-5.92-33.82,6Z" transform="translate(-23 -23)"/><path d="M1861.05,798.09l-33.82,6,1,5.92,33.82-6Z" transform="translate(-23 -23)"/><path d="M100.76,1276,133,1264.2l-2.06-5.65L98.7,1270.3Z" transform="translate(-23 -23)"/><path d="M1819.24,644.05,1787,655.8l2.06,5.65,32.27-11.75-2.06-5.65Z" transform="translate(-23 -23)"/><path d="M168.71,1420.32l29.74-17.17-3-5.2-29.74,17.17Z" transform="translate(-23 -23)"/><path d="M1751.29,499.68l-29.74,17.17,3,5.2,29.74-17.17Z" transform="translate(-23 -23)"/><path d="M260.66,1550.73l26.3-22.07-3.86-4.61-26.31,22.08Z" transform="translate(-23 -23)"/><path d="M1659.34,369.27,1633,391.34l3.86,4.61,26.31-22.08Z" transform="translate(-23 -23)"/><path d="M373.85,1663.24l22.07-26.31-4.6-3.86-22.08,26.3Z" transform="translate(-23 -23)"/><path d="M1546.15,256.76l-22.07,26.31,4.6,3.86,22.08-26.3Z" transform="translate(-23 -23)"/><path d="M504.85,1754.31,522,1724.57l-5.2-3-17.17,29.74Z" transform="translate(-23 -23)"/><path d="M1415.15,165.69,1398,195.43l5.2,3,17.17-29.74Z" transform="translate(-23 -23)"/><path d="M649.73,1821.26,661.48,1789l-5.65-2-11.75,32.27Z" transform="translate(-23 -23)"/><path d="M1270.27,98.74,1258.52,131l5.65,2,11.75-32.27Z" transform="translate(-23 -23)"/><path d="M804,1862.05l6-33.82-5.92-1-6,33.82Z" transform="translate(-23 -23)"/><path d="M945.29,114.27a40.34,40.34,0,0,1,.82-8.63,19.64,19.64,0,0,1,2.09-5.82,11.67,11.67,0,0,1,3-3.47,10.12,10.12,0,0,1,3.35-1.75,13.15,13.15,0,0,1,3.47-.44q12.74,0,12.74,20.44,0,9.62-3.29,14.72a11.38,11.38,0,0,1-19,0q-3.24-5.18-3.24-15m20.55-.11q0-15.72-7.8-15.72t-7.81,15.88q0,16.05,7.7,16.05a6.29,6.29,0,0,0,6-4q1.94-4,1.93-12.25" transform="translate(-23 -23)"/><path d="M993.45,1814.57h8.63V1818q-5.61.72-7.31,2c-1.14.84-2.13,2.77-3,5.77h-3.19v-39h4.84v27.75" transform="translate(-23 -23)"/><path d="M955.63,1807.34q-6.71-3.19-6.71-9.73a11.21,11.21,0,0,1,3.68-8.68,13.28,13.28,0,0,1,9.4-3.35,13.45,13.45,0,0,1,9.45,3.35,11.44,11.44,0,0,1,3.63,8.73q0,6.49-6.65,9.68a13.35,13.35,0,0,1,4.12,3.62,8,8,0,0,1,1.15,4.45,9.62,9.62,0,0,1-3.24,7.48,12.3,12.3,0,0,1-8.46,2.91,12.14,12.14,0,0,1-8.41-2.91,9.57,9.57,0,0,1-3.29-7.48,8,8,0,0,1,1.15-4.5,12.58,12.58,0,0,1,4.18-3.57m1.48,12.47a6.88,6.88,0,0,0,4.89,1.7,7.1,7.1,0,0,0,5-1.7,5.71,5.71,0,0,0,1.81-4.45,5.81,5.81,0,0,0-1.81-4.45,7.22,7.22,0,0,0-5-1.65,7.13,7.13,0,0,0-4.89,1.65,5.58,5.58,0,0,0-1.87,4.39,5.72,5.72,0,0,0,1.87,4.51m-1-16.76a9.15,9.15,0,0,0,11.76,0,7.14,7.14,0,0,0,2.25-5.5,7.39,7.39,0,0,0-2.19-5.54,8.13,8.13,0,0,0-5.83-2.15,8.39,8.39,0,0,0-5.93,2.09,7.29,7.29,0,0,0-2.31,5.6,7.14,7.14,0,0,0,2.25,5.5" transform="translate(-23 -23)"/><path d="M944.13,1805.69a40.24,40.24,0,0,1-.82,8.62,19.72,19.72,0,0,1-2.09,5.83,11.62,11.62,0,0,1-3,3.46,10.17,10.17,0,0,1-3.35,1.76,13.5,13.5,0,0,1-3.46.44q-12.75,0-12.75-20.44,0-9.61,3.3-14.73a11.38,11.38,0,0,1,18.95.06q3.24,5.16,3.24,15m-20.55.11q0,15.71,7.81,15.71t7.8-15.88q0-16-7.69-16a6.31,6.31,0,0,0-6,4q-1.93,4-1.93,12.26" transform="translate(-23 -23)"/><path d="M778.05,117.2q-4.12.72-5.28,3.27a11.12,11.12,0,0,0-.58,6.24l-4.76.84q-1.92-12.43,9.83-14.51,5.46-1,9,1.31a10,10,0,0,1,4.51,7.18,8,8,0,0,1-4,8.9,9.79,9.79,0,0,1,5.57,2.48,9.89,9.89,0,0,1,2.54,5.52,11.37,11.37,0,0,1-2,9.34q-2.94,3.87-8.84,4.91-11.79,2.08-14.85-10.16l4.76-.84c.67,2.75,1.78,4.67,3.31,5.78s3.6,1.43,6.2,1a8.28,8.28,0,0,0,5.49-3,7.74,7.74,0,0,0,1.11-6.06q-1.23-7-9.19-5.58l-2,.41-.6.11-.71-4.06q5.11-1,7-2.58c1.3-1,1.75-2.74,1.33-5.09a6.3,6.3,0,0,0-2.67-4.44,6.77,6.77,0,0,0-5.24-.91" transform="translate(-23 -23)"/><path d="M818.58,105.77l.83,4.71-16,2.82.38,11a12.67,12.67,0,0,1,16.23-1.58,12.71,12.71,0,0,1,5.09,8.59,14,14,0,0,1-1.93,10.55,12.77,12.77,0,0,1-8.8,5.51,16.89,16.89,0,0,1-4.2.24,15.17,15.17,0,0,1-3.28-.6,10,10,0,0,1-2.53-1.39,19,19,0,0,1-1.86-1.68,16.87,16.87,0,0,1-1.35-1.94,18.43,18.43,0,0,1-.85-1.69c-.13-.31-.31-.76-.52-1.36l4.76-.84q2.8,6.15,9,5.06a8.08,8.08,0,0,0,5.7-3.46,9.16,9.16,0,0,0,1.12-6.9,9.6,9.6,0,0,0-3.45-6.31,8,8,0,0,0-6.56-1.41,8.31,8.31,0,0,0-3.64,1.48,10.38,10.38,0,0,0-2.76,3.34l-4.38.77-.82-21.4,19.81-3.49" transform="translate(-23 -23)"/><path d="M828.79,124.38a40,40,0,0,1-.69-8.63,19.86,19.86,0,0,1,1-6.1,11.79,11.79,0,0,1,2.38-3.94,10.19,10.19,0,0,1,3-2.31,13.53,13.53,0,0,1,3.34-1q12.55-2.22,16.1,17.91,1.66,9.47-.69,15.08a11.37,11.37,0,0,1-18.68,3.23q-4.08-4.51-5.79-14.21M849,120.71q-2.71-15.48-10.41-14.12t-4.93,17Q836.45,139.38,844,138a6.3,6.3,0,0,0,5.21-4.93q1.2-4.23-.24-12.4" transform="translate(-23 -23)"/><path d="M1141.32,1795.8l8.5-1.5.6,3.41q-5.4,1.68-6.85,3.22c-1,1-1.62,3.09-1.92,6.2l-3.14.55-6.77-38.37,4.76-.84,4.82,27.33" transform="translate(-23 -23)"/><path d="M1099,1814.65l-.7-4a93.94,93.94,0,0,0,7.29-18.75,71.26,71.26,0,0,0,2.23-18.36l5.09-.89a84.87,84.87,0,0,1-2.58,17.64,118,118,0,0,1-7.23,18.79l20.72-3.65.83,4.71-25.65,4.52" transform="translate(-23 -23)"/><path d="M1091.21,1795.62a40,40,0,0,1,.69,8.63,19.86,19.86,0,0,1-1,6.1,11.79,11.79,0,0,1-2.38,3.94,10.19,10.19,0,0,1-3,2.31,13.53,13.53,0,0,1-3.34,1q-12.56,2.22-16.1-17.91-1.66-9.46.69-15.08a11.37,11.37,0,0,1,18.68-3.23q4.08,4.52,5.79,14.21m-20.21,3.67q2.71,15.48,10.41,14.12t4.93-17q-2.79-15.8-10.37-14.46a6.3,6.3,0,0,0-5.21,4.93c-.8,2.82-.73,7,.24,12.4" transform="translate(-23 -23)"/><path d="M634.5,161.56c-2.62.95-4.16,2.33-4.64,4.14a11.22,11.22,0,0,0,.52,6.25l-4.54,1.65q-4.05-11.92,7.16-16,5.22-1.89,9.13-.28a10,10,0,0,1,5.69,6.29,8,8,0,0,1-2.35,9.45,9.79,9.79,0,0,1,5.91,1.48,9.89,9.89,0,0,1,3.46,5,11.41,11.41,0,0,1-.38,9.56q-2.24,4.32-7.86,6.37-11.25,4.09-16.39-7.43l4.55-1.66q1.69,3.88,4.26,5.12t6.27-.12a8.28,8.28,0,0,0,4.88-3.94,7.66,7.66,0,0,0,0-6.15q-2.43-6.66-10-3.9l-1.9.75-.56.2-1.41-3.87c3.24-1.26,5.4-2.51,6.46-3.76s1.25-3,.44-5.24a6.36,6.36,0,0,0-3.41-3.91,6.76,6.76,0,0,0-5.32,0" transform="translate(-23 -23)"/><path d="M674.9,173.9l-15.44,5.62-1.75-4.8L666,145.64l3.35-1.23L678,168.17l5.42-2,1.49,4.08-5.43,2,3.2,8.78-4.54,1.66-3.2-8.78m-1.48-4.08-5.83-16L662,174l11.47-4.17" transform="translate(-23 -23)"/><path d="M685.58,159.87a40.27,40.27,0,0,1-2.17-8.38,19.36,19.36,0,0,1,0-6.19A11.64,11.64,0,0,1,685,141a10.33,10.33,0,0,1,2.55-2.8,13.33,13.33,0,0,1,3.1-1.59q12-4.37,19,14.84,3.3,9,1.94,15a11.38,11.38,0,0,1-17.83,6.43q-4.82-3.74-8.18-13m19.28-7.13q-5.39-14.76-12.71-12.1t-1.9,17.59q5.49,15.09,12.72,12.45a6.31,6.31,0,0,0,4.27-5.77q.45-4.36-2.38-12.17" transform="translate(-23 -23)"/><path d="M1283.72,1751.59l8.11-2.95,1.18,3.25c-3.34,1.73-5.41,3.18-6.19,4.36s-1,3.33-.81,6.44l-3,1.09-13.32-36.61,4.54-1.65,9.49,26.07" transform="translate(-23 -23)"/><path d="M1262.71,1748.62a38.73,38.73,0,0,1,2.22,8.84,21.49,21.49,0,0,1,0,6.62,12.78,12.78,0,0,1-1.91,4.55,11.22,11.22,0,0,1-2.82,3,15.56,15.56,0,0,1-3.31,1.67,10.41,10.41,0,0,1-7.84,0,12.15,12.15,0,0,1-6-5.76l4.55-1.66a7.85,7.85,0,0,0,3.65,3.29,6,6,0,0,0,4.5,0,7.08,7.08,0,0,0,4.73-5.81q.76-4.32-1.62-11a10.45,10.45,0,0,1-6.94,7.14,11.37,11.37,0,0,1-9.23-.32,12.25,12.25,0,0,1-6.2-7.22,13,13,0,0,1,.18-10.12,12.17,12.17,0,0,1,7.31-6.58q12.28-4.47,18.79,13.4m-11.74,6.61a7.76,7.76,0,0,0,4.68-4.16,8,8,0,0,0,.11-6.3,9.08,9.08,0,0,0-4.26-5.11,7.32,7.32,0,0,0-6.17-.39,7.22,7.22,0,0,0-4.4,4.12,8.69,8.69,0,0,0,0,6.48,8.86,8.86,0,0,0,4,5.09,7,7,0,0,0,6,.27" transform="translate(-23 -23)"/><path d="M1234.34,1760.11a40.26,40.26,0,0,1,2.18,8.39,19.36,19.36,0,0,1,0,6.19,11.54,11.54,0,0,1-1.66,4.28,10.32,10.32,0,0,1-2.54,2.8,13.43,13.43,0,0,1-3.11,1.6q-12,4.37-19-14.85-3.29-9-1.94-15a11.39,11.39,0,0,1,17.84-6.44q4.82,3.75,8.17,13m-19.27,7.13q5.37,14.77,12.71,12.1t1.9-17.59q-5.49-15.07-12.72-12.45a6.3,6.3,0,0,0-4.27,5.77q-.46,4.38,2.38,12.17" transform="translate(-23 -23)"/><path d="M500.77,230.26q-3.61,2.09-3.84,4.88a11.14,11.14,0,0,0,1.59,6.06l-4.19,2.42q-6-11,4.28-17,4.8-2.77,8.94-1.87a10,10,0,0,1,6.69,5.21,8,8,0,0,1-.67,9.72,8.61,8.61,0,0,1,10.35,4.74,11.41,11.41,0,0,1,1.29,9.48q-1.46,4.64-6.64,7.63-10.37,6-17.42-4.46l4.19-2.42c1.56,2.35,3.26,3.78,5.08,4.3s3.87.11,6.15-1.21A8.27,8.27,0,0,0,520.7,253a7.68,7.68,0,0,0-1-6.07q-3.54-6.13-10.54-2.1l-1.73,1.07-.53.3-2.06-3.57c3-1.8,4.88-3.41,5.72-4.82s.7-3.18-.49-5.24a6.28,6.28,0,0,0-4-3.25,6.7,6.7,0,0,0-5.24.93" transform="translate(-23 -23)"/><path d="M527.26,215q-3.62,2.08-3.84,4.89A11.09,11.09,0,0,0,525,225.9l-4.19,2.42q-6-11,4.28-17,4.8-2.78,8.94-1.87a10,10,0,0,1,6.69,5.21,8,8,0,0,1-.67,9.72,9.75,9.75,0,0,1,6.08.42,9.85,9.85,0,0,1,4.27,4.32,11.4,11.4,0,0,1,1.29,9.48q-1.46,4.63-6.64,7.63-10.37,6-17.42-4.47l4.19-2.42c1.56,2.36,3.26,3.79,5.08,4.3s3.87.12,6.15-1.2a8.3,8.3,0,0,0,4.13-4.73,7.68,7.68,0,0,0-1-6.07q-3.54-6.14-10.54-2.1l-1.73,1.07-.53.3-2.06-3.57c3-1.8,4.88-3.41,5.72-4.83s.7-3.17-.49-5.23a6.33,6.33,0,0,0-4-3.26,6.79,6.79,0,0,0-5.24.93" transform="translate(-23 -23)"/><path d="M550.91,219.66a40.37,40.37,0,0,1-3.6-7.89,19.71,19.71,0,0,1-1.11-6.08,11.62,11.62,0,0,1,.89-4.51,10.3,10.3,0,0,1,2-3.2,13.31,13.31,0,0,1,2.78-2.11q11-6.37,21.26,11.32,4.82,8.34,4.51,14.41A11.38,11.38,0,0,1,561.22,231q-5.4-2.86-10.31-11.37m17.74-10.37q-7.86-13.62-14.62-9.71t1.19,17.65q8,13.89,14.68,10.05a6.31,6.31,0,0,0,3.21-6.42q-.32-4.4-4.46-11.57" transform="translate(-23 -23)"/><path d="M1416.25,1683.33l7.47-4.31,1.73,3q-4.5,3.42-5.34,5.36t.31,6.49l-2.76,1.59-19.47-33.74,4.18-2.42,13.88,24" transform="translate(-23 -23)"/><path d="M1385.06,1714.3l-2.39-4.14,14-8.11-4.1-10.19a12.73,12.73,0,0,1-14.72,7,12.77,12.77,0,0,1-7.72-6.33,13.94,13.94,0,0,1-1.79-10.58,12.72,12.72,0,0,1,6.38-8.19,17,17,0,0,1,3.86-1.66,15.71,15.71,0,0,1,3.29-.56,10.3,10.3,0,0,1,2.86.44,22.31,22.31,0,0,1,2.32.94,17.85,17.85,0,0,1,1.93,1.37q1,.92,1.38,1.29c.23.25.55.62.95,1.1l-4.18,2.42q-4.76-4.82-10.17-1.68a8,8,0,0,0-4.17,5.2,9.1,9.1,0,0,0,1.3,6.86,9.58,9.58,0,0,0,5.4,4.75,8,8,0,0,0,6.64-.92,8.29,8.29,0,0,0,2.92-2.63,10.52,10.52,0,0,0,1.46-4.08l3.85-2.22,8.08,19.82-17.41,10.06" transform="translate(-23 -23)"/><path d="M1369.1,1700.3a40.3,40.3,0,0,1,3.6,7.88,19.66,19.66,0,0,1,1.1,6.09,11.48,11.48,0,0,1-.89,4.51,10.23,10.23,0,0,1-2,3.2,13.47,13.47,0,0,1-2.78,2.11q-11,6.38-21.26-11.33-4.8-8.33-4.51-14.4a11.39,11.39,0,0,1,16.45-9.43q5.39,2.85,10.31,11.37m-17.74,10.37q7.85,13.61,14.61,9.71t-1.18-17.66q-8-13.89-14.69-10a6.34,6.34,0,0,0-3.21,6.42q.31,4.4,4.47,11.58" transform="translate(-23 -23)"/><path d="M381,321.09q-3.19,2.69-2.94,5.48a11.18,11.18,0,0,0,2.63,5.69l-3.71,3.1q-7.87-9.81,1.26-17.48,4.25-3.56,8.48-3.39a10.06,10.06,0,0,1,7.5,4,8,8,0,0,1,1,9.69,8.62,8.62,0,0,1,11,2.87,11.37,11.37,0,0,1,2.91,9.11c-.41,3.21-2.15,6.11-5.2,8.67q-9.18,7.69-17.94-1.37l3.7-3.11c2,2,3.87,3.16,5.75,3.35s3.84-.56,5.86-2.26A8.31,8.31,0,0,0,404.6,340a7.69,7.69,0,0,0-2.07-5.8q-4.56-5.43-10.75-.23l-1.52,1.34-.46.39-2.65-3.15c2.62-2.3,4.22-4.21,4.79-5.75s.14-3.25-1.39-5.07a6.27,6.27,0,0,0-4.53-2.5,6.73,6.73,0,0,0-5,1.82" transform="translate(-23 -23)"/><path d="M401.17,316.32q-8.4-10.6,1.16-18.62a12.77,12.77,0,0,1,8.95-3.35,10.7,10.7,0,0,1,8,4.09q4.66,5.55,1.24,14.3l-2.3,5.81a17.84,17.84,0,0,0-1.51,6.15,8.48,8.48,0,0,0,1.28,4.51L433.64,316l3.07,3.66-19.87,16.67q-3.87-5.13-4.37-9.23t1.91-10.72l2-5.44q2.1-5.7-.9-9.28a6.92,6.92,0,0,0-5-2.59,7.65,7.65,0,0,0-5.55,1.94q-5.6,4.69-.05,12.16l-3.7,3.11" transform="translate(-23 -23)"/><path d="M428.55,302a40.74,40.74,0,0,1-4.91-7.14A19.59,19.59,0,0,1,421.5,289a11.37,11.37,0,0,1,.09-4.59,10.19,10.19,0,0,1,1.43-3.5,13.6,13.6,0,0,1,2.37-2.56q9.76-8.21,22.91,7.46,6.18,7.37,6.94,13.4a11.37,11.37,0,0,1-14.56,12.14q-5.81-1.87-12.13-9.4m15.68-13.3q-10.11-12-16.08-7t4.23,17.18q10.31,12.29,16.2,7.34a6.3,6.3,0,0,0,2.05-6.88q-1.06-4.26-6.4-10.62" transform="translate(-23 -23)"/><path d="M1534.9,1593.19l6.61-5.55,2.22,2.66c-2.55,2.76-4,4.83-4.32,6.21s.15,3.48,1.43,6.33l-2.44,2-25-29.84,3.7-3.11,17.84,21.26" transform="translate(-23 -23)"/><path d="M1496.76,1601.16l12.58-10.56,3.29,3.92,2.2,30.14-2.74,2.3-16.25-19.36-4.41,3.71-2.8-3.33,4.42-3.71-6-7.15,3.7-3.11,6,7.15m2.79,3.33,11,13-1.61-20.89-9.34,7.84" transform="translate(-23 -23)"/><path d="M1491.52,1618a40.32,40.32,0,0,1,4.91,7.13,19.69,19.69,0,0,1,2.14,5.81,11.36,11.36,0,0,1-.09,4.59,10.19,10.19,0,0,1-1.43,3.5,14,14,0,0,1-2.37,2.57q-9.77,8.19-22.91-7.47-6.18-7.37-6.94-13.4a11.37,11.37,0,0,1,14.56-12.14q5.8,1.88,12.13,9.41m-15.68,13.29q10.11,12,16.08,7t-4.23-17.18q-10.31-12.29-16.2-7.34a6.3,6.3,0,0,0-2,6.88q1.07,4.26,6.4,10.62" transform="translate(-23 -23)"/><path d="M278.88,431.33q-2.69,3.19-1.95,5.91a11.22,11.22,0,0,0,3.58,5.14l-3.11,3.71q-9.47-8.31-1.8-17.44,3.57-4.25,7.77-4.81a10.05,10.05,0,0,1,8.07,2.61,8,8,0,0,1,2.69,9.36,9.75,9.75,0,0,1,5.86-1.68,9.91,9.91,0,0,1,5.49,2.6,11.38,11.38,0,0,1,4.44,8.46q.24,4.86-3.62,9.44-7.69,9.18-17.9,1.77l3.11-3.71q3.42,2.51,6.25,2.3t5.37-3.24a8.26,8.26,0,0,0,2.25-5.85,7.65,7.65,0,0,0-3-5.35q-5.43-4.56-10.62,1.63l-1.26,1.59-.39.47-3.16-2.65c2.18-2.71,3.42-4.88,3.72-6.49s-.42-3.23-2.25-4.76a6.33,6.33,0,0,0-4.9-1.67,6.73,6.73,0,0,0-4.6,2.66" transform="translate(-23 -23)"/><path d="M303.52,412.86,298,419.47l-2.66-2.23q3.06-4.74,3.19-6.87t-2.52-6L298,402l29.85,25-3.11,3.71-21.26-17.84" transform="translate(-23 -23)"/><path d="M322.36,404.22a40.18,40.18,0,0,1-6.07-6.17,19.35,19.35,0,0,1-3.12-5.35,11.49,11.49,0,0,1-.71-4.54,10.38,10.38,0,0,1,.8-3.69,14.11,14.11,0,0,1,1.89-2.94q8.19-9.76,23.85,3.38,7.38,6.18,9.17,12a11.38,11.38,0,0,1-12.23,14.48q-6-.84-13.58-7.16m13.13-15.81q-12-10.1-17.05-4.12t7.14,16.18q12.3,10.32,17.24,4.42a6.3,6.3,0,0,0,.82-7.13q-1.8-4-8.15-9.35" transform="translate(-23 -23)"/><path d="M1636.12,1483.66l5.55-6.61,2.65,2.23q-3.06,4.76-3.18,6.87t2.51,6l-2.05,2.44-29.84-25,3.11-3.7,21.25,17.83" transform="translate(-23 -23)"/><path d="M1621.45,1512.05q2.67-3.19,1.94-5.9a11.29,11.29,0,0,0-3.57-5.15l3.1-3.7q9.46,8.29,1.8,17.43-3.57,4.24-7.77,4.81a10,10,0,0,1-8.07-2.6,8,8,0,0,1-2.69-9.36,8.62,8.62,0,0,1-11.35-.92,11.38,11.38,0,0,1-4.44-8.47q-.24-4.85,3.62-9.44,7.7-9.18,17.9-1.76l-3.11,3.7q-3.42-2.51-6.24-2.3t-5.38,3.24a8.29,8.29,0,0,0-2.25,5.85,7.63,7.63,0,0,0,3,5.35q5.43,4.56,10.62-1.63l1.27-1.59.38-.46,3.16,2.65q-3.27,4.07-3.72,6.48t2.25,4.76a6.31,6.31,0,0,0,4.9,1.68,6.77,6.77,0,0,0,4.61-2.67" transform="translate(-23 -23)"/><path d="M1597.62,1515.73a40.31,40.31,0,0,1,6.08,6.18,19.84,19.84,0,0,1,3.12,5.34,11.7,11.7,0,0,1,.71,4.54,10.22,10.22,0,0,1-.81,3.7,13.06,13.06,0,0,1-1.89,2.93q-8.19,9.76-23.85-3.37-7.37-6.18-9.16-12a11.38,11.38,0,0,1,12.22-14.49q6,.84,13.58,7.16m-13.13,15.81q12,10.11,17.06,4.13t-7.15-16.19q-12.3-10.31-17.24-4.42a6.32,6.32,0,0,0-.82,7.13q1.8,4,8.15,9.35" transform="translate(-23 -23)"/><path d="M197.42,557.64q-2.08,3.61-.88,6.15a11.19,11.19,0,0,0,4.41,4.45l-2.42,4.18q-10.75-6.52-4.8-16.85,2.78-4.82,6.82-6.09a10,10,0,0,1,8.4,1.17,8,8,0,0,1,4.27,8.75,8.61,8.61,0,0,1,11.34-1.07,11.37,11.37,0,0,1,5.85,7.56q1.07,4.74-1.93,9.93-6,10.38-17.32,4.84l2.42-4.18q3.79,1.88,6.55,1.18c1.83-.47,3.41-1.84,4.72-4.12a8.26,8.26,0,0,0,1.21-6.16,7.7,7.7,0,0,0-3.92-4.74Q216,559.1,212,566.09l-1,1.79-.3.52-3.57-2.06c1.68-3.05,2.52-5.39,2.54-7s-1-3.11-3-4.3a6.35,6.35,0,0,0-5.12-.8,6.77,6.77,0,0,0-4.08,3.43" transform="translate(-23 -23)"/><path d="M220.25,549.88a40.83,40.83,0,0,1-7.06-5,19.88,19.88,0,0,1-4-4.72,11.6,11.6,0,0,1-1.48-4.35,10.09,10.09,0,0,1,.15-3.78,13,13,0,0,1,1.35-3.22q6.38-11,24.07-.82,8.34,4.81,11.11,10.22a11.38,11.38,0,0,1-9.53,16.39q-6.09.23-14.61-4.69M230.43,532q-13.6-7.85-17.51-1.1t9.85,14.7q13.9,8,17.74,1.36a6.29,6.29,0,0,0-.43-7.16q-2.46-3.65-9.65-7.8" transform="translate(-23 -23)"/><path d="M235.55,523.39a40.07,40.07,0,0,1-7.06-5,19.23,19.23,0,0,1-4-4.72,11.45,11.45,0,0,1-1.49-4.35,10.09,10.09,0,0,1,.15-3.78,13.78,13.78,0,0,1,1.35-3.22q6.38-11,24.08-.82,8.32,4.81,11.1,10.22a11.37,11.37,0,0,1-9.52,16.39q-6.1.23-14.61-4.69m10.18-17.86q-13.62-7.84-17.52-1.1t9.86,14.7q13.89,8,17.74,1.36a6.31,6.31,0,0,0-.43-7.16q-2.48-3.65-9.65-7.8" transform="translate(-23 -23)"/><path d="M1716.83,1358.35l4.31-7.48,3,1.74c-1.46,3.47-2.1,5.91-1.94,7.31s1.33,3.23,3.51,5.46l-1.59,2.76-33.74-19.48,2.42-4.19,24,13.88" transform="translate(-23 -23)"/><path d="M1705.3,1373.74q11.51,7.1,5.28,17.89a12.75,12.75,0,0,1-7.27,6.21,10.7,10.7,0,0,1-8.87-1.12q-6.29-3.63-6.06-13l.18-6.24a17.93,17.93,0,0,0-.68-6.29,8.48,8.48,0,0,0-2.75-3.81l-10.25,17.75-4.14-2.39,13-22.46q5.4,3.49,7.27,7.18t1.87,10.72l-.06,5.81q0,6.08,4,8.41a6.89,6.89,0,0,0,5.62.71,7.63,7.63,0,0,0,4.55-3.72q3.66-6.33-4.11-11.44l2.42-4.19" transform="translate(-23 -23)"/><path d="M1684.48,1396.61a40.83,40.83,0,0,1,7.06,5,19.69,19.69,0,0,1,4,4.72,11.6,11.6,0,0,1,1.48,4.35,10.09,10.09,0,0,1-.15,3.78,13.78,13.78,0,0,1-1.35,3.22q-6.37,11-24.08.82-8.32-4.82-11.1-10.22a11.38,11.38,0,0,1,9.53-16.39q6.09-.23,14.61,4.69m-10.18,17.86q13.6,7.85,17.51,1.1t-9.85-14.7q-13.9-8-17.74-1.36a6.28,6.28,0,0,0,.43,7.16q2.46,3.64,9.65,7.8" transform="translate(-23 -23)"/><path d="M143.75,710.65q-12.57-5-8.3-16.71a12.75,12.75,0,0,1,6.08-7.37,10.65,10.65,0,0,1,8.92-.44q6.83,2.49,8.23,11.77l.91,6.18a17.78,17.78,0,0,0,1.77,6.08,8.49,8.49,0,0,0,3.37,3.27l7-19.26,4.49,1.64-8.87,24.37q-5.93-2.5-8.41-5.81t-3.7-10.24l-1-5.72q-1-6-5.42-7.59a6.89,6.89,0,0,0-5.66.28,7.64,7.64,0,0,0-3.84,4.45q-2.51,6.86,6,10.56l-1.66,4.54" transform="translate(-23 -23)"/><path d="M168,660.08a40.15,40.15,0,0,1,8.25,4,20.3,20.3,0,0,1,5,4.32,12.59,12.59,0,0,1,2.32,4.41,11,11,0,0,1,.44,4.08,14.88,14.88,0,0,1-.85,3.61,10.62,10.62,0,0,1-5.06,6,12.28,12.28,0,0,1-8.26.85l1.65-4.54a7.88,7.88,0,0,0,4.87-.69,6.06,6.06,0,0,0,2.89-3.45,7,7,0,0,0-1.38-7.28q-2.85-3.44-9.54-5.93a11.16,11.16,0,0,1,1,9.85,11.48,11.48,0,0,1-6.2,6.92,12.26,12.26,0,0,1-9.51.11,13,13,0,0,1-7.61-6.57,12.24,12.24,0,0,1-.37-9.9q4.48-12.34,22.36-5.84m-18.4,7.33a7.19,7.19,0,0,0,.37,6.05,8.69,8.69,0,0,0,5,4.15,9,9,0,0,0,6.53.21,7.14,7.14,0,0,0,4-4.44,7.72,7.72,0,0,0-.2-6.21,7.93,7.93,0,0,0-4.74-4.18,8.89,8.89,0,0,0-6.65,0,7.25,7.25,0,0,0-4.31,4.45" transform="translate(-23 -23)"/><path d="M170.7,655.89a40.3,40.3,0,0,1-7.83-3.72,19.58,19.58,0,0,1-4.75-4,11.47,11.47,0,0,1-2.22-4,10.09,10.09,0,0,1-.51-3.75,13.45,13.45,0,0,1,.77-3.4q4.36-12,23.57-5,9,3.29,12.71,8.13A11.38,11.38,0,0,1,185.9,658q-6,1.28-15.2-2.09m6.92-19.35q-14.76-5.37-17.43,2t12.25,12.76q15.08,5.49,17.71-1.74a6.3,6.3,0,0,0-1.67-7q-3.06-3.15-10.86-6" transform="translate(-23 -23)"/><path d="M1774.48,1220.84l3-8.1,3.26,1.18c-.83,3.68-1,6.19-.64,7.55s1.87,2.94,4.4,4.76l-1.09,3-36.61-13.32,1.66-4.55,26.07,9.49" transform="translate(-23 -23)"/><path d="M1764,1249.59l3-8.11,3.26,1.18c-.83,3.68-1,6.19-.65,7.55s1.88,2.94,4.41,4.76l-1.09,3-36.61-13.32,1.66-4.54,26.07,9.49" transform="translate(-23 -23)"/><path d="M1749.27,1264.15a39.92,39.92,0,0,1,7.82,3.72,19.47,19.47,0,0,1,4.76,4,11.47,11.47,0,0,1,2.22,4,10.09,10.09,0,0,1,.51,3.75,13.45,13.45,0,0,1-.77,3.4q-4.36,12-23.57,5-9-3.29-12.71-8.13a11.38,11.38,0,0,1,6.53-17.8q6-1.27,15.21,2.09m-6.93,19.35q14.78,5.37,17.44-2t-12.25-12.77q-15.08-5.48-17.71,1.75a6.3,6.3,0,0,0,1.67,7q3.06,3.15,10.85,6" transform="translate(-23 -23)"/><path d="M112.85,856.22q-13.25-2.72-11.07-15a12.8,12.8,0,0,1,4.7-8.32,10.69,10.69,0,0,1,8.72-2q7.14,1.26,10.15,10.15l2,5.93a17.66,17.66,0,0,0,2.8,5.68,8.48,8.48,0,0,0,3.88,2.64l3.56-20.18,4.71.83-4.5,25.54c-4.19-1-7.28-2.38-9.3-4.26s-3.85-5-5.42-9.44l-1.93-5.47c-1.38-3.82-3.6-6-6.66-6.54a6.94,6.94,0,0,0-5.53,1.26,7.73,7.73,0,0,0-3,5.05q-1.26,7.2,7.78,9.35l-.84,4.76" transform="translate(-23 -23)"/><path d="M126.29,808.52c2.87-4,6.45-5.67,10.74-4.92a11.19,11.19,0,0,1,7.91,5.14,13.27,13.27,0,0,1,1.67,9.83,13.5,13.5,0,0,1-4.94,8.73,11.48,11.48,0,0,1-9.24,2.05q-6.37-1.12-8.36-8.23a13.24,13.24,0,0,1-4.29,3.43,7.91,7.91,0,0,1-4.58.37,9.62,9.62,0,0,1-6.8-4.49,12.3,12.3,0,0,1-1.4-8.84,12.14,12.14,0,0,1,4.33-7.78,9.57,9.57,0,0,1,7.93-1.95,8.11,8.11,0,0,1,4.24,1.92,12.78,12.78,0,0,1,2.79,4.74m-12.54-.71a6.86,6.86,0,0,0-2.53,4.52,7.06,7.06,0,0,0,.82,5.17,5.74,5.74,0,0,0,4.07,2.56,5.84,5.84,0,0,0,4.7-1,7.23,7.23,0,0,0,2.48-4.58,7.09,7.09,0,0,0-.78-5.1,5.56,5.56,0,0,0-4-2.61,5.72,5.72,0,0,0-4.76,1.06m16.67,1.94a9.14,9.14,0,0,0-2,11.58,7.14,7.14,0,0,0,5,3.17,7.41,7.41,0,0,0,5.85-1.2,8.08,8.08,0,0,0,3.12-5.36,8.32,8.32,0,0,0-1-6.21,7.27,7.27,0,0,0-5.11-3.25,7.17,7.17,0,0,0-5.81,1.27" transform="translate(-23 -23)"/><path d="M129.91,797.48a39.42,39.42,0,0,1-8.35-2.31,19.65,19.65,0,0,1-5.38-3.06,11.61,11.61,0,0,1-2.88-3.58,10.22,10.22,0,0,1-1.15-3.61,13.25,13.25,0,0,1,.17-3.48q2.21-12.56,22.34-9,9.47,1.68,13.93,5.81a11.38,11.38,0,0,1-3.35,18.66q-5.64,2.29-15.33.58m3.46-20.25q-15.48-2.73-16.83,4.95t14.28,10.44q15.8,2.79,17.14-4.79a6.29,6.29,0,0,0-2.86-6.58q-3.56-2.58-11.73-4" transform="translate(-23 -23)"/><path d="M1807.39,1075.45l1.49-8.5,3.41.6c-.18,3.76,0,6.28.68,7.54s2.36,2.57,5.17,3.93l-.56,3.13-38.36-6.76.84-4.76,27.33,4.82" transform="translate(-23 -23)"/><path d="M1795.39,1092.35a39.59,39.59,0,0,1,8.35,2.31,19.42,19.42,0,0,1,5.37,3.06,11.79,11.79,0,0,1,2.89,3.58,10.43,10.43,0,0,1,1.15,3.61,13.69,13.69,0,0,1-.17,3.48q-2.22,12.55-22.35,9-9.47-1.67-13.93-5.81a11.38,11.38,0,0,1,3.35-18.65q5.65-2.31,15.34-.59m-3.47,20.25q15.48,2.73,16.84-4.95t-14.29-10.44q-15.79-2.79-17.13,4.79a6.28,6.28,0,0,0,2.85,6.58q3.57,2.58,11.73,4" transform="translate(-23 -23)"/><path d="M1790.07,1122.47a40.94,40.94,0,0,1,8.36,2.31,19.57,19.57,0,0,1,5.37,3.07,11.69,11.69,0,0,1,2.88,3.57,10,10,0,0,1,1.15,3.61,13.31,13.31,0,0,1-.16,3.49q-2.22,12.56-22.35,9-9.46-1.66-13.93-5.8a11.37,11.37,0,0,1,3.35-18.66q5.64-2.3,15.33-.59m-3.46,20.26q15.48,2.73,16.83-5t-14.28-10.44q-15.79-2.79-17.14,4.79a6.33,6.33,0,0,0,2.86,6.59c2.37,1.72,6.29,3.06,11.73,4" transform="translate(-23 -23)"/><path d="M107.71,1004.92q-13.53-.39-13.52-12.86a12.76,12.76,0,0,1,3.19-9,10.67,10.67,0,0,1,8.24-3.46q7.25,0,11.76,8.24l3,5.5a18.05,18.05,0,0,0,3.74,5.11,8.59,8.59,0,0,0,4.29,1.92v-20.5h4.78v25.94q-6.43-.33-9.89-2.58t-7-8.36l-2.86-5.05q-3-5.28-7.69-5.28a6.92,6.92,0,0,0-5.22,2.2,7.69,7.69,0,0,0-2.09,5.5q0,7.31,9.29,7.85v4.84" transform="translate(-23 -23)"/><path d="M94.2,948.51h4.06A95.06,95.06,0,0,0,115.46,959a72.09,72.09,0,0,0,17.7,5.38v5.17a85,85,0,0,1-16.93-5.61A118.34,118.34,0,0,1,99,953.51v21H94.2v-26" transform="translate(-23 -23)"/><path d="M114.3,944.11a40.34,40.34,0,0,1-8.63-.82,19.64,19.64,0,0,1-5.82-2.09,11.62,11.62,0,0,1-3.46-3,10.26,10.26,0,0,1-1.76-3.35,13.15,13.15,0,0,1-.44-3.47q0-12.75,20.44-12.74,9.62,0,14.72,3.29a11.38,11.38,0,0,1,0,19q-5.16,3.24-15,3.24m-.11-20.55q-15.72,0-15.72,7.8t15.88,7.81q16.05,0,16.05-7.7a6.31,6.31,0,0,0-4-6q-4-1.92-12.25-1.92" transform="translate(-23 -23)"/><path d="M1806.81,955.6a40.12,40.12,0,0,1-9.12-.93,20.69,20.69,0,0,1-6.16-2.36,12.65,12.65,0,0,1-3.68-3.35,11.12,11.12,0,0,1-1.81-3.69,15.26,15.26,0,0,1-.44-3.68,10.67,10.67,0,0,1,2.69-7.42,12.26,12.26,0,0,1,7.47-3.62v4.83a8,8,0,0,0-4.34,2.31,6.11,6.11,0,0,0-1.53,4.23,7,7,0,0,0,3.79,6.38q3.84,2.25,11,2.3a11.14,11.14,0,0,1-4.34-8.9,11.46,11.46,0,0,1,3.46-8.62,12.23,12.23,0,0,1,8.9-3.36,12.88,12.88,0,0,1,9.39,3.58,12.19,12.19,0,0,1,3.74,9.17q0,13.14-19,13.13m14.78-13.18a7.17,7.17,0,0,0-2.42-5.55,8.69,8.69,0,0,0-6.1-2.2,9.09,9.09,0,0,0-6.21,2,7.12,7.12,0,0,0-2.25,5.55,7.7,7.7,0,0,0,2.31,5.77,8,8,0,0,0,5.88,2.31,8.94,8.94,0,0,0,6.26-2.25,7.26,7.26,0,0,0,2.53-5.66" transform="translate(-23 -23)"/><path d="M1805.71,960.46a40.34,40.34,0,0,1,8.63.82,19.64,19.64,0,0,1,5.82,2.09,11.62,11.62,0,0,1,3.46,3,10.17,10.17,0,0,1,1.76,3.35,13.58,13.58,0,0,1,.44,3.47q0,12.74-20.44,12.74-9.62,0-14.73-3.29a11.39,11.39,0,0,1,.06-19q5.16-3.24,15-3.24m.11,20.55q15.72,0,15.71-7.8t-15.87-7.81q-16,0-16.05,7.7a6.31,6.31,0,0,0,4,6q3.95,1.92,12.25,1.92" transform="translate(-23 -23)"/><path d="M128.47,1152q-13.38,2-15.54-10.32a12.78,12.78,0,0,1,1.57-9.42,10.69,10.69,0,0,1,7.52-4.85q7.14-1.25,13,6.08l3.88,4.9a17.73,17.73,0,0,0,4.56,4.38A8.56,8.56,0,0,0,148,1144l-3.56-20.18,4.71-.83,4.5,25.54q-6.39.78-10.19-.83t-8.32-7l-3.69-4.49q-3.9-4.67-8.5-3.85a6.86,6.86,0,0,0-4.75,3.07,7.65,7.65,0,0,0-1.11,5.77q1.27,7.2,10.51,6.13l.84,4.76" transform="translate(-23 -23)"/><path d="M130.8,1120.94a38.61,38.61,0,0,1-9.09.65,21.59,21.59,0,0,1-6.52-1.19,13,13,0,0,1-4.15-2.67,11.21,11.21,0,0,1-2.48-3.3,15.24,15.24,0,0,1-1.07-3.55,10.41,10.41,0,0,1,1.37-7.72,12.15,12.15,0,0,1,6.72-4.92l.84,4.76a7.85,7.85,0,0,0-3.87,3,6.09,6.09,0,0,0-.78,4.43,7.07,7.07,0,0,0,4.9,5.66q4.13,1.52,11.16.32a10.47,10.47,0,0,1-5.83-8.06,11.46,11.46,0,0,1,1.92-9.05,12.27,12.27,0,0,1,8.19-4.84,13,13,0,0,1,9.93,1.93,12.16,12.16,0,0,1,5.21,8.34q2.28,12.88-16.45,16.18m-4.47-12.71a7.78,7.78,0,0,0,3.28,5.33,7.94,7.94,0,0,0,6.18,1.2,9,9,0,0,0,5.78-3.31,7.31,7.31,0,0,0,1.45-6,7.22,7.22,0,0,0-3.29-5,8.67,8.67,0,0,0-6.39-1.11,8.84,8.84,0,0,0-5.7,3.07,7,7,0,0,0-1.31,5.87" transform="translate(-23 -23)"/><path d="M124.41,1091a40.6,40.6,0,0,1-8.64.68,19.33,19.33,0,0,1-6.1-1,11.52,11.52,0,0,1-3.93-2.38,10.41,10.41,0,0,1-2.32-3,13.32,13.32,0,0,1-1-3.33q-2.22-12.56,17.91-16.11,9.48-1.66,15.08.69a11.38,11.38,0,0,1,3.24,18.68q-4.53,4.1-14.21,5.8m-3.68-20.22q-15.48,2.73-14.12,10.41t17,4.93q15.81-2.79,14.47-10.36a6.3,6.3,0,0,0-4.94-5.21q-4.23-1.21-12.4.23" transform="translate(-23 -23)"/><path d="M1792.56,802.1q-2,7.15-8.41,8.29a11.23,11.23,0,0,1-9.19-2.12,13.29,13.29,0,0,1-4.93-8.67,13.45,13.45,0,0,1,1.66-9.89,11.45,11.45,0,0,1,8-5.09q6.39-1.12,10.68,4.87a13.34,13.34,0,0,1,2.86-4.69,7.93,7.93,0,0,1,4.18-1.91,9.55,9.55,0,0,1,7.92,1.9,12.26,12.26,0,0,1,4.34,7.82,12.09,12.09,0,0,1-1.41,8.79,9.52,9.52,0,0,1-6.79,4.54,8.06,8.06,0,0,1-4.63-.35,12.91,12.91,0,0,1-4.25-3.49m12-3.63a6.83,6.83,0,0,0,.83-5.11,7.07,7.07,0,0,0-2.54-4.58,5.73,5.73,0,0,0-4.7-1,5.8,5.8,0,0,0-4.06,2.56,7.22,7.22,0,0,0-.77,5.16,7.13,7.13,0,0,0,2.47,4.52,5.56,5.56,0,0,0,4.66,1.08,5.7,5.7,0,0,0,4.11-2.62m-16.33,3.88a9.14,9.14,0,0,0-2-11.58,7.17,7.17,0,0,0-5.81-1.26,7.4,7.4,0,0,0-5.08,3.13,8.1,8.1,0,0,0-1.1,6.11,8.43,8.43,0,0,0,3.09,5.48,7.32,7.32,0,0,0,5.92,1.3,7.18,7.18,0,0,0,5-3.18" transform="translate(-23 -23)"/><path d="M1792.94,813.7a40.66,40.66,0,0,1,8.64-.69,19.52,19.52,0,0,1,6.09,1,11.61,11.61,0,0,1,3.94,2.37,10.22,10.22,0,0,1,2.31,3,13.34,13.34,0,0,1,1,3.33q2.2,12.56-17.92,16.11-9.46,1.67-15.07-.69a11.38,11.38,0,0,1-3.24-18.68q4.51-4.1,14.21-5.8m3.67,20.22q15.48-2.73,14.13-10.41t-17-4.93q-15.79,2.79-14.46,10.36a6.29,6.29,0,0,0,4.93,5.21q4.23,1.22,12.4-.23" transform="translate(-23 -23)"/><path d="M174.47,1293.58q-12.84,4.26-17.1-7.46a12.75,12.75,0,0,1-.09-9.56,10.72,10.72,0,0,1,6.56-6.07q6.82-2.48,13.87,3.72l4.67,4.15a17.83,17.83,0,0,0,5.26,3.53,8.52,8.52,0,0,0,4.68.34l-7-19.26,4.49-1.64,8.87,24.37q-6.15,1.89-10.17,1t-9.42-5.46l-4.41-3.77q-4.65-3.93-9-2.33a6.9,6.9,0,0,0-4.16,3.85,7.71,7.71,0,0,0-.08,5.88q2.5,6.87,11.41,4.21l1.66,4.54" transform="translate(-23 -23)"/><path d="M143.31,1247.47l4.49-1.64,5.55,15.24,10.75-2.28a12.67,12.67,0,0,1-4.38-15.71,12.72,12.72,0,0,1,7.58-6.5,13.9,13.9,0,0,1,10.72.07,12.72,12.72,0,0,1,7,7.7,17,17,0,0,1,1,4.09,15.38,15.38,0,0,1,0,3.34,10.12,10.12,0,0,1-.94,2.74,20.4,20.4,0,0,1-1.33,2.12,17.46,17.46,0,0,1-1.67,1.66c-.73.58-1.23,1-1.52,1.14s-.7.43-1.25.75l-1.65-4.55q5.56-3.84,3.42-9.72a8.07,8.07,0,0,0-4.4-5,9.17,9.17,0,0,0-7,.09,9.63,9.63,0,0,0-5.62,4.5,8,8,0,0,0-.25,6.7,8.35,8.35,0,0,0,2.09,3.33,10.69,10.69,0,0,0,3.76,2.14l1.53,4.18-20.93,4.52-6.88-18.9" transform="translate(-23 -23)"/><path d="M159.87,1234.18a40.42,40.42,0,0,1-8.39,2.18,19.36,19.36,0,0,1-6.19,0,11.65,11.65,0,0,1-4.29-1.66,10.26,10.26,0,0,1-2.79-2.54,13,13,0,0,1-1.6-3.11q-4.37-12,14.85-19,9-3.28,15-1.94a11.39,11.39,0,0,1,6.43,17.84q-3.73,4.82-13,8.17m-7.14-19.27q-14.76,5.37-12.09,12.71t17.59,1.9q15.08-5.49,12.44-12.72a6.28,6.28,0,0,0-5.76-4.27q-4.38-.46-12.18,2.38" transform="translate(-23 -23)"/><path d="M1772.29,660.26l-3.82,1.39a93.88,93.88,0,0,0-19.73-3.93,71.94,71.94,0,0,0-18.47,1l-1.77-4.85a84.43,84.43,0,0,1,17.82-.52,117.66,117.66,0,0,1,19.77,3.85l-7.2-19.77,4.49-1.64,8.91,24.48" transform="translate(-23 -23)"/><path d="M1754.9,671.26a40.34,40.34,0,0,1,8.39-2.17,19.36,19.36,0,0,1,6.19,0,11.64,11.64,0,0,1,4.29,1.65,10.13,10.13,0,0,1,2.79,2.55,13,13,0,0,1,1.6,3.1q4.36,12-14.85,19-9,3.3-15,1.94a11.38,11.38,0,0,1-6.43-17.83q3.74-4.82,13-8.18m7.14,19.28q14.76-5.38,12.09-12.71t-17.59-1.9q-15.07,5.49-12.44,12.71a6.29,6.29,0,0,0,5.76,4.28q4.38.45,12.18-2.38" transform="translate(-23 -23)"/><path d="M244.35,1425q-11.9,6.42-18.13-4.38a12.77,12.77,0,0,1-1.75-9.4,10.72,10.72,0,0,1,5.41-7.12q6.27-3.61,14.3,1.26l5.32,3.28a18,18,0,0,0,5.79,2.56,8.55,8.55,0,0,0,4.67-.48l-10.25-17.75,4.14-2.39,13,22.46q-5.73,2.92-9.85,2.71T246.75,1412l-5-3q-5.25-3-9.3-.72a7,7,0,0,0-3.42,4.52,7.67,7.67,0,0,0,.94,5.8q3.66,6.33,12,2.16l2.42,4.19" transform="translate(-23 -23)"/><path d="M235.39,1377.19l8.22,14.23-4.43,2.56-30.07-3.07-1.79-3.1,21.89-12.63-2.88-5,3.76-2.17,2.88,5,8.09-4.67,2.42,4.18-8.09,4.67m-3.76,2.17-14.75,8.52,20.85,2-6.1-10.57" transform="translate(-23 -23)"/><path d="M219.72,1369.11a40.3,40.3,0,0,1-7.88,3.6,19.66,19.66,0,0,1-6.09,1.1,11.52,11.52,0,0,1-4.51-.89,10.18,10.18,0,0,1-3.19-2,13.17,13.17,0,0,1-2.12-2.78q-6.36-11,11.33-21.26,8.33-4.8,14.4-4.5a11.36,11.36,0,0,1,9.43,16.44q-2.85,5.39-11.37,10.31m-10.37-17.74q-13.6,7.85-9.7,14.61t17.65-1.18q13.89-8,10-14.69a6.34,6.34,0,0,0-6.42-3.21q-4.4.31-11.58,4.47" transform="translate(-23 -23)"/><path d="M1676.43,511.69a39,39,0,0,1,8.32-3.72,21.72,21.72,0,0,1,6.53-1.11,13,13,0,0,1,4.82,1.09,11.27,11.27,0,0,1,3.45,2.26,15.58,15.58,0,0,1,2.23,3,10.4,10.4,0,0,1,1.34,7.72,12,12,0,0,1-4.63,6.92l-2.41-4.18a8,8,0,0,0,2.6-4.17,6.1,6.1,0,0,0-.78-4.44,7.09,7.09,0,0,0-6.55-3.64q-4.38,0-10.59,3.52a10.44,10.44,0,0,1,8.23,5.58,11.44,11.44,0,0,1,1.29,9.16,12.24,12.24,0,0,1-6,7.35,13,13,0,0,1-10,1.58,12.16,12.16,0,0,1-7.75-6.05q-6.54-11.32,9.93-20.84m8.55,10.42a7.79,7.79,0,0,0-4.91-3.89,8,8,0,0,0-6.22,1,9.09,9.09,0,0,0-4.3,5.08,7.38,7.38,0,0,0,.69,6.14,7.29,7.29,0,0,0,4.82,3.63,8.72,8.72,0,0,0,6.38-1.15,8.84,8.84,0,0,0,4.32-4.84,7,7,0,0,0-.78-6" transform="translate(-23 -23)"/><path d="M1692.67,537.63a40.55,40.55,0,0,1,7.89-3.59,19.72,19.72,0,0,1,6.09-1.11,11.61,11.61,0,0,1,4.5.89,10.12,10.12,0,0,1,3.2,2,13.05,13.05,0,0,1,2.11,2.78q6.38,11-11.32,21.26-8.34,4.82-14.41,4.51a11.39,11.39,0,0,1-9.43-16.45q2.87-5.38,11.37-10.31M1703,555.38q13.62-7.86,9.71-14.62T1695.1,542q-13.89,8-10,14.68a6.31,6.31,0,0,0,6.42,3.21q4.4-.32,11.57-4.46" transform="translate(-23 -23)"/><path d="M336,1542.29q-10.59,8.4-18.62-1.16a12.85,12.85,0,0,1-3.35-9,10.7,10.7,0,0,1,4.09-8q5.56-4.67,14.31-1.25l5.8,2.3a17.94,17.94,0,0,0,6.15,1.52,8.52,8.52,0,0,0,4.52-1.28l-13.18-15.71,3.67-3.07,16.67,19.87q-5.15,3.89-9.24,4.38t-10.71-1.91l-5.44-2q-5.7-2.1-9.28.9a6.92,6.92,0,0,0-2.59,5,7.64,7.64,0,0,0,1.93,5.55q4.69,5.61,12.17,0l3.1,3.71" transform="translate(-23 -23)"/><path d="M301.45,1515.57c1.79,2.14,3.62,3.11,5.48,2.94a11.24,11.24,0,0,0,5.69-2.62l3.11,3.7q-9.83,7.88-17.48-1.26-3.57-4.24-3.4-8.48a10.06,10.06,0,0,1,4-7.5,8,8,0,0,1,9.68-1,8.62,8.62,0,0,1,2.87-11,11.37,11.37,0,0,1,9.11-2.91q4.83.61,8.67,5.21,7.71,9.17-1.37,17.93l-3.11-3.7q3.06-2.92,3.35-5.75t-2.26-5.85a8.23,8.23,0,0,0-5.37-3.24,7.69,7.69,0,0,0-5.79,2.06q-5.43,4.56-.24,10.75l1.35,1.52.38.46-3.15,2.65c-2.29-2.62-4.21-4.22-5.74-4.79s-3.26-.14-5.08,1.39a6.29,6.29,0,0,0-2.5,4.54,6.77,6.77,0,0,0,1.82,5" transform="translate(-23 -23)"/><path d="M302,1491.47a40.74,40.74,0,0,1-7.14,4.91,19.71,19.71,0,0,1-5.8,2.15,11.78,11.78,0,0,1-4.6-.09,10.28,10.28,0,0,1-3.5-1.44,13.25,13.25,0,0,1-2.56-2.37q-8.19-9.77,7.46-22.9,7.37-6.18,13.4-6.94a11.38,11.38,0,0,1,12.15,14.55q-1.87,5.81-9.41,12.13m-13.3-15.67q-12,10.1-7,16.08t17.18-4.23q12.3-10.32,7.35-16.21a6.31,6.31,0,0,0-6.88-2q-4.28,1.08-10.63,6.41" transform="translate(-23 -23)"/><path d="M1619.21,398.67l-3.66,3.07-10.42-12.42-9.32,5.82a12.68,12.68,0,0,1,9.49,13.27,12.74,12.74,0,0,1-4.9,8.7,13.9,13.9,0,0,1-10.1,3.6,12.74,12.74,0,0,1-9.17-4.86,16.38,16.38,0,0,1-2.31-3.52,15.3,15.3,0,0,1-1.13-3.14,10.68,10.68,0,0,1-.06-2.89,21.68,21.68,0,0,1,.53-2.45,16.45,16.45,0,0,1,1-2.13c.48-.79.83-1.32,1-1.59s.51-.64.92-1.13l3.11,3.71q-3.92,5.51.11,10.3a8,8,0,0,0,5.84,3.2,9.13,9.13,0,0,0,6.54-2.47,9.6,9.6,0,0,0,3.73-6.14,8,8,0,0,0-2-6.38,8.2,8.2,0,0,0-3.11-2.42,10.36,10.36,0,0,0-4.26-.73l-2.86-3.41,18.12-11.4,12.92,15.41" transform="translate(-23 -23)"/><path d="M1608.2,416.82a40.29,40.29,0,0,1,7.14-4.92,19.65,19.65,0,0,1,5.8-2.14,11.41,11.41,0,0,1,4.6.09,10.36,10.36,0,0,1,3.5,1.43,13.91,13.91,0,0,1,2.56,2.37q8.19,9.77-7.46,22.91-7.36,6.18-13.4,6.94a11.38,11.38,0,0,1-12.15-14.56q1.88-5.81,9.41-12.12m13.29,15.67q12-10.11,7-16.08t-17.18,4.23q-12.3,10.31-7.35,16.21a6.32,6.32,0,0,0,6.88,2q4.28-1.06,10.62-6.4" transform="translate(-23 -23)"/><path d="M446.59,1641.92q-9,10.1-18.54,2.09a12.8,12.8,0,0,1-4.85-8.24,10.72,10.72,0,0,1,2.64-8.54q4.67-5.55,13.88-3.71l6.11,1.26a17.75,17.75,0,0,0,6.32.42,8.45,8.45,0,0,0,4.23-2L440.68,1610l3.07-3.66L463.62,1623q-4.39,4.71-8.34,5.92t-10.88,0l-5.71-1.06q-6-1.08-9,2.5a6.9,6.9,0,0,0-1.67,5.41,7.64,7.64,0,0,0,2.87,5.13q5.6,4.7,12-2.06l3.7,3.11" transform="translate(-23 -23)"/><path d="M423.16,1622.25q-9,10.11-18.54,2.09a12.76,12.76,0,0,1-4.85-8.23,10.68,10.68,0,0,1,2.64-8.54q4.66-5.55,13.87-3.71l6.12,1.26a17.74,17.74,0,0,0,6.32.42,8.54,8.54,0,0,0,4.23-2l-15.7-13.18,3.07-3.66,19.87,16.67q-4.4,4.71-8.34,5.92t-10.88,0l-5.71-1.06q-6-1.07-9,2.51a6.9,6.9,0,0,0-1.67,5.41,7.64,7.64,0,0,0,2.87,5.13q5.59,4.69,12-2.06l3.71,3.1" transform="translate(-23 -23)"/><path d="M404.25,1597.78a40.76,40.76,0,0,1-6.18,6.08,19.84,19.84,0,0,1-5.34,3.12,11.73,11.73,0,0,1-4.54.71,10.17,10.17,0,0,1-3.7-.81,13.34,13.34,0,0,1-2.94-1.89q-9.76-8.19,3.38-23.85,6.18-7.37,12-9.16a11.38,11.38,0,0,1,14.49,12.22q-.84,6-7.16,13.58m-15.82-13.13q-10.1,12-4.12,17.06t16.18-7.15q10.32-12.3,4.42-17.24a6.32,6.32,0,0,0-7.13-.82q-4,1.8-9.35,8.15" transform="translate(-23 -23)"/><path d="M1486.48,310.23l-12.59-10.56,3.29-3.92,29.31-7.4,2.73,2.3L1493,310l4.42,3.71-2.79,3.33-4.42-3.71-6,7.15-3.7-3.11,6-7.15m2.79-3.33,11-13-20.29,5.2,9.34,7.84" transform="translate(-23 -23)"/><path d="M1504,312.47a40.28,40.28,0,0,1,6.17-6.08,20,20,0,0,1,5.35-3.12,11.67,11.67,0,0,1,4.54-.71,10.27,10.27,0,0,1,3.7.81,13.28,13.28,0,0,1,2.93,1.89q9.77,8.19-3.37,23.85-6.18,7.36-12,9.16A11.38,11.38,0,0,1,1496.81,326q.84-6,7.16-13.57m15.81,13.13q10.1-12,4.12-17.06t-16.18,7.15q-10.32,12.29-4.42,17.24a6.32,6.32,0,0,0,7.13.82q4-1.8,9.35-8.15" transform="translate(-23 -23)"/><path d="M572.78,1720.43q-7.1,11.52-17.9,5.28a12.8,12.8,0,0,1-6.21-7.27,10.7,10.7,0,0,1,1.12-8.87q3.63-6.27,13-6.06l6.24.18a18,18,0,0,0,6.3-.68,8.51,8.51,0,0,0,3.81-2.75L561.41,1690l2.39-4.14,22.46,13q-3.51,5.4-7.18,7.27T568.35,1708l-5.8,0c-4.06,0-6.86,1.33-8.42,4a6.89,6.89,0,0,0-.7,5.62,7.66,7.66,0,0,0,3.71,4.56q6.33,3.64,11.45-4.12l4.19,2.42" transform="translate(-23 -23)"/><path d="M535.19,1701.37l7.47,4.32-1.73,3q-5.22-2.19-7.32-2c-1.41.17-3.22,1.34-5.45,3.52l-2.76-1.6,19.47-33.73,4.19,2.41-13.87,24" transform="translate(-23 -23)"/><path d="M523.41,1684.32a40.83,40.83,0,0,1-5,7.06,19.69,19.69,0,0,1-4.72,4,11.6,11.6,0,0,1-4.35,1.48,10.09,10.09,0,0,1-3.78-.15,13.78,13.78,0,0,1-3.22-1.35q-11-6.37-.82-24.08,4.81-8.33,10.22-11.1a11.38,11.38,0,0,1,16.39,9.53q.23,6.09-4.69,14.61m-17.85-10.18q-7.86,13.6-1.1,17.51t14.69-9.85q8-13.9,1.37-17.74a6.29,6.29,0,0,0-7.17.43q-3.64,2.46-7.79,9.65" transform="translate(-23 -23)"/><path d="M1375.59,205.07c-2.41-1.39-4.46-1.69-6.15-.88a11,11,0,0,0-4.45,4.41l-4.19-2.42q6.53-10.77,16.85-4.8,4.81,2.77,6.09,6.82a10,10,0,0,1-1.16,8.39,8,8,0,0,1-8.75,4.28,8.62,8.62,0,0,1,1.06,11.34,11.4,11.4,0,0,1-7.56,5.85q-4.74,1.06-9.93-1.93-10.38-6-4.84-17.33l4.18,2.42q-1.87,3.81-1.18,6.55c.47,1.84,1.84,3.41,4.13,4.73a8.24,8.24,0,0,0,6.15,1.21,7.64,7.64,0,0,0,4.74-3.93q3.56-6.14-3.45-10.17l-1.79-1-.52-.31,2.06-3.56c3,1.67,5.4,2.52,7,2.53s3.1-1,4.29-3a6.3,6.3,0,0,0,.8-5.12,6.74,6.74,0,0,0-3.42-4.07" transform="translate(-23 -23)"/><path d="M1383.35,227.9a40.06,40.06,0,0,1,5-7.06,19.64,19.64,0,0,1,4.72-4,11.74,11.74,0,0,1,4.35-1.49,10.26,10.26,0,0,1,3.78.16,13,13,0,0,1,3.22,1.35q11,6.36.82,24.07-4.8,8.32-10.22,11.11a11.38,11.38,0,0,1-16.39-9.53q-.23-6.09,4.7-14.61m17.85,10.18q7.86-13.61,1.1-17.51t-14.7,9.85q-8,13.89-1.36,17.74a6.31,6.31,0,0,0,7.17-.43q3.63-2.46,7.79-9.65" transform="translate(-23 -23)"/><path d="M710.72,1776.38q-5,12.57-16.71,8.3a12.79,12.79,0,0,1-7.38-6.07,10.71,10.71,0,0,1-.43-8.93q2.47-6.83,11.77-8.23l6.17-.91a17.63,17.63,0,0,0,6.08-1.77,8.45,8.45,0,0,0,3.28-3.37l-19.26-7,1.63-4.49,24.37,8.87q-2.5,5.93-5.81,8.41t-10.23,3.7l-5.73,1q-6,1-7.59,5.42a6.93,6.93,0,0,0,.28,5.66,7.67,7.67,0,0,0,4.45,3.84q6.87,2.51,10.56-6l4.55,1.66" transform="translate(-23 -23)"/><path d="M684.57,1759.85a39.92,39.92,0,0,1-3.72,7.82,19.66,19.66,0,0,1-4,4.76,11.8,11.8,0,0,1-4,2.22,10.28,10.28,0,0,1-3.75.5,13,13,0,0,1-3.4-.77q-12-4.35-5-23.56,3.28-9,8.13-12.71a11.38,11.38,0,0,1,17.8,6.53q1.27,6-2.09,15.21m-19.35-6.93q-5.37,14.77,2,17.44t12.76-12.26q5.49-15.07-1.74-17.71a6.32,6.32,0,0,0-7,1.67q-3.15,3.06-6,10.86" transform="translate(-23 -23)"/><path d="M655.83,1749.38a40.32,40.32,0,0,1-3.72,7.83,19.66,19.66,0,0,1-4,4.76,11.8,11.8,0,0,1-4,2.22,10.3,10.3,0,0,1-3.75.5,13.11,13.11,0,0,1-3.41-.77q-12-4.35-5-23.57,3.28-9,8.13-12.71a11.38,11.38,0,0,1,17.79,6.54q1.29,6-2.08,15.2m-19.35-6.92q-5.37,14.76,2,17.43t12.76-12.25q5.49-15.08-1.74-17.71a6.31,6.31,0,0,0-7,1.67q-3.16,3.06-6,10.86" transform="translate(-23 -23)"/><path d="M1223.66,148.94q5-12.57,16.7-8.3a12.77,12.77,0,0,1,7.38,6.08,10.67,10.67,0,0,1,.43,8.93q-2.48,6.81-11.76,8.23l-6.18.91a17.66,17.66,0,0,0-6.08,1.76,8.51,8.51,0,0,0-3.28,3.37l19.26,7-1.63,4.49-24.37-8.87q2.5-5.93,5.81-8.41t10.23-3.7l5.73-1q6-1,7.59-5.42a6.93,6.93,0,0,0-.28-5.66,7.67,7.67,0,0,0-4.45-3.84q-6.87-2.51-10.56,6l-4.54-1.66" transform="translate(-23 -23)"/><path d="M1249.8,165.48a40.6,40.6,0,0,1,3.72-7.83,19.66,19.66,0,0,1,4-4.76,11.8,11.8,0,0,1,4-2.22,10.28,10.28,0,0,1,3.75-.5,13.53,13.53,0,0,1,3.41.77q12,4.37,5,23.57-3.29,9-8.13,12.71a11.39,11.39,0,0,1-17.8-6.54q-1.28-6,2.09-15.2m19.35,6.92q5.37-14.76-2-17.43t-12.76,12.25q-5.49,15.08,1.74,17.71a6.3,6.3,0,0,0,7-1.67c2.11-2,4.1-5.66,6-10.86" transform="translate(-23 -23)"/><path d="M844.49,1807.45l8.49,1.49-.6,3.41c-3.76-.18-6.28.05-7.54.68s-2.57,2.36-3.92,5.17l-3.14-.55,6.76-38.37,4.76.84-4.81,27.33" transform="translate(-23 -23)"/><path d="M802.19,1792.08a39.6,39.6,0,0,1,2.5-8.82,20.8,20.8,0,0,1,3.4-5.65,12.4,12.4,0,0,1,3.94-3,11.11,11.11,0,0,1,3.94-1.15,15.51,15.51,0,0,1,3.7.21,10.63,10.63,0,0,1,6.84,3.94,12.29,12.29,0,0,1,2.27,8l-4.76-.84a8,8,0,0,0-1.52-4.68,6.14,6.14,0,0,0-3.9-2.25,7,7,0,0,0-6.94,2.63q-2.88,3.39-4.18,10.42a11.19,11.19,0,0,1,9.52-2.73,11.48,11.48,0,0,1,7.9,4.91,12.27,12.27,0,0,1,1.75,9.35,12.93,12.93,0,0,1-5.15,8.63,12.26,12.26,0,0,1-9.68,2.09q-12.93-2.28-9.63-21m10.42,16.85a7.13,7.13,0,0,0,5.88-1.42,8.76,8.76,0,0,0,3.23-5.62,9.06,9.06,0,0,0-.93-6.47,7.07,7.07,0,0,0-5.07-3.18,7.7,7.7,0,0,0-6.09,1.27,8,8,0,0,0-3.29,5.39,9,9,0,0,0,1.13,6.56,7.26,7.26,0,0,0,5.14,3.47" transform="translate(-23 -23)"/><path d="M797.6,1790.16a40.83,40.83,0,0,1-2.31,8.35,19.67,19.67,0,0,1-3.07,5.37,11.5,11.5,0,0,1-3.58,2.89,10.38,10.38,0,0,1-3.6,1.15,13.3,13.3,0,0,1-3.49-.17q-12.56-2.22-9-22.34,1.66-9.48,5.8-13.93a11.38,11.38,0,0,1,18.66,3.34q2.29,5.65.59,15.34m-20.26-3.46q-2.73,15.48,4.95,16.83t10.45-14.28q2.78-15.81-4.79-17.14a6.32,6.32,0,0,0-6.59,2.85q-2.58,3.57-4,11.74" transform="translate(-23 -23)"/><path d="M1090.53,115.25l-8.5-1.5.61-3.41q5.64.27,7.54-.68t3.92-5.17l3.14.56-6.77,38.36-4.76-.84,4.82-27.32" transform="translate(-23 -23)"/><path d="M1107.43,127.25a40.94,40.94,0,0,1,2.31-8.36,19.72,19.72,0,0,1,3.07-5.37,11.61,11.61,0,0,1,3.58-2.88,10.17,10.17,0,0,1,3.6-1.15,13.3,13.3,0,0,1,3.49.17q12.55,2.2,9,22.34-1.67,9.47-5.8,13.93a11.37,11.37,0,0,1-18.66-3.35q-2.3-5.64-.59-15.33m20.26,3.46q2.73-15.48-5-16.83t-10.44,14.28q-2.79,15.79,4.79,17.14a6.31,6.31,0,0,0,6.59-2.86q2.58-3.56,4-11.73" transform="translate(-23 -23)"/><path d="M1116,58l-6,33.82,5.92,1,6-33.82L1116,58Z" transform="translate(-23 -23)"/><path d="M222.06,1261.12l1454-602.24" transform="translate(-23 -23)" style="fill:#666;stroke:#666;stroke-miterlimit:2.61453503666417;stroke-width:9px"/><path d="M647.94,1687,1250.18,233" transform="translate(-23 -23)" style="fill:#666;stroke:#666;stroke-miterlimit:2.61453503666417;stroke-width:9px"/><path d="M1250.18,1687,647.94,233" transform="translate(-23 -23)" style="fill:#666;stroke:#666;stroke-miterlimit:2.61453503666417;stroke-width:9px"/><path d="M1676.06,1261.12l-1454-602.24" transform="translate(-23 -23)" style="fill:#666;stroke:#666;stroke-miterlimit:2.61453503666417;stroke-width:9px"/><path d="M967.2,320.52q-17.06,282.69-34.11,565.36L654.23,641.12,899.74,918.33l-564.31,34L900.06,989.1l-245.8,277.5,278.85-244.75q17.05,282.69,34.11,565.36L1004,1022.44q138.6,122.83,277.21,245.66L1036.33,989.24l565.83-37-565.37-34.11,244.45-278.55L1004,885.27,967.23,320.5Z" transform="translate(-23 -23)" style="stroke:#000;stroke-miterlimit:2.61453503666417;stroke-width:0.799982332036474px"/><path d="M1223.92,143.62,938.15,856.45A99.59,99.59,0,0,0,866,922.83l189.85,61.69a99.62,99.62,0,0,0-19.69-96.38l187.75-744.53Z" transform="translate(-23 -23)" style="fill:#c33;stroke:#900;stroke-linecap:round;stroke-linejoin:round;stroke-width:1.11994083908629px"/><path d="M697.68,1763.82l187.79-744.66a99.59,99.59,0,0,1-19.33-96.1L1056,984.74a99.61,99.61,0,0,1-72.58,66.39l-285.73,712.7Z" transform="translate(-23 -23)" style="fill:#33f;stroke:#33f;stroke-linecap:round;stroke-linejoin:round;stroke-width:1.11994083908629px"/><text transform="translate(1514.36 857.06) rotate(89.62)" style="font-size:315px;font-family:Calibri-Bold, Calibri;font-weight:700">E</text><text transform="matrix(-1, -0.01, 0.01, -1, 1009.76, 1513.16)" style="font-size:315px;font-family:Calibri-Bold, Calibri;font-weight:700">S</text><text transform="translate(373.53 1077.71) rotate(-88.92)" style="font-size:315px;font-family:Calibri-Bold, Calibri;font-weight:700">W</text><text transform="translate(846.12 351.73) rotate(-0.34)" style="font-size:315px;font-family:Calibri-Bold, Calibri;font-weight:700">N</text><text transform="matrix(0.67, 0.75, -0.75, 0.67, 1237.49, 503.17)" style="font-size:170px;font-family:Calibri-Bold, Calibri;font-weight:700">NE</text><text transform="matrix(-0.72, 0.7, -0.7, -0.72, 1365.64, 1237.13)" style="font-size:170px;font-family:Calibri-Bold, Calibri;font-weight:700">SE</text><text transform="translate(667.64 1361.51) rotate(-137.92)" style="font-size:170px;font-family:Calibri-Bold, Calibri;font-weight:700">SW</text><text transform="matrix(0.7, -0.72, 0.72, 0.7, 512.13, 682.74)" style="font-size:170px;font-family:Calibri-Bold, Calibri;font-weight:700">NW</text></svg>