<svg id="Layer_2" data-name="Layer 2" xmlns="http://www.w3.org/2000/svg" viewBox="0 0 1686.88 1899.18"><path d="M1776.5,511.5c-15.07,71.94-23.57,119-55.42,162.73-10.94,15-24.64,29.67-42.32,44.8q-8.92,7.63-19.26,15.47c-16.45,12.47-43.68,25.45-77,38.29h0c-10.25,4-21.07,7.88-32.35,11.79h0c-23.71,8.21-49.38,16.28-75.75,24-11.84,3.48-23.82,6.91-35.82,10.25h0c-47.15,13.13-94.7,25.06-135.76,34.86-10.16,2.42-19.91,4.71-29.16,6.85-15.18,3.52-29,6.65-41,9.32,1.54-19.09,9.85-41.23,35.93-56.4,55-32,150.89-51.48,171-56,40.41-9.07,104-50.11,149.66-86.66,9.72-7.76,18.63-15.33,26.34-22.34,0,0,17.83-17.33,36.61-44.61a312.06,312.06,0,0,0,16.75-27.15,247.47,247.47,0,0,0,14.2-30.52,178,178,0,0,0,11.44-47.72A189.88,189.88,0,0,0,1673.65,394c-11.7-22.39-25.17-37-32.15-41.45-7.61-4.87-35.34-18.8-72-36.64-7-3.43-14.42-7-22-10.69-37.56-18.15-81.17-38.91-121.3-57.93-8.9-4.22-17.63-8.35-26.09-12.34-37.58-17.77-69.71-32.87-87.25-41.12l-13.36-6.28s-12.2-7.44-30.11-19.5c-45.08-30.38-126.29-90.13-139.89-134.5-19-62,16-4,16-4s40.28,55.29,106.11,77.42a174.82,174.82,0,0,0,25.89,6.58c2.35.41,4.8.89,7.33,1.44,84.49,18.23,262.67,111.56,262.67,111.56s67,37,79,49S1798.5,406.5,1776.5,511.5Z" transform="translate(-155.55 -4.37)" style="fill:#c33;stroke:#c33;stroke-miterlimit:10"/><path d="M1284.83,114.94c-2.53-.55-5-1-7.33-1.44a174.82,174.82,0,0,1-25.89-6.58c-1.67-5.16-3-9-4.11-11.42-13-29-43-52-38-59s54,20,66,53C1277.46,94.9,1280.74,103.75,1284.83,114.94Z" transform="translate(-155.55 -4.37)" style="fill:#c33;stroke:#c33;stroke-miterlimit:10"/><path d="M1652.11,603.89c-18.78,27.28-36.61,44.61-36.61,44.61-7.71,7-16.62,14.58-26.34,22.34C1478.55,611.78,1378.5,553.5,1360.5,515.5c-17.76-37.5-14-83.05-15.08-119.59a244.06,244.06,0,0,0,12.13,22.78,104.82,104.82,0,0,0,8.88,12.57c.36.43.72.84,1.07,1.24,23.08,26,55.33,47.48,93.67,68.13q10.24,5.53,21.06,11c34.67,17.58,73.4,35.08,114.27,54.88,3.85,1.86,7.7,3.9,11.54,6.08a255.33,255.33,0,0,1,23.18,15C1638.27,592.62,1645.25,598.1,1652.11,603.89Z" transform="translate(-155.55 -4.37)" style="fill:#c33;stroke:#c33;stroke-miterlimit:10"/><path d="M1797.46,792c-27.81-21.48-70.59-46.54-118.7-73,17.68-15.13,31.38-29.77,42.32-44.8a895.7,895.7,0,0,1,67.42,91.27A144,144,0,0,1,1797.46,792Z" transform="translate(-155.55 -4.37)" style="fill:#c33;stroke:#c33;stroke-miterlimit:10"/><path d="M912.5,1734.5c16.27,4.3,35.34,9.38,56.73,13.12-2.24,33.46-8.13,69.2-30.73,108.88-41,72-171,39-171,39s37.31-91,39.88-214.84C862.43,1711,904.26,1732.32,912.5,1734.5Z" transform="translate(-155.55 -4.37)" style="fill:#c33;stroke:#c33;stroke-miterlimit:10"/><path d="M1117.67,1648c-12.53-.76-26.65-2-41.55-3.64L960.5,1492.27c-2-16.7-4.08-34-6.26-51.55Z" transform="translate(-155.55 -4.37)" style="stroke:#000;stroke-miterlimit:10"/><path d="M1230.78,1581.06a215.68,215.68,0,0,1-11.32,37.74L934.22,1286c-2.28-17.2-4.51-34-6.65-50Z" transform="translate(-155.55 -4.37)" style="stroke:#000;stroke-miterlimit:10"/><path d="M1163.53,1109.55c-31.18-5.64-61.63-11.33-89.7-16.69-15.06-2.87-29.43-5.65-42.86-8.27C971.46,1073,930.5,1064.5,930.5,1064.5s-16.37-7-20.89,9.23a34.07,34.07,0,0,0-1.11,7.77c-.13,3.3,1,14.37,3,31.28,3.36,28,9.21,71.93,16.05,123.25,2.14,16,4.37,32.78,6.65,50,6.62,49.9,13.67,103.61,20,154.71,2.18,17.58,4.28,34.85,6.26,51.55,6.4,54.19,11.46,102.36,13.61,135.55-20.46-4.58-38.8-9.75-52.61-15.32-14.24-5.75-59.94-31.22-120.49-66.2-13.33-162.68-42.51-388.8-42.51-388.8s-10-51,28-85c34.8-31.13,152-64,152-64s68-20,94-14c12.52,2.89,52.88,10,102.5,20.4,2.09,12.42,4.89,25.93,8.5,40.6C1148.43,1075.54,1155.36,1091.21,1163.53,1109.55Z" transform="translate(-155.55 -4.37)" style="fill:#c33;stroke:#c33;stroke-miterlimit:10"/><path d="M1238.19,1443.06,911.52,1112.78c-2-16.91-3.15-28-3-31.28a34.07,34.07,0,0,1,1.11-7.77l325.18,327.89Q1237.09,1423.57,1238.19,1443.06Z" transform="translate(-155.55 -4.37)" style="stroke:#000;stroke-miterlimit:10"/><path d="M1208.46,1244.08,1031,1084.59c13.43,2.62,27.8,5.4,42.86,8.27l122.43,104C1200.28,1210.67,1204.37,1226.26,1208.46,1244.08Z" transform="translate(-155.55 -4.37)" style="stroke:#000;stroke-miterlimit:10"/><path d="M1321.5,1608.5c-60,73-168,125-238,139-42.52,8.5-81.18,5.92-114.27.12-21.39-3.74-40.46-8.82-56.73-13.12-8.24-2.18-50.07-23.51-105.12-53.84-98.44-54.24-239.18-137.29-305.88-191.16-104-84-345-226-345-226a314.7,314.7,0,0,1,65-31c36-12,82,18,82,18S619.2,1441.27,801,1546.3c60.55,35,106.25,60.45,120.49,66.2,13.81,5.57,32.15,10.74,52.61,15.32,31.85,7.13,68.85,12.84,102,16.51,14.9,1.65,29,2.88,41.55,3.64,15.61,1,28.75,1.16,37.83.53,43-3,57-16,57-16s3-4.16,7-13.7a215.68,215.68,0,0,0,11.32-37.74c6.38-29.9,11.13-74.49,7.41-138q-1.14-19.51-3.4-41.44-2.41-23.14-6.29-49.12c-6.54-43.57-13.3-79-20-108.42-4.09-17.82-8.18-33.41-12.2-47.22-11.79-40.45-23.12-65.73-32.73-87.31-8.17-18.34-15.1-34-20-54-3.61-14.67-6.41-28.18-8.5-40.6-7.19-42.6-6.15-72.5-1.5-93.4,6-27,50-41,50-41s18.8-3.87,49.07-10.6a97.88,97.88,0,0,0,4.93,38.6l3.4,9.34c2.33,6.38,5.76,15.83,10.06,27.72,8.8,24.33,21.23,58.84,35.2,98,10.29,28.85,21.4,60.24,32.51,92,33.06,94.4,66,191.74,76.83,234C1419.5,1463.5,1381.5,1535.5,1321.5,1608.5Z" transform="translate(-155.55 -4.37)" style="fill:#c33;stroke:#c33;stroke-miterlimit:10"/><path d="M1476.93,1043.64c-14.31,1.69-28,2.94-41.14,4L1251,945.56c-4.3-11.89-7.73-21.34-10.06-27.72Z" transform="translate(-155.55 -4.37)" style="stroke:#000;stroke-miterlimit:10"/><path d="M1653.79,997.26q-20.26,8.7-39.55,15.41L1273.59,860.58c9.25-2.14,19-4.43,29.16-6.85Z" transform="translate(-155.55 -4.37)" style="stroke:#000;stroke-miterlimit:10"/><path d="M1783.63,903a149.25,149.25,0,0,1-21.12,27.94l-324-112c12-3.34,24-6.77,35.82-10.25Z" transform="translate(-155.55 -4.37)" style="stroke:#000;stroke-miterlimit:10"/><path d="M1804.5,1052.5c-33,65-117,79-117,79s-125,26-260,17c-28.17-1.88-66.24-6.63-108.83-13-11.11-31.71-22.22-63.1-32.51-92,40.88,6.29,77.24,9.94,100.34,7.92,15.39-1.35,31.81-2.43,49.29-3.86,13.12-1.06,26.83-2.31,41.14-4,40.85-4.82,86.57-13.21,137.31-31q19.29-6.75,39.55-15.41c18.93-8.13,38.5-17.63,58.71-28.76,21-11.56,37.35-24.3,50-37.6A149.25,149.25,0,0,0,1783.63,903a137.63,137.63,0,0,0,18.08-56.6,158.1,158.1,0,0,0-.65-35,174.57,174.57,0,0,0-3.6-19.37c19.13,14.77,29.39,28.32,33,38.51C1854.5,897.5,1838.28,986,1804.5,1052.5Z" transform="translate(-155.55 -4.37)" style="fill:#c33;stroke:#c33;stroke-miterlimit:10"/><path d="M1801.71,846.36,1550.1,784.58c11.28-3.91,22.1-7.84,32.35-11.79h0l218.6,38.57A158.1,158.1,0,0,1,1801.71,846.36Z" transform="translate(-155.55 -4.37)" style="stroke:#000;stroke-miterlimit:10"/><path d="M1683.06,546.22a247.47,247.47,0,0,1-14.2,30.52l-37.64,10.81a255.33,255.33,0,0,0-23.18-15Z" transform="translate(-155.55 -4.37)" style="stroke:#000;stroke-miterlimit:10"/><path d="M1683.94,417.37l-201.71,94.25q-10.8-5.47-21.06-11L1673.65,394A188.24,188.24,0,0,1,1683.94,417.37Z" transform="translate(-155.55 -4.37)" style="stroke:#000;stroke-miterlimit:10"/><path d="M1569.38,315.54l-202.76,116A105.38,105.38,0,0,1,1357.7,419l189.61-114.09C1554.94,308.58,1562.33,312.13,1569.38,315.54Z" transform="translate(-155.55 -4.37)" style="stroke:#000;stroke-miterlimit:10"/><path d="M1345.42,395.91c-27.58-58.12-56.37-158.66-76-227.91,17.91,12.06,30.11,19.5,30.11,19.5l13.36,6.28c9,26.35,17,53.42,23,76.16,2,7.44,3.69,14.4,5.17,20.73,2.94,12.62,4.87,22.69,5.48,28.83C1348.5,339.5,1344.4,363.47,1345.42,395.91Z" transform="translate(-155.55 -4.37)" style="fill:#c33;stroke:#c33;stroke-miterlimit:10"/><path d="M1426.2,247.24,1341,290.67c-1.48-6.33-3.21-13.29-5.17-20.73l64.26-35C1408.57,238.89,1417.3,243,1426.2,247.24Z" transform="translate(-155.55 -4.37)" style="stroke:#000;stroke-miterlimit:10"/></svg>