<svg id="Layer_1" data-name="Layer 1" xmlns="http://www.w3.org/2000/svg" viewBox="0 0 1864 1864"><g id="g4131"><path id="path4133" d="M1812.07,958c0,466.67-378.32,845-845,845s-845-378.31-845-845h1690Z" transform="translate(-35 -23)" style="fill:#7d5233;stroke:#000;stroke-linecap:square;stroke-miterlimit:3.6591437306677315;stroke-width:0.9147859326669329px;fill-rule:evenodd"/><path id="path4135" d="M122.1,957.59c0-466.67,378.31-845,845-845s845,378.31,845,845H122.1Z" transform="translate(-35 -23)" style="fill:#5b93c5;stroke:#000;stroke-linecap:square;stroke-miterlimit:3.6591437306677315;stroke-width:0.9147859326669329px;fill-rule:evenodd"/></g><path id="path4155" d="M927.39,915.71l79.22-.41" transform="translate(-35 -23)" style="fill:none;stroke:#fff;stroke-linecap:square;stroke-miterlimit:2.766200065612793;stroke-width:10px"/><path id="path4157" d="M927.39,822.94l79.22-.46" transform="translate(-35 -23)" style="fill:none;stroke:#fff;stroke-linecap:square;stroke-miterlimit:2.766200065612793;stroke-width:10px"/><path id="path4159" d="M911.75,869.39l110.45-.59" transform="translate(-35 -23)" style="fill:none;stroke:#fff;stroke-linecap:square;stroke-miterlimit:2.766200065612793;stroke-width:10px"/><path id="text4161" d="M851.66,895.39l-.41-48.59,6.23,0,.41,48.59Zm29.64.63c-3.64.05-6.32-2-8-6.09s-2.59-10.31-2.68-18.77q-.21-25,10.27-25.09c3.59,0,6.28,2,8,5.91s2.73,10.32,2.77,19c.09,8.32-.68,14.59-2.32,18.73S885,896,881.3,896Zm4-25c0-7.49-.45-12.59-1.09-15.31s-1.77-4-3.18-4-2.45,1.22-3.09,3.59-1,7.63-.91,15.82c.09,12.77,1.55,19.18,4.32,19.13S885.34,883.84,885.25,871Z" transform="translate(-35 -23)" style="fill:#fff"/><path id="text4165" d="M1042.7,895.39l-.41-48.59,6.23,0,.46,48.59-6.28,0Zm29.64.63c-3.64.05-6.32-2-8-6.09s-2.64-10.31-2.68-18.77c-.18-16.68,3.27-25,10.22-25.09,3.59,0,6.32,2,8.09,5.91s2.69,10.32,2.78,19c0,8.32-.73,14.59-2.32,18.73s-4.32,6.27-8.09,6.31Zm4-25q-.06-11.24-1.09-15.31c-.68-2.68-1.73-4-3.18-4s-2.45,1.22-3.09,3.59-1,7.63-.91,15.82c.14,12.77,1.55,19.18,4.32,19.13S1076.43,883.84,1076.29,871Z" transform="translate(-35 -23)" style="fill:#fff"/><path id="path2510" d="M966.89,112C508.17,112,136,484.17,136,942.89c0,221.85,87.09,423.53,229,572.62H1569.1c141.81-149.09,228.9-350.77,228.9-572.62C1798,484.17,1425.6,112,966.89,112ZM1889,955c0,508.94-413.08,922-922,922S45,1464,45,955,458,33,967,33s922,413.08,922,922Z" transform="translate(-35 -23)" style="fill:#333;stroke:#000;stroke-linecap:square;stroke-miterlimit:2.766200065612793;stroke-width:20px;fill-rule:evenodd"/><path id="path3167" d="M971,346.58C631.76,346.58,356.36,622,356.36,961.2c0,247.82,147,461.49,358.53,558.67H720l164.91-292H1055.2l166.77,292h5.14C1438.56,1422.69,1585.6,1209,1585.6,961.2,1585.6,622,1310.2,346.58,971,346.58Z" transform="translate(-35 -23)" style="fill:none;stroke:#000;stroke-linecap:square;stroke-miterlimit:2.766200065612793;stroke-width:10px"/><path id="path4153" d="M361,956.93H1573" transform="translate(-35 -23)" style="fill:none;stroke:#fff;stroke-miterlimit:2.766200065612793;stroke-width:10px"/><path id="path4247" d="M759.44,1133.47h414.35m75,0h303.86m-1171.43,0H682.94" transform="translate(-35 -23)" style="fill:none;stroke:#fff;stroke-miterlimit:2.766200065612793;stroke-width:9px"/><path id="path4245" d="M1177.29,1045H1573m-749.12,0h286.86M361,1045H757.3" transform="translate(-35 -23)" style="fill:none;stroke:#fff;stroke-miterlimit:2.766200065612793;stroke-width:10px"/><path id="path4378" d="M1363.15,1356.19,973.61,959.84l582.63,153.59M567.08,1356.19,956.61,959.84,374,1113.43" transform="translate(-35 -23)" style="fill:none;stroke:#fff;stroke-miterlimit:2.766200065612793;stroke-width:10px"/><path id="flowRoot4463" d="M1121.06,1071.7V1017h7v54.68Zm33.32,1c-4.09,0-7-2.32-9-6.91s-2.82-11.68-2.82-21.18q0-28.15,11.77-28.13c4,0,7,2.22,9,6.72s3,11.64,3,21.41c0,9.36-1,16.41-2.82,21.05S1158.61,1072.7,1154.38,1072.7Zm4.73-28.09c0-8.45-.36-14.18-1.14-17.23s-1.91-4.54-3.5-4.54-2.77,1.32-3.54,4-1.14,8.59-1.14,17.77c0,14.41,1.55,21.59,4.68,21.59S1159.11,1059,1159.11,1044.61Z" transform="translate(-35 -23)" style="fill:#fff"/><path id="path3232" d="M960.25,969.82c-7.59,37-3.45,106.15-23.14,109.93s-19.63-1.37-45.31-19.14-51.5-45.09-77.41-82.27H788.12c47,74.59,93.81,118.45,140.31,133.68v106.91h77V1110.61h.14v.55c47-16.32,93.81-61.28,140.36-132.82h-26.18c-25,34.68-50.18,61.27-75.41,79.41s-29.95,25.36-47.45,22-16.19-58.27-21-96.43c-.64-4.81-1.28-9.36-2.14-13.5Z" transform="translate(-35 -23)" style="stroke:#000;stroke-linecap:square;stroke-miterlimit:2.766200065612793;stroke-width:9px;fill-rule:evenodd"/><rect id="rect3175" x="489.53" y="917.49" width="301.69" height="34.2" rx="17.1" style="fill:#c33;stroke:#c33;stroke-linecap:square;stroke-miterlimit:2.766200065612793;stroke-width:10px"/><rect id="rect3177" x="1072.75" y="917.49" width="301.69" height="34.2" rx="17.1" style="fill:#c33;stroke:#c33;stroke-linecap:square;stroke-miterlimit:2.766200065612793;stroke-width:10px"/><path id="path3179" d="M1005,970.5a38.33,38.33,0,0,1-76.61,2.5c0-.83,0-1.67,0-2.5A38.33,38.33,0,0,1,1005,968C1005,968.83,1005,969.67,1005,970.5Z" transform="translate(-35 -23)" style="fill:#c33;stroke:#000;stroke-linecap:square;stroke-miterlimit:2.766200065612793;stroke-width:0.5186625123023987px;fill-rule:evenodd"/><path id="path4095" d="M737.85,1484.42c9.13-15.73,46-80.77,82-144.59l65.45-116,81.68.23,81.68.23,81.86,144.36L1212.43,1513H721.3Z" transform="translate(-35 -23)"/><path id="path4139" d="M243.77,955.7h90.9" transform="translate(-35 -23)" style="fill:none;stroke:#fff;stroke-linecap:round;stroke-miterlimit:2.766200065612793;stroke-width:15px"/><path id="path4141" d="M1600.78,955.7h90.91" transform="translate(-35 -23)" style="fill:none;stroke:#fff;stroke-linecap:round;stroke-miterlimit:2.766200065612793;stroke-width:15px"/><path id="path4143" d="M399.9,662.08l-78.72-45.46" transform="translate(-35 -23)" style="fill:none;stroke:#fff;stroke-linecap:round;stroke-miterlimit:2.766200065612793;stroke-width:15px"/><path id="path4145" d="M1531.24,662.08,1610,616.62" transform="translate(-35 -23)" style="fill:none;stroke:#fff;stroke-linecap:round;stroke-miterlimit:2.766200065612793;stroke-width:15px"/><path id="path4147" d="M967.93,228v90.91" transform="translate(-35 -23)" style="fill:none;stroke:#fff;stroke-linecap:square;stroke-miterlimit:2.766200065612793;stroke-width:15px"/><path id="path4149" d="M1347,337.72l-45.45,78.73" transform="translate(-35 -23)" style="fill:none;stroke:#fff;stroke-linecap:round;stroke-miterlimit:2.766200065612793;stroke-width:15px"/><path id="path4151" d="M582.08,337.72l45.45,78.73" transform="translate(-35 -23)" style="fill:none;stroke:#fff;stroke-linecap:round;stroke-miterlimit:2.766200065612793;stroke-width:15px"/><path id="flowRoot4471" d="M771.53,1071.7V1017h7v54.68Zm33.32,1c-4.1,0-7.05-2.32-9-6.91s-2.82-11.68-2.82-21.18q0-28.15,11.78-28.13c4,0,7,2.22,9,6.72s3,11.64,3,21.41c0,9.36-1,16.41-2.82,21.05S809.07,1072.7,804.85,1072.7Zm4.72-28.09c0-8.45-.36-14.18-1.13-17.23s-1.91-4.54-3.5-4.54-2.78,1.32-3.55,4-1.14,8.59-1.14,17.77c0,14.41,1.55,21.59,4.69,21.59S809.57,1059,809.57,1044.61Z" transform="translate(-35 -23)" style="fill:#fff"/><path id="flowRoot4479" d="M1185.15,1159.24v-1.09q14.38-23.79,14.37-37.54a10.81,10.81,0,0,0-1.91-6.68,6.37,6.37,0,0,0-5.18-2.5,15.76,15.76,0,0,0-6.14,1.82V1106a18.81,18.81,0,0,1,7.91-2,11.3,11.3,0,0,1,9.18,4.09c2.23,2.73,3.36,6.45,3.36,11.23a39,39,0,0,1-2.68,13.36,175,175,0,0,1-9,19.59h12.77v7Zm41.91,1c-4.09,0-7-2.31-9-6.9s-2.82-11.69-2.82-21.19q0-28.15,11.77-28.13c4,0,7,2.23,9,6.73s3,11.63,3,21.4c0,9.37-1,16.41-2.82,21S1231.29,1160.24,1227.06,1160.24Zm4.73-28.09c0-8.45-.36-14.18-1.14-17.22s-1.91-4.55-3.5-4.55-2.77,1.32-3.54,4-1.14,8.59-1.14,17.77q0,21.61,4.68,21.6T1231.79,1132.15Z" transform="translate(-35 -23)" style="fill:#fff"/><path id="flowRoot4489" d="M696.53,1159v-1.09q14.38-23.81,14.36-37.55a10.74,10.74,0,0,0-1.91-6.68,6.35,6.35,0,0,0-5.18-2.5,15.89,15.89,0,0,0-6.13,1.82v-7.27a18.64,18.64,0,0,1,7.9-2,11.35,11.35,0,0,1,9.19,4.09c2.22,2.73,3.36,6.46,3.36,11.23a39,39,0,0,1-2.68,13.36,176.45,176.45,0,0,1-9,19.59h12.78v7Zm41.91,1c-4.09,0-7.05-2.32-9-6.91s-2.81-11.68-2.81-21.18c0-18.77,3.9-28.14,11.77-28.14,4,0,7,2.23,9,6.73s2.95,11.64,2.95,21.41c0,9.36-.95,16.41-2.82,21S742.66,1160,738.44,1160Zm4.72-28.09c0-8.46-.36-14.18-1.13-17.23s-1.91-4.54-3.5-4.54-2.77,1.31-3.55,4-1.13,8.59-1.13,17.77c0,14.41,1.54,21.59,4.68,21.59S743.16,1146.34,743.16,1131.93Z" transform="translate(-35 -23)" style="fill:#fff"/><path id="path4500" d="M836.94,248l15.77,89.54" transform="translate(-35 -23)" style="fill:none;stroke:#fff;stroke-linecap:square;stroke-miterlimit:2.766200065612793;stroke-width:10px"/><path id="path4502" d="M1098.93,248l-15.82,89.54" transform="translate(-35 -23)" style="fill:none;stroke:#fff;stroke-linecap:square;stroke-miterlimit:2.766200065612793;stroke-width:10px"/><path id="path4504" d="M710.44,284.58,741.53,370" transform="translate(-35 -23)" style="fill:none;stroke:#fff;stroke-linecap:square;stroke-miterlimit:2.766200065612793;stroke-width:10px"/><path id="path4506" d="M1221.06,284.58,1190,370" transform="translate(-35 -23)" style="fill:none;stroke:#fff;stroke-linecap:square;stroke-miterlimit:2.766200065612793;stroke-width:10px"/><path id="path4508" d="M866.8,133h199.81l-57.54,206.54H984.66V148.27H947.57l2.54,191.22h-21.9L866.8,133Z" transform="translate(-35 -23)" style="fill:#c33;stroke:#000;stroke-miterlimit:2.766200065612793;stroke-width:0.3457750082015991px;fill-rule:evenodd"/><circle cx="941" cy="1678" r="152.5" style="fill:#c33;stroke:#c33;stroke-miterlimit:2.766200065612793"/><circle cx="941.5" cy="1677.5" r="92" style="fill:#333;stroke:#333;stroke-miterlimit:2.766200065612793"/></svg>