<svg id="Layer_1" data-name="Layer 1" xmlns="http://www.w3.org/2000/svg" viewBox="0 0 1830.7 1903.55"><path d="M1188,921.79c0,126.75-102.74,229.51-229.49,229.51h-2.26c-1.59,0-3.16,0-4.73-.11C828,1147.51,729,1046.21,729,921.79c0-1,0-2,0-2.94,0-2.37.09-4.72.19-7.07,5.13-119.72,102-215.68,222.09-219.36,1.72,0,3.44-.09,5.17-.11h2c124.66,0,226.1,99.39,229.4,223.26,0,.47,0,1,0,1.42C1188,918.57,1188,920.18,1188,921.79Z" transform="translate(-47.81 -10)" style="fill:none;stroke:#000;stroke-miterlimit:10;stroke-width:15px"/><rect x="881.13" y="245.38" width="46" height="427.43" style="fill:#069;stroke:#069;stroke-miterlimit:10;stroke-width:50px"/><path d="M1022.93,246.6c1.41,4.31-1.61,8.8-5.89,8.79l-68.35-.27-68.36-.27c-4.28,0-7.25-4.54-5.82-8.84l36.08-107.75,33.1-98.87a6.08,6.08,0,0,1,11.7,0l32.32,99.12Z" transform="translate(-47.81 -10)" style="fill:#069;stroke:#069;stroke-miterlimit:10;stroke-width:50px"/><rect x="483.9" y="704.69" width="46" height="427.43" transform="translate(-458.06 1417.58) rotate(-90.14)" style="fill:#069;stroke:#069;stroke-miterlimit:10;stroke-width:50px"/><path d="M284.23,848c4.3-1.41,8.81,1.59,8.8,5.87l-.1,68.36-.1,68.35c0,4.28-4.52,7.27-8.82,5.84l-107.85-35.8L77.22,927.72a6.09,6.09,0,0,1,0-11.71l99-32.56Z" transform="translate(-47.81 -10)" style="fill:#069;stroke:#069;stroke-miterlimit:10;stroke-width:50px"/><rect x="1387.5" y="709.42" width="46" height="427.43" transform="translate(2298.59 -488.93) rotate(90.52)" style="fill:#069;stroke:#069;stroke-miterlimit:10;stroke-width:50px"/><path d="M1632.34,996.14c-4.32,1.36-8.79-1.69-8.73-6l.89-68.35.89-68.35c0-4.28,4.6-7.22,8.88-5.74l107.43,37,98.56,34a6.08,6.08,0,0,1-.16,11.7l-99.41,31.42Z" transform="translate(-47.81 -10)" style="fill:#069;stroke:#069;stroke-miterlimit:10;stroke-width:50px"/><path d="M892.43,1652.47a4.35,4.35,0,0,1,4.14-5.8l48.63-.15,48.62-.16a4.36,4.36,0,0,1,4.19,5.77L972.91,1723l-23,65a4.43,4.43,0,0,1-8.32,0l-23.51-64.9Z" transform="translate(-47.81 -10)" style="stroke:#000;stroke-miterlimit:10;stroke-width:30px"/><path d="M1676.33,1898.27c-3.07,1.06-6.34-1-6.39-4.06l-.84-48.62-.84-48.61c-.06-3,3.14-5.23,6.24-4.27l77.85,24,71.41,22.06a4.32,4.32,0,0,1,.14,8.32l-70.61,24.47Z" transform="translate(-47.81 -10)" style="stroke:#000;stroke-miterlimit:10;stroke-width:30px"/><rect x="1330.51" y="986.95" width="71.99" height="668.96" transform="translate(3219.26 1274.79) rotate(134.86)" style="fill:#069;stroke:#069;stroke-miterlimit:10;stroke-width:50px"/><path d="M1535,1645.81c-6.33-3.2-8-11.5-3.25-16.23l75.76-75.54,75.76-75.54c4.74-4.73,13-3,16.22,3.29l79.73,159,73.15,145.86a9.53,9.53,0,0,1-13,12.94L1693.73,1726Z" transform="translate(-47.81 -10)" style="fill:#069;stroke:#069;stroke-miterlimit:10;stroke-width:50px"/><line x1="897.94" y1="1151.46" x2="897.88" y2="1179.46" style="fill:none;stroke:#000;stroke-miterlimit:10;stroke-width:50px"/><line x1="897.73" y1="1240.35" x2="896.9" y2="1575.24" style="fill:none;stroke:#000;stroke-miterlimit:10;stroke-width:50px;stroke-dasharray:60.88991165161133,60.88991165161133"/><line x1="896.82" y1="1605.69" x2="896.75" y2="1633.69" style="fill:none;stroke:#000;stroke-miterlimit:10;stroke-width:50px"/><line x1="905.69" y1="1834.5" x2="933.69" y2="1834.5" style="fill:none;stroke:#000;stroke-miterlimit:10;stroke-width:50px"/><line x1="993.42" y1="1834.51" x2="1560.82" y2="1834.55" style="fill:none;stroke:#000;stroke-miterlimit:10;stroke-width:50px;stroke-dasharray:59.72721862792969,59.72721862792969"/><line x1="1590.69" y1="1834.55" x2="1618.69" y2="1834.55" style="fill:none;stroke:#000;stroke-miterlimit:10;stroke-width:50px"/><path d="M953.85,695V917h-222l-2.6-5.2c5.13-119.72,102-215.68,222.09-219.36Z" transform="translate(-47.81 -10)" style="stroke:#000;stroke-miterlimit:10;stroke-width:15px"/><path d="M1187.91,915.56l-.35,1.42H953.85V695l2.63-2.64h2C1083.17,692.3,1184.61,791.69,1187.91,915.56Z" transform="translate(-47.81 -10)" style="fill:#c33;stroke:#c33;stroke-miterlimit:10;stroke-width:15px"/><path d="M953.85,917v233.71l-2.33.49C828,1147.51,729,1046.21,729,921.79c0-1,0-2,0-2.94l2.79-1.87Z" transform="translate(-47.81 -10)" style="fill:#c33;stroke:#c33;stroke-miterlimit:10;stroke-width:15px"/><path d="M1188,921.79c0,126.75-102.74,229.51-229.49,229.51h-2.26l-2.4-.6V917h234.09C1188,918.57,1188,920.18,1188,921.79Z" transform="translate(-47.81 -10)" style="stroke:#000;stroke-miterlimit:10;stroke-width:15px"/></svg>