<svg id="Layer_1" data-name="Layer 1" xmlns="http://www.w3.org/2000/svg" viewBox="0 0 1316 1067.62"><polyline points="734.47 890.39 688.24 974.66 737.11 973.49 686.92 1060.1" style="fill:none;stroke:#000;stroke-miterlimit:10;stroke-width:30px"/><path d="M1271.34,1018.53c11.61-21.15,33.13-103.35,11.79-115.06s-77.48,51.5-89.08,72.65a44.08,44.08,0,0,0,77.29,42.41Z" transform="translate(-302 -2.45)" style="fill:#9cf;stroke:#000;stroke-miterlimit:10;stroke-width:30px"/><path d="M772.11,1018.53c11.61-21.15,33.14-103.35,11.79-115.06s-77.47,51.5-89.08,72.65a44.08,44.08,0,0,0,77.29,42.41Z" transform="translate(-302 -2.45)" style="fill:#9cf;stroke:#000;stroke-miterlimit:10;stroke-width:30px"/><line x1="55.83" y1="304.76" x2="156.25" y2="326.69" style="fill:none;stroke:#000;stroke-miterlimit:10;stroke-width:30px"/><line x1="101.34" y1="550.62" x2="187.87" y2="495.12" style="fill:none;stroke:#000;stroke-miterlimit:10;stroke-width:30px"/><path d="M844.94,236.11c-87.86,20.52-154.66,102.77-160.13,203-30.9,19.18-56.72,46.93-74.75,80.25A230.75,230.75,0,0,0,589.26,573,216.26,216.26,0,0,1,516,519.8a28.51,28.51,0,0,1-2.77,2L413.89,585.5a30.81,30.81,0,0,1-42.58-9.3l-1.74-2.74a30.8,30.8,0,0,1,9.3-42.56l99.29-63.69a22.36,22.36,0,0,1,2.16-1.25,216.3,216.3,0,0,1-20-102.73,31.79,31.79,0,0,1-3.82-.58L341.24,337.48a30.82,30.82,0,0,1-23.52-36.68l.69-3.17a30.8,30.8,0,0,1,36.67-23.52l115.24,25.16c.95.21,1.9.46,2.81.75a216.06,216.06,0,0,1,61.79-89.83L466.3,116.1a30.8,30.8,0,0,1,6.74-43l2.63-1.91a30.8,30.8,0,0,1,43,6.73l69.5,95.31a23.66,23.66,0,0,1,1.51,2.28,216.22,216.22,0,0,1,99.7-18.11c0-.15.05-.3.08-.43L714.67,41.68a30.82,30.82,0,0,1,36.68-23.52l3.16.7A30.81,30.81,0,0,1,778,55.54L752.91,170.59A216.13,216.13,0,0,1,844.94,236.11Z" transform="translate(-302 -2.45)" style="fill:#fc6;stroke:#000;stroke-miterlimit:10;stroke-width:30px"/><path d="M1500.65,694.41c0,86.31-74.5,156.48-167.07,158.11-1.1,0-2.2,0-3.31,0H785.49c-112.32,0-203.39-99-203.39-221.22A239.57,239.57,0,0,1,589.26,573a230.75,230.75,0,0,1,20.8-53.62c18-33.32,43.85-61.07,74.75-80.25a190.14,190.14,0,0,1,100.68-29c2.27,0,4.54,0,6.78.12,25.19-29.95,59.28-54.8,99.3-72.22a329.65,329.65,0,0,1,70.74-21.58,355.85,355.85,0,0,1,65.53-6c156.1,0,282.63,99.92,282.63,223.2,0,1.23,0,2.48,0,3.7a183,183,0,0,1,19.84-1.06c82.09,0,150.63,53.9,166.78,125.65A147.84,147.84,0,0,1,1500.65,694.41Z" transform="translate(-302 -2.45)" style="fill:#9cf;stroke:#000;stroke-miterlimit:10;stroke-width:30px"/><path d="M1603,515.45c0,66.19-43.8,122.88-106,146.45-16.15-71.75-84.69-125.65-166.78-125.65a183,183,0,0,0-19.84,1.06c0-1.22,0-2.47,0-3.7,0-123.28-126.53-223.2-282.63-223.2a355.85,355.85,0,0,0-65.53,6A329.65,329.65,0,0,0,891.57,338c-40,17.42-74.11,42.27-99.3,72.22-2.24-.08-4.51-.12-6.78-.12a190.14,190.14,0,0,0-100.68,29c5.47-100.2,72.27-182.45,160.13-203a188.45,188.45,0,0,1,42.91-4.94c2.27,0,4.54,0,6.78.12a234.47,234.47,0,0,1,19.15-20.19c51.82-48.7,129.55-79.65,216.41-79.65,156.1,0,282.63,99.93,282.63,223.2,0,1.24,0,2.49,0,3.71a183.15,183.15,0,0,1,19.85-1.06C1526.72,357.3,1603,428.1,1603,515.45Z" transform="translate(-302 -2.45)" style="fill:#9cf;stroke:#000;stroke-miterlimit:10;stroke-width:30px"/></svg>