<svg id="Layer_2" data-name="Layer 2" xmlns="http://www.w3.org/2000/svg" viewBox="0 0 1803 1018.95"><path d="M977,905.69" transform="translate(-75.5 -395.96)" style="fill:none;stroke:#000;stroke-linejoin:round;stroke-width:5px"/><polygon points="1801.5 1.5 340.92 483.55 1.5 275.92 1801.5 1.5" style="fill:#c33;stroke:#c33;stroke-linejoin:round;stroke-width:3px"/><polygon points="1801.5 1.5 1084.75 947.54 845.98 791.98 530.49 586.46 555.38 574.99 1801.5 1.5" style="fill:#c33;stroke:#c33;stroke-linejoin:round;stroke-width:3px"/><path d="M482.84,1039.34,418.41,880.43l1433.77-473.2L630.26,969.59l-24.9,11.46a1.51,1.51,0,0,0-.87,1.46L631,1404.8Z" transform="translate(-75.5 -395.96)" style="fill:#f66"/><path d="M1827.37,417,629.63,968.23l-24.9,11.46A3,3,0,0,0,603,982.6l25.93,413.09L484.23,1038.77,420.4,881.35,1827.37,417M1877,397.46,416.42,879.51l65,160.39,151.62,374L606,982.42,630.88,971,1877,397.46Z" transform="translate(-75.5 -395.96)" style="fill:#f66"/><polygon points="845.98 791.98 557.57 1017.95 530.49 586.46 845.98 791.98" style="fill:#900;stroke:#900;stroke-linecap:round;stroke-linejoin:round;stroke-width:2px"/></svg>