<svg id="Layer_2" data-name="Layer 2" xmlns="http://www.w3.org/2000/svg" viewBox="0 0 1847.91 1547.5"><path d="M1090.61,432.25l-.55,124.63a31.15,31.15,0,0,1-15.48,4.12l-227-1a36.26,36.26,0,0,1-13.33-2.63l.55-126.25Z" transform="translate(-32.55 -176.25)" style="fill:#c33;stroke:#000;stroke-miterlimit:10;stroke-width:15px"/><rect x="939.37" y="345.76" width="47.85" height="124.01" transform="translate(518.72 1193) rotate(-89.75)" style="stroke:#000;stroke-miterlimit:10;stroke-width:15px"/><path d="M1867.44,572.28,1853,592.87a30.18,30.18,0,0,1-42.07,7.28L1336.57,266a30.18,30.18,0,0,1-7.29-42.06l14.49-20.59a30.18,30.18,0,0,1,42.06-7.29L1475.14,259,1759.3,459.18l100.85,71A30.18,30.18,0,0,1,1867.44,572.28Z" transform="translate(-32.55 -176.25)" style="stroke:#000;stroke-miterlimit:10;stroke-width:15px"/><path d="M571.86,196.74l14.35,20.69a30.18,30.18,0,0,1-7.62,42L101.78,590a30.17,30.17,0,0,1-42-7.62L45.43,561.7a30.17,30.17,0,0,1,7.61-42l89.79-62.24,285.65-198,101.38-70.28A30.18,30.18,0,0,1,571.86,196.74Z" transform="translate(-32.55 -176.25)" style="stroke:#000;stroke-miterlimit:10;stroke-width:15px"/><circle cx="1334.41" cy="557.05" r="63.47" style="fill:none;stroke:#000;stroke-miterlimit:10;stroke-width:15px"/><path d="M1794.87,682.94,1499,1096.34A160.79,160.79,0,0,0,1469,1189l-2.53,384a41.72,41.72,0,0,1-12.11,29.1l-99.42,100.07a47.84,47.84,0,0,1-34.19,14.15L593.65,1713a62.91,62.91,0,0,1-44.6-18.8l-87.33-88.79A71.49,71.49,0,0,1,441.19,1555l1.7-384.3a118.52,118.52,0,0,0-21.12-68l-297-428.29a25.64,25.64,0,0,1,6.33-35.6L347.7,486.58l12.12-8.51,12.77-9,11.87-8.34L610.61,301.87a26.54,26.54,0,0,1,37,6.45L811.16,541a44.76,44.76,0,0,0,36.4,19l227,1a37.51,37.51,0,0,0,30.65-15.64L1272.78,312a25.34,25.34,0,0,1,35.28-5.87l481.06,342.45A24.63,24.63,0,0,1,1794.87,682.94Z" transform="translate(-32.55 -176.25)" style="fill:#333;stroke:#333;stroke-miterlimit:10;stroke-width:15px"/><path d="M402.24,223.65l12.42,18.1a32.53,32.53,0,0,1,5,11.81l-50.61,35.09-57.53,39.88-57.78,40.06-57.91,40.14L134,451.6a32.39,32.39,0,0,1-10.93-10L110.7,423.5a32.47,32.47,0,0,1,8.42-45.15l37.16-25.47,58-39.75,58-39.76,58.26-39.93,26.58-18.22A32.45,32.45,0,0,1,402.24,223.65Z" transform="translate(-32.55 -176.25)" style="fill:#c33;stroke:#000;stroke-miterlimit:10;stroke-width:15px"/><line x1="297.97" y1="57.19" x2="336.53" y2="112.4" style="fill:#c33;stroke:#000;stroke-miterlimit:10;stroke-width:15px"/><line x1="239.72" y1="97.12" x2="279" y2="152.28" style="fill:#c33;stroke:#000;stroke-miterlimit:10;stroke-width:15px"/><line x1="181.72" y1="136.88" x2="221.23" y2="192.33" style="fill:#c33;stroke:#000;stroke-miterlimit:10;stroke-width:15px"/><line x1="123.73" y1="176.63" x2="163.31" y2="232.48" style="fill:#c33;stroke:#000;stroke-miterlimit:10;stroke-width:15px"/><path d="M1787,436l-12.71,17.89a32.4,32.4,0,0,1-9.35,8.8l-50.38-35.42L1657.33,387l-57.52-40.43L1542.16,306l-61.55-43.26a32.34,32.34,0,0,1,5.61-13.7l12.72-17.89a32.46,32.46,0,0,1,45.28-7.66l36.73,26.1,57.3,40.73,57.31,40.74L1753.13,372l26.26,18.67A32.46,32.46,0,0,1,1787,436Z" transform="translate(-32.55 -176.25)" style="fill:#c33;stroke:#000;stroke-miterlimit:10;stroke-width:15px"/><line x1="1720.58" y1="195.76" x2="1682.05" y2="250.99" style="fill:#c33;stroke:#000;stroke-miterlimit:10;stroke-width:15px"/><line x1="1663.01" y1="154.85" x2="1624.78" y2="210.74" style="fill:#c33;stroke:#000;stroke-miterlimit:10;stroke-width:15px"/><line x1="1605.7" y1="114.11" x2="1567.26" y2="170.31" style="fill:#c33;stroke:#000;stroke-miterlimit:10;stroke-width:15px"/><line x1="1548.4" y1="73.38" x2="1509.61" y2="129.79" style="fill:#c33;stroke:#000;stroke-miterlimit:10;stroke-width:15px"/><circle cx="520.68" cy="553.32" r="63.47" style="fill:none;stroke:#000;stroke-miterlimit:10;stroke-width:15px"/><path d="M1052.54,1311.79a95.69,95.69,0,1,1-95.26-96.11A95.27,95.27,0,0,1,1052.54,1311.79Z" transform="translate(-32.55 -176.25)" style="fill:none;stroke:#fff;stroke-miterlimit:10;stroke-width:15px"/><path d="M958.12,1136.59c-95.19-.42-172.7,80.55-173.15,180.85a190.62,190.62,0,0,0,7.09,52.57c21.05,74.78,86.6,129.47,164.45,129.81,77.13.34,142.66-52.76,165-126.29a190.2,190.2,0,0,0,8.17-54.56C1130.1,1218.67,1053.3,1137,958.12,1136.59Zm-1.69,270.47a95.7,95.7,0,1,1,74.67-35.33A95.52,95.52,0,0,1,956.43,1407.06Z" transform="translate(-32.55 -176.25)" style="fill:#fff;stroke:#fff;stroke-miterlimit:10;stroke-width:15px"/><circle cx="923.82" cy="1134.63" r="27.83" style="fill:none;stroke:#fff;stroke-miterlimit:10;stroke-width:15px"/><path d="M1207,1502.88c-257,266.41-499-.25-499-.25L790,1370l2.11,0c21.05,74.78,86.6,129.47,164.45,129.81,77.13.34,142.66-52.76,165-126.29Z" transform="translate(-32.55 -176.25)" style="fill:#fff;stroke:#fff;stroke-miterlimit:10;stroke-width:15px"/><path d="M1587.41,755.78,1431.37,980a7.68,7.68,0,0,1-10.68,1.92l-89.41-62.22-.09-.07-127.38-88.62-3.51-2.45-83.88-58.36a7.66,7.66,0,0,1-1.91-10.68l156-224.25a7.67,7.67,0,0,1,10.68-1.92L1585.49,745.1A7.67,7.67,0,0,1,1587.41,755.78Z" transform="translate(-32.55 -176.25)" style="fill:#fff;stroke:#fff;stroke-miterlimit:10;stroke-width:15px"/><path d="M897.31,1111.66c-62.41,14.53-95.8,57.33-108.13,76.8a7.48,7.48,0,0,1-12.41.3L585.12,918.46l2.69-1.87,127.63-88.44.76-.52,186.58,269.71A9.28,9.28,0,0,1,897.31,1111.66Z" transform="translate(-32.55 -176.25)" style="fill:#fff;stroke:#fff;stroke-miterlimit:10;stroke-width:15px"/><path d="M1331.19,919.67l-190.09,266a9.27,9.27,0,0,1-15.33-.3c-34.8-53.81-86.37-70.76-108.86-75.77a7.47,7.47,0,0,1-4.47-11.57L1200.3,828.6l3.51,2.45Z" transform="translate(-32.55 -176.25)" style="fill:#fff;stroke:#fff;stroke-miterlimit:10;stroke-width:15px"/><path d="M805,766.11,716.2,827.63l-.76.52L587.81,916.59l-2.69,1.87L500.3,977.23a7.65,7.65,0,0,1-10.67-1.94L334,750.73A7.66,7.66,0,0,1,336,740.06L640.64,528.94a7.67,7.67,0,0,1,10.68,1.93l155.6,224.57A7.68,7.68,0,0,1,805,766.11Z" transform="translate(-32.55 -176.25)" style="fill:#fff;stroke:#fff;stroke-miterlimit:10;stroke-width:15px"/><rect x="1283.33" y="542.24" width="384.02" height="62.41" transform="translate(560.3 -916.84) rotate(34.87)" style="fill:#fff;stroke:#fff;stroke-miterlimit:10;stroke-width:15px"/><rect x="251.86" y="541.29" width="384.02" height="62.41" transform="translate(-279.41 177.94) rotate(-34.67)" style="fill:#fff;stroke:#fff;stroke-miterlimit:10;stroke-width:15px"/></svg>