<svg id="Layer_2" data-name="Layer 2" xmlns="http://www.w3.org/2000/svg" viewBox="0 0 1875.28 1094.7"><path d="M1709.13,736.42c-7.44,18-14.25,39.46-20.25,63.9l-103.66,111.9a778.81,778.81,0,0,0-90.89-12.92s-14.7,0-45.24-43.91c-1.48-2.13-3.06-4.31-4.76-6.52l171-123.52Z" transform="translate(-17.01 -414.5)" style="fill:#900;stroke:#900;stroke-miterlimit:10;stroke-width:10px"/><path d="M1747.07,1050.44" transform="translate(-17.01 -414.5)" style="fill:none;stroke:#000;stroke-miterlimit:10;stroke-width:2px"/><path d="M1765.9,996c-28.1-6.28-28.44,29.93-31.83,68.77-2.21,25.3,4.75,43.79,9.87,53.62.33.64.66,1.25,1,1.8-1.73,2.79-3.31,5.37-4.69,7.62-.82,1.33-1.55,2.57-2.19,3.66-7.92,13.51-32.68,37.14-32.68,37.14-73.34,62.81-113.77,71.79-113.77,71.79s-161.71,55.73-410.5,22q-28.62-3.87-55.37-8.14l116.44-32.39C1116.62,1100.26,945.86,1183,945.86,1183l-56.62,19.2c-80.69-23.66-139.41-48.16-183.12-68.17-84.81-38.84-376.57-109.77-418.41-119.91-11.11-2.68-20-9.18-27.22-17.27,80.53-26.8,178.75-58.72,178.75-58.72s-43-55.73-152.66-10.13l-49.89,20.9c-1.51-5.54-2.13-9.08-2.13-9.08L152,419.69s67.85-1.69,88.2,5.06S267.35,445,267.35,445,322.77,619,368,710.16,476.56,819.93,476.56,819.93c133.44,27,175.28,6.75,175.28,6.75s223.91-87.81,361.88-109.77,221.64-3.38,273.66,11.82a160.73,160.73,0,0,1,28.24,11.77c46.22,24,101.25,72.32,128.71,108.37,1.7,2.21,3.28,4.39,4.76,6.52a231.29,231.29,0,0,0,22.11,27.7c15.56,16.21,23.13,16.21,23.13,16.21a778.81,778.81,0,0,1,90.89,12.92c53.79,11,92.88,25.85,119.09,38.33,0,0,36.52,20.57,53.53,35.94A48.21,48.21,0,0,1,1764,993,23,23,0,0,1,1765.9,996Z" transform="translate(-17.01 -414.5)" style="fill:#c33;stroke:#c33;stroke-miterlimit:10;stroke-width:10px"/><path d="M1747.35,1127.72c.21-.15.66-.52.53-.5l-.8.59A1.07,1.07,0,0,1,1747.35,1127.72Z" transform="translate(-17.01 -414.5)" style="fill:#202020"/><path d="M1748.59,1126.32a14.81,14.81,0,0,0-1.84,1.28c.8-.53.49-.28,1.43-.92.12,0-.2.27-.5.48.21-.14-.12.2.39-.16.56-.53.55-.6,0-.28A5.67,5.67,0,0,1,1748.59,1126.32Z" transform="translate(-17.01 -414.5)" style="fill:#202020"/><path d="M1746.9,1120.87l0,.17A.61.61,0,0,0,1746.9,1120.87Z" transform="translate(-17.01 -414.5)" style="fill:#202020"/><path d="M1745.21,1116.7a1.3,1.3,0,0,0,.07-.33A1.53,1.53,0,0,0,1745.21,1116.7Z" transform="translate(-17.01 -414.5)" style="fill:#202020"/><path d="M1745.06,1114.1v.17C1745.08,1114.08,1745.08,1114,1745.06,1114.1Z" transform="translate(-17.01 -414.5)" style="fill:#202020"/><path d="M1746.9,1120.87l.11-.45A.76.76,0,0,0,1746.9,1120.87Z" transform="translate(-17.01 -414.5)" style="fill:#202020"/><path d="M1746.27,1127.21a.92.92,0,0,0,.24-.11l-.11,0Z" transform="translate(-17.01 -414.5)" style="fill:#202020"/><path d="M1748.23,1121.54l0,0,.26-.34Z" transform="translate(-17.01 -414.5)" style="fill:#202020"/><path d="M1749.07,1122.6s-.6.56-.87.82a2,2,0,0,1,.45-.37Z" transform="translate(-17.01 -414.5)" style="fill:#202020"/><path d="M1748.93,1125.05l.11,0Z" transform="translate(-17.01 -414.5)" style="fill:#202020"/><path d="M1747.82,1120.48l.16-.32Z" transform="translate(-17.01 -414.5)" style="fill:#202020"/><path d="M1748,1122.61v0Z" transform="translate(-17.01 -414.5)" style="fill:#202020"/><path d="M1748.94,1126.69v0c0,.16,0,.32.08.47Z" transform="translate(-17.01 -414.5)" style="fill:#202020"/><path d="M1744.43,1110.66v0C1744.46,1110.55,1744.45,1110.56,1744.43,1110.66Z" transform="translate(-17.01 -414.5)" style="fill:#202020"/><path d="M1737.22,1122.74c.68.33.66.77,1.44,1.1C1738.38,1123.67,1737.71,1122.87,1737.22,1122.74Z" transform="translate(-17.01 -414.5)" style="fill:#202020"/><path d="M1746.35,1127.13l0,0S1746.32,1127.14,1746.35,1127.13Z" transform="translate(-17.01 -414.5)" style="fill:#202020"/><path d="M1738.66,1123.84h0l.07,0Z" transform="translate(-17.01 -414.5)" style="fill:#202020"/><path d="M1742.6,1113.69c0,.23.05.41.07.59C1742.66,1114.13,1742.64,1114,1742.6,1113.69Z" transform="translate(-17.01 -414.5)" style="fill:#202020"/><path d="M1744,1113.78l0-.17C1743.93,1113.74,1743.94,1113.77,1744,1113.78Z" transform="translate(-17.01 -414.5)" style="fill:#202020"/><path d="M1742.17,1116.68c0-.08-.06-.25-.06,0l0,.15C1742.13,1116.6,1742.12,1116.5,1742.17,1116.68Z" transform="translate(-17.01 -414.5)" style="fill:#202020"/><path d="M1741.54,1117.72l.07.22v-.1Z" transform="translate(-17.01 -414.5)" style="fill:#202020"/><path d="M1747.21,1123.14c-.12.26-.25.55-.37.83C1747.14,1123.31,1747.28,1123.07,1747.21,1123.14Z" transform="translate(-17.01 -414.5)" style="fill:#202020"/><path d="M1746.66,1126.94l-.31.19h.05Z" transform="translate(-17.01 -414.5)" style="fill:#202020"/><path d="M1743.74,1126.89l0-.18C1743.73,1126.83,1743.74,1126.89,1743.74,1126.89Z" transform="translate(-17.01 -414.5)" style="fill:#202020"/><path d="M1745.25,1123.57l.18-.13Z" transform="translate(-17.01 -414.5)" style="fill:#202020"/><path d="M1743.71,1126.94c-.09-.4-.14-.64-.18-.82l.06.31Z" transform="translate(-17.01 -414.5)" style="fill:#202020"/><path d="M1746.83,1124h0Z" transform="translate(-17.01 -414.5)" style="fill:#202020"/><path d="M1747.91,1121.78l-.63,1.84a10.62,10.62,0,0,1,.48-1.47c-.11.31-.56,1.41-.57,1.37l.21-.52c-.43,1-.1.06-.7,1.28l.13-.3-.75,1.66s-.45.77-.08,0a4,4,0,0,0,.29-.55l-.2.35c.52-1.13.24-.4.64-1.24-.22.38-.79,1.34-.69,1,.58-1.12.31-.39.76-1.38l-.15.42c.82-1.76,0,.12.85-1.76.14-.32-.33.58-.2.25l-.87,1.56c-.79,1.16,1.58-2.84.64-1.32-.48.76-1.4,2.21-1,1.46l.85-1.3c0-.12-1.25,1.87-.76,1,.36-.51.35-.44.44-.59.65-1-.52.74-.57.75l.79-1.16c-.17.19-.86,1-1.14,1.28.28-.35.57-.72.83-1.08-.55.6-.09-.11.51-.82l-1,1,.6-.67c.33-.39-.6.66-1,1.07-.1.08.52-.59.81-.91-.82.89-2,2-1,.83l.33-.31c.4-.43-2.27,2.18-1.33,1.2l.21-.19c.36-.44-.93.58.84-1-1.83,1.57.73-.68-1.87,1.52,1.21-1.08,1.7-1.48,2.55-2.21l-2.07,1.63,1.46-1.17-1.58,1.23,1.76-1.39-.4.3-1.09.86c-.74.54,1-.8,1.76-1.41l-1.41,1,1.3-1c-1.66,1.21,1.68-1.24.16-.13l-1.3.94c1-.71,1-.72.5-.41l1.16-.82c.28-.21-.62.4-.65.39-.57.39-2.7,1.83-2.95,2l1.9-1.28-2.18,1.45c.18-.14,2.17-1.45,2.8-1.87-.22.13-.47.33-.71.51l1.61-1.07c-.61.42-.17.16.15,0s.51-.22-.5.44l.54-.33a12.48,12.48,0,0,1-1.15,1.15c-1.44.74-1.17.67-2.33,1.25.41-.14,1.35-.42,1.12-.17a19.19,19.19,0,0,1-1.85.7c1.13-.39.93-.19,1.78-.52a3.08,3.08,0,0,1-1.35.71,7.64,7.64,0,0,0-.9.11,6,6,0,0,0,.85-.07l.11,0c-.78.17-.12.16.33.4s.74.6-.11.47h.08a3.78,3.78,0,0,1-.91-.11c.07.15.56.2.93.49l-.38-.07a1,1,0,0,1-.13-.1s0,0,.05,0,.24.1-.09-.18c.92.66.89.64.79.53s-.26-.33.27.2l-.38-.39c-.37-.4.22.21.31.3l-.55-.58c-.2-.29,0-.22.23,0a4.89,4.89,0,0,1,.66.94c.07.16-1.49-2.87-.77-1.59l.51,1.07c-.3-.65-.27-.69-.23-.68s.06.05-.12-.62l.21.67c.3.88,0,0-.18-.76,0,.07.2.68.32,1.06.16.56-.32-1.24-.06-.3l.1.39c-.12-.47,0,.1-.24-1,.15.52-.08-.58.09.09-.26-1.36.16.6-.21-1.33.38,2,.32,1.59.18.58.1.63.11.66.24,1.51,0,0,0-.44-.2-1.52.19,1.24.12.73.09.27s-.06-.83.12.87a20.73,20.73,0,0,1-.06-2.85c.12,2.4,0,.34.11,2.8a16.27,16.27,0,0,1,0-2.65c0,.32,0,1.1,0,1.52,0-1.08.07.09.11-1.32,0,.23,0,.48,0,.7,0-.07,0,.41,0-.78v.31c0-1.41,0-2.83.09-3.76l0-.61c-.08,3.3,0,1-.07,5.09,0-.25,0-.78,0-1.51,0,.24,0,.69,0,1.55,0-.58.07-1.8.1-1.72,0,.54,0,.75-.06,1.38,0-1,.12-2.05.13-1.54,0,.32,0,.74-.05.72s.26-2.54.27-1.44c-.21,2.15,0,.76-.21,2.63l.07-.51.08-.92c0,.07.19-1.21.15-.56l-.11.7.09-.25,0-.73c.15-.87.27-2.29.26-1.69a10.76,10.76,0,0,1-.08,1.17h0c.1-.53.2-1.06.17-.58s-.29,1.89-.34,2.25c.23-1.4.12-.27.41-1.71l-.26,1.38.22-1.09c0,.38-.08.56-.21,1.24,0,.28.37-2.1.27-1.1a3.77,3.77,0,0,0-.1.4c0,.54.26-.48.2.14-.36,1.55-.13.3-.42,1.63.1-.22.6-1.57.58-1.09l0-.18c.64-2-.25,1.08.09.21-.06.12-.38,1-.3.84-.07.37.24-.34.56-.75l-.2.44c-.14.46,0,.36-.09.61a9.3,9.3,0,0,0,.49-1c-.53,1.32-.35,1-.1.76s.55-.56,0,.4a2.49,2.49,0,0,0-.23.31,3.4,3.4,0,0,1,.3-.23c.42-.63.24-.39.55-.9.26-.35.49-.59.52-.54a8.8,8.8,0,0,0-.92,1.33l.42-.57c-.73,1.13.89-1.18.44-.35l-.24.3c.15-.12.49-.47.46-.33-.52.67-.28.25-.72.79.06,0,1.1-1.08.6-.39-.17.14-.2.11-.37.26-.59.8-.43.6-.51.76v0l-.25.39.17-.21c1.53-1.47.35-.15,1.43-1a8.62,8.62,0,0,0-1.25,1.11,6.23,6.23,0,0,1-.57.58c.58-.46-.41.41.44-.24a4.62,4.62,0,0,1-.58.51,6.08,6.08,0,0,0,.69-.56c.41-.28.21,0,0,.15s-.31.38.32.08,1.39-.71,1.89-.86a4.32,4.32,0,0,1-.9.58c-.3.33-.19.34.13.21a6.89,6.89,0,0,0-.63.49c.1,0,.89-.58.6-.25-.28.17-.71.46-1,.63.27-.09.76-.35,1-.43a5.36,5.36,0,0,1-.94.58,2.45,2.45,0,0,0,1.19-.52l.2-.22a4,4,0,0,1-.68.49c-.56.31.15-.26.38-.44l.19-.06c1.35-1.06-.36,0-.36-.19l1-.69-.92.5a5.48,5.48,0,0,1,1-.69c.45-.42-.41.2.11-.26a.61.61,0,0,1,.18-.12l-.35.15c.22-.14.71-.52.59-.38.51-.53-.9.35-.16-.24l.07,0c-.46.07-.76.51-1.73,1l1.8-1.37-.77.5s0-.12.35-.32a7.47,7.47,0,0,0-.83.55c.61-.6-.46,0,.65-1-.56.42-.35.43-.79.65,1.19-1-.28.06.21-.5s.37-.14.84-.73c-1.06.88.1-.4-.16-.32-.79.79-.45.15-.79.29.26-.28.24-.74.41-1.23l.12-.15c-.74.91-.68.6-.89.7a5.07,5.07,0,0,1,.82-1l-.07-.11a1.81,1.81,0,0,1-.49.48l.52-.73c-.12-.12-.75.63-.54-.08a23.23,23.23,0,0,1-1.53,2.57,10.94,10.94,0,0,1,.75-1.24s-.23.3-.14.1l.43-.64c.14-.38-.35.55-.35.43.34-.6.22-.47.49-.94,0,0-.11.3,0,.09a5.14,5.14,0,0,1,.4-1.12,3.37,3.37,0,0,1-.52.85c-.1-.09.37-.79.48-1.21-.24.41-.07-.15-.54.81a4.91,4.91,0,0,1,.31-.79c-.25.35-.27-.24-.69.92l0,.09,0,0h0c-.55.83,0-1-.33-.81l.14-.38c-.23.3-.26,0-.57.72a8.16,8.16,0,0,1,.31-1.28c-.15.19-.27.65-.17-.18.25-.61.15-.68.2-.42,0-.49.17-1.22-.21-.22.3-1,.27-1.5.15-1.25l-.13.91c-.08.08-.1-.09-.12-.26l.36-1.43c.1-1.09-.17-.5-.36,0s-.35.89-.15-.87c-.23,1,0,1-.3,2.18,0-.33.25-2.82.22-2.89,0-1.15-.46,2.22-.48,1.39a26.43,26.43,0,0,1-.41,2.71,29.67,29.67,0,0,1,.33-3.14s0,.19,0,.4a4.28,4.28,0,0,0,.17-1.1l-.09.6a11.81,11.81,0,0,1,.05-1.82,5.15,5.15,0,0,0-.13,1.38c0-1.11-.16-.34-.21-1.16,0,.39-.07,1.17-.08,1.13-.09-1.09-.17,1.11-.28,1.23,0-1.11.19-2.37,0-1.71a15.47,15.47,0,0,1,.16-2.3c-.19,1.1-.15-1.24-.22-1.63l.09-.43c0,.25-.08.19-.11.12l0,1.45a5.74,5.74,0,0,1,0-.94c-.07.85-.07,2.36-.19,3.49,0-.78-.14.56-.09-1.35.11.88,0-1.92.17-2,0,.18-.06.12-.09-.2a3.88,3.88,0,0,1,0-.47c-.1-2-.13,2-.26,1.73,0-.79,0-1.59,0-1.87,0-.06,0-.07,0,0s0,0,0,.12c0,.27,0,.79,0,1.3s-.05.89-.06,1.23c-.08-.76-.1.66-.14.61l0,.34a6.09,6.09,0,0,1-.11,1.35c0-.78,0-.63,0-1-.05,1.89-.15-1.61-.23-.26-.06-.6,0-1.87-.09-2.25-.08,1.47-.16-1.13-.26.12a15.93,15.93,0,0,1,0,2.32l.15-1.23,0,2.1c0-.06.08-1,.12-.83a14.68,14.68,0,0,0,0,1.89c-.12-1.87-.08,1.34-.2.14l-.13-3.19c-.22-1.17-.16,2-.37,1.5l.09.44c.06,1.24-.09.33-.1.9-.08-1-.15-1.32-.23-1.89a13.36,13.36,0,0,0,0,2.12l-.21-1.15c-.21-.27.17,3,0,2.81-.1-1.07-.25-1.63-.26-2.5,0,.06-.11,0,0,.6-.11-.52.06,1.43-.1.63a10.12,10.12,0,0,1,.13,1.37l-.07-.44a15,15,0,0,0,.24,1.63c-.29-1.3-.37-1.1-.43-.88s-.1.48-.41-.53a5,5,0,0,1-.13,1c0-.24-.1-.39-.06-.33-.32-.54.56,2.35.22,1.71-.43-1.13-.14-.77-.31-1.17-.78-2.48,0,.58-.6-.71l0-.17c-.36-.7.14,1.19,0,1.18,0,0-.08-.21-.14-.34a11.09,11.09,0,0,1,.47,2.31,10.3,10.3,0,0,0-.56-1.35c0,.19.62,1.37.66,1.72-.23-.41-.48-.71-.92-1.58l.06-.19c-.59-1.08-.1.24-.24.11l-.24-.5c-.07.41.58,1.6.4,1.73l.22.33c.6,1.25-.44-.54,0,.41l-.73-1.09c.11.37.52,1.35.59,1.67a11,11,0,0,1-.92-2c-.06.09-.14.4.2,1,0-.13-.2-.44-.07-.31.51,1,.74,1.46.64,1.58-1.49-2-.62-.09-1.94-1.35.4,1-.68.41-.84,1,1.48,1,0,.15,1.43,1.26,0,.15,0,.16-.09.09-.34-.14-.69-.27-1-.39s-.28-.32-.62-.55c-.25.14-.7-.35-1.2-.46.56.33.74.59.45.58l.82.29c.32.4,0,.25-.41.12s-.82-.13-.56.37c-.13-.14-.27-.29-.4-.45.13.45-.77,1.29.6,1.85-.24,0-.81,0-.87-.17-.33.34-.15.8,0,1.13s.27.56-.44.89l-.54,0c.08.11,1,0,.28.28a2,2,0,0,0-.62.13c.15,0,.85.1.41.33l-.6,0c-.61.44-.35.62.12.63a7.09,7.09,0,0,1,1.27,0,11.08,11.08,0,0,0-3.51,2.11l-.29.14c-.4.51-.17.66.25.64s1-.21,1.35-.22a14.23,14.23,0,0,0-1.52,1.23c-.16.15-.14.21-.08.24s.41,0-.07.48c.35-.29,1.82-1.28,2.12-1.45-.36.31,1.84-1.17-.25.33v0c-2,1.46-1.19,1-1.07,1.06l2.66-2c-1.72,1.39-1.06,1.09-.44.76s1.24-.68-.19.55c.7-.49.82-.5,1.5-1l-1.26,1c0,.22,0,.32.63,0l-.92.73c.16,0,3.62-2.94,3.83-3l-1.65,1.49c.33-.07-.69,1.18,1.06-.21a7,7,0,0,1-.81.71c.12,0-.35.91,1.61-1.11-1.31,1.32.23.08.93-.52l-1,1a27.33,27.33,0,0,1,2.14-2c-.07.11-.67.76-.51.52-.31.48.95-.92.65-.44l-.62.62c.09,0,.38-.27,1.08-1,.42-.4,0,.2-.65,1,.47-.53,1.13-1.24,1-1s-.46.52-.56.63c-.26.6,1.25-1.16.68-.26-.24.31-.35.47-.41.56s-.31,0-.24-.09a27.4,27.4,0,0,1-1.77,2.22c.71-.68,2.06-2.14,1.91-1.76l-.2.3-.1.1c0,.08.08,0,.22-.16-.05.14-.09.24,0,.24-.5.71-.06.35,0,.37a16.33,16.33,0,0,0,1.1-1.56.4.4,0,0,1-.18.16.57.57,0,0,0-.1.11l.06-.09a1.45,1.45,0,0,1-.25.1c.42-.49.76-.9.48-.39.46-.61.94-1.24,1.17-1.53-.83,1.29-1.07,2-1.57,2.76a6.65,6.65,0,0,0,2-2.2c.19-.23-.21.49-.34.75a4.34,4.34,0,0,0-.34.41c.4-.46.53-.23,1.2-1.44-.12.52-.68,1.12-.34.89l-.22.37c-.24.92.38.12.87-.59s.89-1.36.69-.2a2.14,2.14,0,0,1,.09-.4c.09.49.49.19.81,0s.6-.34.76.44c.12.3.25-.43.4-1l-.07.92c.1-.37.19-.73.27-1.09s.18.14.27.6.22.83.37.08l0-.61c.11.1.3-.41.32.3,0-.12,0-.64.06-.33l0,.47c.07-.28.13-.56.18-.85.23.32.15,1.88.5,1.92a4.69,4.69,0,0,0,0-1.72s-.16-.27-.23-.74l0-.26c-.2-1.38-.46-2.79-.67-3.74,0,.28,0,.57.07.85l-.1-.67,0,0c-.1-.63,0-.07,0,.32l-.1-.75c0,.45.06.9.06,1.34,0-.54,0-1.08-.1-1.38,0,.62.11,1.22.08,1.64-.07-.63-.07-1.16-.08-.61,0-.36,0-.59,0-.75,0,.44,0,.19-.06,1,0-.79-.11.22,0-1.13a8.46,8.46,0,0,1-.13,1.13c.16-1.63-.09-.08.11-1.83a4.78,4.78,0,0,1-.33,1.49,1.57,1.57,0,0,1,.06-.28c0-.12.08-.57.13-.85a20.91,20.91,0,0,1-.6,2.29c.25-1.18.38-1.46.64-2.6-.23,1-.29,1-.51,1.85.17-.74.07-.36.35-1.39a9.3,9.3,0,0,1-.4,1.23c.19-.76.45-1.46.26-1Zm-2.47,3v0l.08-.06Zm-.15,0s0,0,0,0l-.37.46-.18.21C1745,1125.25,1745.08,1125.06,1745.29,1124.78Zm-4.5,6.53c-.16.14,0,0,.09-.23l.19-.13.09-.11Z" transform="translate(-17.01 -414.5)" style="fill:#202020"/><path d="M1741.78,1130.06l.07-.07.12-.2-.23.29Z" transform="translate(-17.01 -414.5)" style="fill:#202020"/><path d="M1746.86,1121.06v0l0,.14Z" transform="translate(-17.01 -414.5)" style="fill:#202020"/><polygon points="1728.98 708.53 1728.64 708.8 1728.94 708.57 1728.98 708.53" style="fill:#202020"/><path d="M1745.9,1125l-.13.2Z" transform="translate(-17.01 -414.5)" style="fill:#202020"/><path d="M1746,1125.51l-.18.27Z" transform="translate(-17.01 -414.5)" style="fill:#202020"/><path d="M1745.82,1126l.27-.25h0Z" transform="translate(-17.01 -414.5)" style="fill:#202020"/><path d="M1743.91,1124.7v.07C1743.9,1125.1,1743.9,1125,1743.91,1124.7Z" transform="translate(-17.01 -414.5)" style="fill:#202020"/><path d="M1744.66,1122.24c0,.22-.08.43-.1.58S1744.56,1123,1744.66,1122.24Z" transform="translate(-17.01 -414.5)" style="fill:#202020"/><path d="M1743.75,1126.91v0s0,0,0,0Z" transform="translate(-17.01 -414.5)" style="fill:#202020"/><path d="M1744.53,1122.74c0,.29,0,.25,0,.08S1744.56,1122.56,1744.53,1122.74Z" transform="translate(-17.01 -414.5)" style="fill:#202020"/><path d="M1746.46,1127.6v0l.11-.07Z" transform="translate(-17.01 -414.5)" style="fill:#202020"/><path d="M1746.56,1127.57l.09,0S1746.64,1127.51,1746.56,1127.57Z" transform="translate(-17.01 -414.5)" style="fill:#202020"/><path d="M1746.86,1127.44l-.21.09S1746.66,1127.58,1746.86,1127.44Z" transform="translate(-17.01 -414.5)" style="fill:#202020"/><path d="M1746.41,1126.87l-.25.17Z" transform="translate(-17.01 -414.5)" style="fill:#202020"/><path d="M1746.23,1126.76c0,.08-.47.47-.28.41l.21-.13C1745.77,1127.28,1746.67,1126.5,1746.23,1126.76Z" transform="translate(-17.01 -414.5)" style="fill:#202020"/><path d="M1748.86,1123.91l-.09.31c.24-.22.56-.53.68-.49C1750.08,1122.92,1748.89,1124.21,1748.86,1123.91Z" transform="translate(-17.01 -414.5)" style="fill:#202020"/><path d="M1748.87,1123.08c.18,0,.35-.33.49-.45A1,1,0,0,0,1748.87,1123.08Z" transform="translate(-17.01 -414.5)" style="fill:#202020"/><path d="M1746.46,1119l.31-1A5,5,0,0,0,1746.46,1119Z" transform="translate(-17.01 -414.5)" style="fill:#202020"/><polygon points="1727.74 709.4 1727.61 710.09 1727.84 709.13 1727.74 709.4" style="fill:#202020"/><polygon points="1729.17 700.85 1729.22 700.72 1729.05 700.99 1729.17 700.85" style="fill:#202020"/><path d="M1741.43,1116.48l.3,1.31C1741.71,1117.5,1741.4,1116,1741.43,1116.48Z" transform="translate(-17.01 -414.5)" style="fill:#202020"/><path d="M1739.9,1120.84c-.29-.43-.53-.63-.29-.13C1739.69,1120.7,1739.94,1121,1739.9,1120.84Z" transform="translate(-17.01 -414.5)" style="fill:#202020"/><polygon points="1716.13 718.03 1715.53 718.42 1716.12 718.08 1716.13 718.03" style="fill:#202020"/><path d="M1781.63,1001c-5.12-1.69-10.6-3.38-15.73-4.93a23,23,0,0,0-1.87-3,48.21,48.21,0,0,0-6.19-6.53c-3.21-12-6.83-26.53-8.51-37.37-3.39-22,4.53-251.63,4.53-251.63l9-3.38s19.23,69.24,22.62,184.08C1787.93,959.65,1784.07,990.14,1781.63,1001Z" transform="translate(-17.01 -414.5)" style="stroke:#000;stroke-miterlimit:10;stroke-width:5px"/><path d="M1761.75,1127.37l-65.57,225.36-3.39-27c-2.57-29.35,36.74-142.34,56.11-195.86C1752.51,1129.22,1756.87,1128.41,1761.75,1127.37Z" transform="translate(-17.01 -414.5)" style="stroke:#000;stroke-miterlimit:10;stroke-width:5px"/><path d="M1852.24,1153.46l-2.26,27c-12.44,27-33.93-11.82-33.93-11.82l-20.67-50.38a203.92,203.92,0,0,0,24.78-10.08Z" transform="translate(-17.01 -414.5)" style="stroke:#000;stroke-miterlimit:10;stroke-width:5px"/><path d="M1844.33,1087.6a114.26,114.26,0,0,1-24.17,15.53,202.33,202.33,0,0,1-24.78,10.08,304,304,0,0,1-33.63,9.09c-4.88,1-9.24,1.86-12.85,2.48a49.09,49.09,0,0,1-4-6.25c-.31-.55-.64-1.16-1-1.8-5.12-9.83-12.08-28.32-9.87-53.62,3.39-38.84,3.73-75,31.83-68.77.58.14,1.15.29,1.71.47a35.12,35.12,0,0,0-1.71-3.85c5.13,1.56,10.61,3.25,15.73,4.94,5.81,1.94,11.18,3.86,15.2,5.57,15.83,6.75,63.33,52.35,67.85,60.79S1844.33,1087.6,1844.33,1087.6Z" transform="translate(-17.01 -414.5)" style="fill:#666;stroke:#000;stroke-miterlimit:10;stroke-width:12px"/><path d="M1691.09,689.89s19.23-57.42,39.58-60.79" transform="translate(-17.01 -414.5)" style="fill:none;stroke:#666;stroke-miterlimit:10;stroke-width:19px"/><path d="M1857.33,738.87s19.22,28.7,26,96.25" transform="translate(-17.01 -414.5)" style="fill:none;stroke:#666;stroke-miterlimit:10;stroke-width:18px"/><path d="M1872,1358.64s-1.13,81.06-45.23,118.22" transform="translate(-17.01 -414.5)" style="fill:#fff;stroke:#666;stroke-miterlimit:10;stroke-width:18px"/><path d="M1736.33,1500.5s-50.89-13.51-66.72-81.06" transform="translate(-17.01 -414.5)" style="fill:none;stroke:#666;stroke-miterlimit:10;stroke-width:18px"/><path d="M1471.2,883.09a31.28,31.28,0,0,1-7.41,7.76s-176.41,76-191.11,81.07S1250.06,955,1250.06,955s-20.35-126.66-21.48-150.3,6.78-28.71,6.78-28.71l80.26-35.52c46.22,24,101.25,72.32,128.71,108.37,1.7,2.21,3.28,4.39,4.76,6.52A231.29,231.29,0,0,0,1471.2,883.09Z" transform="translate(-17.01 -414.5)" style="fill:#333;stroke:#333;stroke-miterlimit:10;stroke-width:10px"/><path d="M1166.38,782.77l-125.52-3.37s-10.18,1.68-10.18,20.26,10.18,123.28,15.83,138.48,5.65,25.33,22.62,28.71,123.26,8.44,123.26,8.44,11.31-5.06,10.18-25.33-24.88-155.37-24.88-155.37S1175.43,782.77,1166.38,782.77Z" transform="translate(-17.01 -414.5)" style="fill:#333;stroke:#333;stroke-miterlimit:10;stroke-width:10px"/><path d="M976.4,787.84s-79.16,16.89-114.22,43.91-13.57,72.61-1.13,86.12,82.55,50.67,124.39,43.91c0,0,20.36,0,19.23-25.33s-18.1-136.79-18.1-136.79S985.44,786.15,976.4,787.84Z" transform="translate(-17.01 -414.5)" style="fill:#333;stroke:#333;stroke-miterlimit:10;stroke-width:10px"/><path d="M1242.15,1221.85l-116.44,32.39L416.63,1451.53,264,1414.37l625.28-212.16,56.62-19.2S1116.62,1100.26,1242.15,1221.85Z" transform="translate(-17.01 -414.5)" style="fill:#900;stroke:#900;stroke-miterlimit:10;stroke-width:10px"/><path d="M1864.65,1074.19a1324.69,1324.69,0,0,1-7.79,141.93c-15.47,139.24-52.37,237.31-95.13,237-56.21-.36-101.28-170.59-100.66-380.26.29-99.47,10.81-190,27.8-257.52,6-23.87,12.81-44.89,20.25-62.43,15.91-37.48,34.74-59.14,54.86-59,41.11.24,76.28,91.38,91.93,222.33A1307.2,1307.2,0,0,1,1864.65,1074.19Z" transform="translate(-17.01 -414.5)" style="fill:none;stroke:#666;stroke-miterlimit:10;stroke-width:15px"/><path d="M439.24,938.14S341,970.06,260.49,996.86c-46.46,15.47-87,29.21-99.44,34.16-33.92,13.51-49.75,10.13-49.75,10.13l-74.64-8.44,200-83.8L286.58,928C396.27,882.41,439.24,938.14,439.24,938.14Z" transform="translate(-17.01 -414.5)" style="fill:#900;stroke:#900;stroke-miterlimit:10;stroke-width:10px"/></svg>