<svg id="Layer_3" data-name="Layer 3" xmlns="http://www.w3.org/2000/svg" viewBox="0 0 1775.76 1776.85"><polygon points="1372.14 9.68 412.32 7.5 134.83 129.38 9.68 426.47 7.5 1332.96 146.8 1637.67 426.47 1766.08 1301.4 1769.34 1640.93 1630.05 1768.25 1355.82 1767.17 393.82 1646.37 126.12 1372.14 9.68" style="stroke:#000;stroke-miterlimit:10;stroke-width:15px"/><circle cx="887.88" cy="888.42" r="836.85" style="fill:#333;stroke:#333;stroke-miterlimit:10;stroke-width:15px"/><circle cx="887.88" cy="888.42" r="759.31" style="stroke:#000;stroke-miterlimit:10;stroke-width:15px"/><line x1="423.47" y1="1194.11" x2="364.44" y2="1232.3" style="fill:none;stroke:#fff;stroke-miterlimit:10;stroke-width:15px"/><line x1="1418.93" y1="549.98" x2="1357.02" y2="590.04" style="fill:none;stroke:#fff;stroke-miterlimit:10;stroke-width:15px"/><line x1="370.84" y1="1093.1" x2="307.85" y2="1118.04" style="fill:#fff;stroke:#fff;stroke-miterlimit:10;stroke-width:15px"/><line x1="1473.34" y1="656.63" x2="1404.91" y2="683.73" style="fill:none;stroke:#fff;stroke-miterlimit:10;stroke-width:15px"/><line x1="492.71" y1="1279.43" x2="440.62" y2="1329.15" style="fill:none;stroke:#fff;stroke-miterlimit:10;stroke-width:15px"/><line x1="1349.29" y1="461.84" x2="1296.86" y2="511.89" style="fill:none;stroke:#fff;stroke-miterlimit:10;stroke-width:15px"/><line x1="570.9" y1="1345.19" x2="527.68" y2="1404.24" style="fill:none;stroke:#fff;stroke-miterlimit:10;stroke-width:15px"/><line x1="1270.93" y1="388.93" x2="1227.49" y2="448.27" style="fill:none;stroke:#fff;stroke-miterlimit:10;stroke-width:15px"/><line x1="649.36" y1="1390.73" x2="618" y2="1452.12" style="fill:none;stroke:#fff;stroke-miterlimit:10;stroke-width:15px"/><line x1="1188.23" y1="335.6" x2="1154.95" y2="400.76" style="fill:none;stroke:#fff;stroke-miterlimit:10;stroke-width:15px"/><line x1="730.13" y1="1421.64" x2="708.32" y2="1486.95" style="fill:none;stroke:#fff;stroke-miterlimit:10;stroke-width:15px"/><line x1="1105.52" y1="297.52" x2="1082.18" y2="367.41" style="fill:none;stroke:#fff;stroke-miterlimit:10;stroke-width:15px"/><line x1="816.86" y1="1439.84" x2="805.17" y2="1509.8" style="fill:none;stroke:#fff;stroke-miterlimit:10;stroke-width:15px"/><line x1="1011.94" y1="272.49" x2="1000.02" y2="343.82" style="fill:none;stroke:#fff;stroke-miterlimit:10;stroke-width:15px"/><line x1="910.19" y1="1472.82" x2="910.19" y2="1443.91" style="fill:none;stroke:#fff;stroke-miterlimit:10;stroke-width:15px"/><line x1="910.19" y1="332.95" x2="910.19" y2="293.14" style="fill:none;stroke:#000;stroke-miterlimit:10;stroke-width:6px"/><line x1="1017.38" y1="1498.92" x2="1005.69" y2="1431.83" style="fill:none;stroke:#fff;stroke-miterlimit:10;stroke-width:15px"/><line x1="815.08" y1="337.24" x2="801.91" y2="261.6" style="fill:none;stroke:#fff;stroke-miterlimit:10;stroke-width:15px"/><line x1="339.29" y1="978.94" x2="271.94" y2="990.72" style="fill:none;stroke:#fff;stroke-miterlimit:10;stroke-width:15px"/><line x1="1503.81" y1="775.25" x2="1434.64" y2="787.35" style="fill:none;stroke:#fff;stroke-miterlimit:10;stroke-width:15px"/><line x1="1477.7" y1="877.54" x2="1443.7" y2="877.54" style="fill:none;stroke:#fff;stroke-miterlimit:10;stroke-width:15px"/><line x1="332.06" y1="877.54" x2="304.59" y2="877.54" style="fill:none;stroke:#fff;stroke-miterlimit:10;stroke-width:15px"/><line x1="1139.26" y1="1463.01" x2="1113.28" y2="1396.74" style="fill:none;stroke:#fff;stroke-miterlimit:10;stroke-width:15px"/><line x1="707.8" y1="362.32" x2="681.12" y2="294.25" style="fill:none;stroke:#fff;stroke-miterlimit:10;stroke-width:15px"/><line x1="1251.35" y1="1404.24" x2="1210.76" y2="1341.02" style="fill:none;stroke:#fff;stroke-miterlimit:10;stroke-width:15px"/><line x1="610.7" y1="406.43" x2="570.12" y2="343.22" style="fill:none;stroke:#fff;stroke-miterlimit:10;stroke-width:15px"/><line x1="1335.14" y1="1330.24" x2="1285.13" y2="1277.33" style="fill:none;stroke:#fff;stroke-miterlimit:10;stroke-width:15px"/><line x1="521.94" y1="469.92" x2="471.09" y2="416.13" style="fill:none;stroke:#fff;stroke-miterlimit:10;stroke-width:15px"/><line x1="1406.96" y1="1247.54" x2="1346.47" y2="1202.74" style="fill:none;stroke:#fff;stroke-miterlimit:10;stroke-width:15px"/><line x1="453.51" y1="541.43" x2="396" y2="498.84" style="fill:none;stroke:#fff;stroke-miterlimit:10;stroke-width:15px"/><line x1="1461.37" y1="1160.48" x2="1391.31" y2="1124.54" style="fill:none;stroke:#fff;stroke-miterlimit:10;stroke-width:15px"/><line x1="402.49" y1="617.2" x2="337.24" y2="583.72" style="fill:none;stroke:#fff;stroke-miterlimit:10;stroke-width:15px"/><line x1="1492.93" y1="1073.42" x2="1420.23" y2="1049.1" style="fill:none;stroke:#fff;stroke-miterlimit:10;stroke-width:15px"/><line x1="366.01" y1="696.41" x2="302.41" y2="675.13" style="fill:none;stroke:#fff;stroke-miterlimit:10;stroke-width:15px"/><line x1="1509.26" y1="982.01" x2="1437.91" y2="969.62" style="fill:none;stroke:#fff;stroke-miterlimit:10;stroke-width:15px"/><line x1="342.64" y1="779.39" x2="268.68" y2="766.54" style="fill:none;stroke:#fff;stroke-miterlimit:10;stroke-width:15px"/><line x1="1066.89" y1="1451.58" x2="1057.7" y2="1417.92" style="fill:none;stroke:#fff;stroke-miterlimit:10;stroke-width:10px"/><line x1="764.93" y1="346.16" x2="755.66" y2="312.21" style="fill:none;stroke:#fff;stroke-miterlimit:10;stroke-width:10px"/><line x1="964.05" y1="1473.89" x2="961.04" y2="1439.57" style="fill:none;stroke:#fff;stroke-miterlimit:10;stroke-width:10px"/><line x1="863.88" y1="333.01" x2="860.67" y2="296.43" style="fill:none;stroke:#fff;stroke-miterlimit:10;stroke-width:10px"/><line x1="860.66" y1="1443.69" x2="857.41" y2="1480.42" style="fill:none;stroke:#fff;stroke-miterlimit:10;stroke-width:10px"/><line x1="961.88" y1="301.87" x2="958.77" y2="336.99" style="fill:none;stroke:#fff;stroke-miterlimit:10;stroke-width:10px"/><line x1="771.83" y1="1432.21" x2="763.82" y2="1464.09" style="fill:none;stroke:#fff;stroke-miterlimit:10;stroke-width:10px"/><line x1="1051.11" y1="320.37" x2="1042.58" y2="354.31" style="fill:none;stroke:#fff;stroke-miterlimit:10;stroke-width:10px"/><line x1="1181.7" y1="1393.36" x2="1168.63" y2="1368.34" style="fill:none;stroke:#fff;stroke-miterlimit:10;stroke-width:10px"/><line x1="654.26" y1="383.83" x2="637.59" y2="351.93" style="fill:none;stroke:#fff;stroke-miterlimit:10;stroke-width:10px"/><line x1="1273.11" y1="1329.15" x2="1254.71" y2="1306.15" style="fill:none;stroke:#fff;stroke-miterlimit:10;stroke-width:10px"/><line x1="560.85" y1="438.82" x2="537.47" y2="409.6" style="fill:none;stroke:#fff;stroke-miterlimit:10;stroke-width:10px"/><line x1="1344.93" y1="1259.51" x2="1320.37" y2="1237.73" style="fill:none;stroke:#fff;stroke-miterlimit:10;stroke-width:10px"/><line x1="489.22" y1="500.98" x2="463.47" y2="478.16" style="fill:none;stroke:#fff;stroke-miterlimit:10;stroke-width:10px"/><line x1="1401.52" y1="1177.89" x2="1372.92" y2="1160.26" style="fill:none;stroke:#fff;stroke-miterlimit:10;stroke-width:10px"/><line x1="427.16" y1="577.22" x2="397.09" y2="558.69" style="fill:none;stroke:#fff;stroke-miterlimit:10;stroke-width:10px"/><line x1="1440.7" y1="1099.54" x2="1407.78" y2="1085.69" style="fill:none;stroke:#fff;stroke-miterlimit:10;stroke-width:10px"/><line x1="383.36" y1="654.67" x2="349.21" y2="640.31" style="fill:none;stroke:#fff;stroke-miterlimit:10;stroke-width:10px"/><line x1="1461.37" y1="1016.83" x2="1430.69" y2="1008.98" style="fill:none;stroke:#fff;stroke-miterlimit:10;stroke-width:10px"/><line x1="353.88" y1="733.35" x2="322" y2="725.19" style="fill:none;stroke:#fff;stroke-miterlimit:10;stroke-width:10px"/><line x1="1477.7" y1="929.78" x2="1442.5" y2="926.54" style="fill:none;stroke:#fff;stroke-miterlimit:10;stroke-width:10px"/><line x1="335.55" y1="824.98" x2="303.5" y2="822.04" style="fill:none;stroke:#fff;stroke-miterlimit:10;stroke-width:10px"/><line x1="1473.34" y1="828.57" x2="1440.89" y2="831.25" style="fill:none;stroke:#fff;stroke-miterlimit:10;stroke-width:10px"/><line x1="332.99" y1="922.63" x2="299.15" y2="925.42" style="fill:none;stroke:#fff;stroke-miterlimit:10;stroke-width:10px"/><line x1="1452.67" y1="728.45" x2="1422.82" y2="736.65" style="fill:none;stroke:#fff;stroke-miterlimit:10;stroke-width:10px"/><line x1="350.4" y1="1030.99" x2="318.74" y2="1039.69" style="fill:none;stroke:#fff;stroke-miterlimit:10;stroke-width:10px"/><line x1="1411.32" y1="618.54" x2="1382.12" y2="633.67" style="fill:none;stroke:#fff;stroke-miterlimit:10;stroke-width:10px"/><line x1="394.77" y1="1145.36" x2="367.71" y2="1159.39" style="fill:none;stroke:#fff;stroke-miterlimit:10;stroke-width:10px"/><line x1="1355.82" y1="528.22" x2="1328.65" y2="549.6" style="fill:none;stroke:#fff;stroke-miterlimit:10;stroke-width:10px"/><line x1="455.09" y1="1237.36" x2="429.74" y2="1257.33" style="fill:none;stroke:#fff;stroke-miterlimit:10;stroke-width:10px"/><line x1="1285.08" y1="455.31" x2="1264.02" y2="479.08" style="fill:none;stroke:#fff;stroke-miterlimit:10;stroke-width:10px"/><line x1="526.69" y1="1311.01" x2="504.82" y2="1335.68" style="fill:none;stroke:#fff;stroke-miterlimit:10;stroke-width:10px"/><line x1="1211.08" y1="397.63" x2="1194.3" y2="424.52" style="fill:none;stroke:#fff;stroke-miterlimit:10;stroke-width:10px"/><line x1="605.8" y1="1367.57" x2="589.7" y2="1393.36" style="fill:none;stroke:#fff;stroke-miterlimit:10;stroke-width:10px"/><line x1="1131.64" y1="354.1" x2="1119.42" y2="382.87" style="fill:none;stroke:#fff;stroke-miterlimit:10;stroke-width:10px"/><line x1="684.61" y1="1406.02" x2="672.41" y2="1434.71" style="fill:none;stroke:#fff;stroke-miterlimit:10;stroke-width:10px"/><circle cx="887.88" cy="888.42" r="557.99" style="fill:#666;stroke:#000;stroke-miterlimit:10;stroke-width:6px"/><rect x="1023.36" y="560.32" width="91.41" height="193.7" style="fill:#c33;stroke:#c33;stroke-miterlimit:10;stroke-width:9px"/><polygon points="1261.01 747.13 1224.75 747.27 1188.49 747.42 1206.47 710.11 1224.45 672.8 1242.73 709.96 1261.01 747.13" style="fill:#fff;stroke:#fff;stroke-miterlimit:10;stroke-width:9px"/><polygon points="888.17 1407.56 909.97 1407.47 931.76 1407.38 920.95 1429.81 910.14 1452.24 899.16 1429.9 888.17 1407.56" style="fill:#ff0;stroke:#ff0;stroke-miterlimit:10;stroke-width:9px"/><polygon points="940.63 363.92 909.75 364.04 878.88 364.17 894.19 332.39 909.5 300.62 925.07 332.27 940.63 363.92" style="fill:#ff0;stroke:#ff0;stroke-miterlimit:10;stroke-width:9px"/><text transform="translate(1154.37 645.98)" style="font-size:119.70487213134766px;fill:#fff;font-family:Calibri-Bold, Calibri;font-weight:700">TO</text><text transform="translate(1169.61 1204.24)" style="font-size:119.70487213134766px;fill:#fff;font-family:Calibri-Bold, Calibri;font-weight:700">FR</text><text transform="translate(844.64 277.35)" style="font-size:206.76296997070312px;fill:#fff;font-family:Calibri-Bold, Calibri;font-weight:700">N</text><text transform="translate(292.37 970.79) rotate(-90.69)" style="font-size:206.7635955810547px;fill:#fff;font-family:Calibri-Bold, Calibri;font-weight:700">W</text><text transform="translate(963.99 1496.46) rotate(-179.81)" style="font-size:206.7620849609375px;fill:#fff;font-family:Calibri-Bold, Calibri;font-weight:700">S</text><text transform="translate(1491.15 826.53) rotate(89.32)" style="font-size:206.76309204101562px;fill:#fff;font-family:Calibri-Bold, Calibri;font-weight:700">E</text><text x="-72.12" y="-17.23"/><text transform="matrix(0.81, -0.58, 0.58, 0.81, 507.23, 380.78)" style="font-size:152.35240173339844px;fill:#fff;font-family:Calibri-Bold, Calibri;font-weight:700">33</text><text transform="matrix(-0.56, -0.83, 0.83, -0.56, 409.62, 1303.06)" style="font-size:152.35174560546875px;fill:#fff;font-family:Calibri-Bold, Calibri;font-weight:700">24</text><text transform="matrix(-0.86, -0.51, 0.51, -0.86, 680.41, 1507.54)" style="font-size:152.35220336914062px;fill:#fff;font-family:Calibri-Bold, Calibri;font-weight:700">21</text><text transform="translate(1318.35 1371.34) rotate(144.55)" style="font-size:152.35122680664062px;fill:#fff;font-family:Calibri-Bold, Calibri;font-weight:700">15</text><text transform="translate(1512.15 1100.55) rotate(121.28)" style="font-size:152.35076904296875px;fill:#fff;font-family:Calibri-Bold, Calibri;font-weight:700">12</text><text transform="translate(1408.04 510.47) rotate(55.23)" style="font-size:152.3515167236328px;fill:#fff;font-family:Calibri-Bold, Calibri;font-weight:700">6</text><text transform="translate(1165.9 308.09) rotate(27.7)" style="font-size:152.35238647460938px;fill:#fff;font-family:Calibri-Bold, Calibri;font-weight:700">3</text><text transform="translate(284.09 651.6) rotate(-60.49)" style="font-size:152.3516387939453px;fill:#fff;font-family:Calibri-Bold, Calibri;font-weight:700">30</text><circle cx="911.14" cy="877.54" r="61.89" style="fill:none;stroke:#fff;stroke-miterlimit:10;stroke-width:10px"/><circle cx="598.41" cy="879.72" r="26.66" style="fill:#fff;stroke:#fff;stroke-miterlimit:10;stroke-width:3px"/><path d="M579.12,923.11A26.16,26.16,0,1,1,605.28,897,26.2,26.2,0,0,1,579.12,923.11Z" transform="translate(-72.12 -17.23)" style="fill:#fff"/><path d="M579.12,871.29A25.66,25.66,0,1,1,553.46,897a25.69,25.69,0,0,1,25.66-25.66m0-1A26.66,26.66,0,1,0,605.78,897a26.66,26.66,0,0,0-26.66-26.66Z" transform="translate(-72.12 -17.23)" style="fill:#fff"/><circle cx="416.68" cy="880.81" r="26.66" style="fill:#fff;stroke:#fff;stroke-miterlimit:10;stroke-width:3px"/><circle cx="685.47" cy="878.63" r="26.66" style="fill:#fff;stroke:#fff;stroke-miterlimit:10;stroke-width:3px"/><circle cx="777.97" cy="880.81" r="26.66" style="fill:#fff;stroke:#fff;stroke-miterlimit:10;stroke-width:3px"/><circle cx="910.72" cy="583.72" r="26.66" style="fill:#fff;stroke:#fff;stroke-miterlimit:10;stroke-width:3px"/><circle cx="911.34" cy="492.31" r="26.66" style="fill:#fff;stroke:#fff;stroke-miterlimit:10;stroke-width:3px"/><circle cx="910.87" cy="401.98" r="26.66" style="fill:#fff;stroke:#fff;stroke-miterlimit:10;stroke-width:3px"/><circle cx="911.22" cy="670.78" r="26.66" style="fill:#fff;stroke:#fff;stroke-miterlimit:10;stroke-width:3px"/><circle cx="908.42" cy="763.27" r="26.66" style="fill:#fff;stroke:#fff;stroke-miterlimit:10;stroke-width:3px"/><circle cx="1214.35" cy="878.63" r="26.66" style="fill:#fff;stroke:#fff;stroke-miterlimit:10;stroke-width:3px"/><circle cx="1305.76" cy="878.9" r="26.66" style="fill:#fff;stroke:#fff;stroke-miterlimit:10;stroke-width:3px"/><circle cx="1396.08" cy="878.09" r="26.66" style="fill:#fff;stroke:#fff;stroke-miterlimit:10;stroke-width:3px"/><circle cx="1127.29" cy="879.45" r="26.66" style="fill:#fff;stroke:#fff;stroke-miterlimit:10;stroke-width:3px"/><circle cx="1034.79" cy="876.99" r="26.66" style="fill:#fff;stroke:#fff;stroke-miterlimit:10;stroke-width:3px"/><circle cx="909.64" cy="1187.68" r="26.66" style="fill:#fff;stroke:#fff;stroke-miterlimit:10;stroke-width:3px"/><circle cx="910.26" cy="1096.28" r="26.66" style="fill:#fff;stroke:#fff;stroke-miterlimit:10;stroke-width:3px"/><circle cx="909.78" cy="1005.95" r="26.66" style="fill:#fff;stroke:#fff;stroke-miterlimit:10;stroke-width:3px"/><circle cx="910.13" cy="1274.75" r="26.66" style="fill:#fff;stroke:#fff;stroke-miterlimit:10;stroke-width:3px"/><circle cx="907.33" cy="1367.23" r="26.66" style="fill:#fff;stroke:#fff;stroke-miterlimit:10;stroke-width:3px"/><line x1="370.84" y1="1093.1" x2="1407.78" y2="1085.69" style="fill:none;stroke:#ccc;stroke-miterlimit:10;stroke-width:20px"/><line x1="764.93" y1="346.16" x2="771.83" y2="1432.21" style="fill:#fff;stroke:#ccc;stroke-miterlimit:10;stroke-width:20px"/><path d="M1560.16,1895.27" transform="translate(-72.12 -17.23)" style="fill:none;stroke:#000;stroke-miterlimit:10;stroke-width:3px"/><rect x="989.63" y="1238.83" width="241.47" height="70.06" style="fill:#c33;stroke:#c33;stroke-miterlimit:10;stroke-width:3px"/><polygon points="1055.32 1238.83 997.2 1308.89 989.63 1308.89 989.63 1298.45 1039.08 1238.83 1055.32 1238.83" style="fill:#fff;stroke:#fff;stroke-miterlimit:10;stroke-width:3px"/><polygon points="1181.02 1238.83 1122.91 1308.89 1106.68 1308.89 1164.8 1238.83 1181.02 1238.83" style="fill:#fff;stroke:#fff;stroke-miterlimit:10;stroke-width:3px"/><polygon points="1231.1 1238.83 1231.1 1248.91 1181.34 1308.89 1165.11 1308.89 1223.22 1238.83 1231.1 1238.83" style="fill:#fff;stroke:#fff;stroke-miterlimit:10;stroke-width:3px"/><polygon points="1117.2 1238.83 1059.08 1308.89 1042.85 1308.89 1100.96 1238.83 1117.2 1238.83" style="fill:#fff;stroke:#fff;stroke-miterlimit:10;stroke-width:3px"/><circle cx="257.25" cy="1522.31" r="149.09" style="fill:none;stroke:#c33;stroke-miterlimit:10;stroke-width:26px"/><circle cx="255.62" cy="1522.86" r="126.78" style="fill:#666;stroke:#fff;stroke-miterlimit:10;stroke-width:15px"/><text transform="translate(157.06 1557.25)" style="font-size:119.70487213134766px;fill:#fc3;font-family:Calibri-Bold, Calibri;font-weight:700">OBS</text><text transform="translate(1044.94 603.54)" style="font-size:68.56820678710938px;font-family:Calibri-Bold, Calibri;font-weight:700">N</text><text transform="translate(1046.22 678.04)" style="font-size:71.68494415283203px;font-family:Calibri-Bold, Calibri;font-weight:700">A</text><text transform="translate(1046.88 753.47)" style="font-size:71.68494415283203px;font-family:Calibri-Bold, Calibri;font-weight:700">V</text></svg>