<svg xmlns="http://www.w3.org/2000/svg" width="20" height="20" data-name="Layer 2" viewBox="0 0 1536.8 587.36"><defs><style>#generalicon .cls-1,#generalicon .cls-3{fill:#c33;}#generalicon .cls-2{fill:#f33;}#generalicon .cls-3{stroke:#003;stroke-miterlimit:10;stroke-width:4px;}#generalicon .cls-4{fill:#333;}</style></defs><metadata>Created by Laya Amiri for Homa Pilot 2021 - 2025</metadata><title>General Pilotings</title><path class="cls-1" d="M1640.5,453.5h0c-.43.11-10.31,2.9-16,16-4.92,11.44-6.62,30.74,4,63,0,0-.39.38-1.18,1.08-7.8,6.92-54.24,45.48-137.82,60.92-92,17-372,1-372,1s-4.15-.49-11.49-1.4l70.49-11.6c-6-57-192-43-192-43l-91.75,18.9C801,536.91,671.5,491.5,671.5,491.5s-162-41-217-42c-40.79-.74-67.83-13-79.08-19.34L525.5,400.5c-2-23-118-13-118-13l-52.94,14.28a182.93,182.93,0,0,1-8.06-32.28c-8-48-53-268-53-268s82-4,100,21,91,168,91,168,31,43,102,47,110,3,133,1,191-38,191-38,76-14,117-15,109-9,188,3a285.65,285.65,0,0,1,55.58,14.7l-64.58,20.3s-14,3-12,15,16,86,16,86,3,13,18,10,152-37,170-45c0,0,8,10,80,18,6,.66,12.07,1.53,18.23,2.57C1564.81,421.54,1640.5,453.5,1640.5,453.5Z" transform="translate(-192.5 -101.26)"/><path class="cls-1" d="M1176.5,582.5,1106,594.1,562.5,683.5s-76,4-121-20l-20-8,471.25-97.1,91.75-18.9S1170.5,525.5,1176.5,582.5Z" transform="translate(-192.5 -101.26)"/><path class="cls-2" d="M562.5,683.5s-41,8-79,4-127-23-127-23-17,0-27-19,92,10,92,10" transform="translate(-192.5 -101.26)"/><path class="cls-1" d="M525.5,400.5,375.42,430.16,272.5,450.5s-35,8-80-5l162.06-43.72L407.5,387.5S523.5,377.5,525.5,400.5Z" transform="translate(-192.5 -101.26)"/><path class="cls-1" d="M1624.5,320.5l-126.06,89c-.56.2-1.12.39-1.71.56-6.16-1-12.26-1.91-18.23-2.57-72-8-80-18-80-18-4.4-7-11.19-14.75-19.88-22.78,41.46-19.34,124.64-58.22,129.88-61.22,7-4,5-25,5-25,19-1,88,11,105,21S1624.5,320.5,1624.5,320.5Z" transform="translate(-192.5 -101.26)"/><path d="M1398.5,389.5c-18,8-155,42-170,45s-18-10-18-10-14-74-16-86,12-15,12-15l64.58-20.3c10.27,3.8,20.33,8.08,30,12.72,28.5,13.62,53.87,30.24,72.31,46.16,1.8,1.56,3.54,3.1,5.2,4.64C1387.31,374.75,1394.1,382.5,1398.5,389.5Z" transform="translate(-192.5 -101.26)"/><path d="M1144.5,323.5c-25.26-8-106-3-106-3s-12,3-11,16,13,79,13,79,1,12,15,13,105,4,105,4,12,2,11-14c0,0-16-44-18-80C1153.5,338.5,1154.81,326.78,1144.5,323.5Z" transform="translate(-192.5 -101.26)"/><path d="M985.5,325.5s-89,10-109,29,6,42,6,42,30,25,115,26c0,0,10,1,7-15s-8-33-10-60S985.5,325.5,985.5,325.5Z" transform="translate(-192.5 -101.26)"/><path class="cls-3" d="M1724,505c-7.8,4.25-21.87,10.86-43.08,17.13-3.45,1-7.08,2-10.91,3a396,396,0,0,1-42.69,8.42c.79-.7,1.18-1.08,1.18-1.08-10.59-32.22-8.89-51.52-4-63,5.65-13.13,15.53-15.92,16-16h0s57.19,19.34,84.41,41.06A6.3,6.3,0,0,1,1724,505Z" transform="translate(-192.5 -101.26)"/><path class="cls-4" d="M1647.5,519c0,3.49-3.18,6.42-7.48,7.25l3.48-7.75-6,.5-3.35,7.06c-3.87-1-6.65-3.8-6.65-7.06,0-4.14,4.48-7.5,10-7.5S1647.5,514.86,1647.5,519Z" transform="translate(-192.5 -101.26)"/><path class="cls-4" d="M1640.39,518.76a1.84,1.84,0,0,1,1.83,2.59l-2.2,4.9-50.45,112.4a1.84,1.84,0,0,1-3.51-.65l-.53-9a1.86,1.86,0,0,1,.17-.9l48.45-102,2.9-6.1a1.83,1.83,0,0,1,1.51-1.05Z" transform="translate(-192.5 -101.26)"/><ellipse class="cls-4" cx="1458" cy="365.24" rx="10" ry="3"/><path class="cls-4" d="M1644.5,466.5s-10,1-1-177c0,0,3-19,9,0s11.26,87.57,2.63,176.79Z" transform="translate(-192.5 -101.26)"/><path class="cls-4" d="M1706.5,567.5c-13.54-3.19-30.25-31.11-36.49-42.34,3.83-1,7.46-2,10.91-3,6.12,4.79,14.44,11.61,18.58,16.34C1706.5,546.5,1723.5,571.5,1706.5,567.5Z" transform="translate(-192.5 -101.26)"/></svg>